<svg width="119" height="27" viewBox="0 0 119 27" fill="none" xmlns="http://www.w3.org/2000/svg">
<path d="M18.3799 13.8164C18.2822 14.9232 17.9974 15.9974 17.5254 17.0391C17.0697 18.0645 16.4593 18.9759 15.6943 19.7734C14.9456 20.571 14.0586 21.1976 13.0332 21.6533C12.0241 22.0928 10.9173 22.2799 9.71289 22.2148C8.58984 22.1497 7.49121 21.8975 6.41699 21.458C5.34277 21.0023 4.39062 20.3919 3.56055 19.627C2.74674 18.8457 2.0957 17.9424 1.60742 16.917C1.13542 15.8753 0.931966 14.736 0.99707 13.499C1.07845 12.1156 1.37142 10.903 1.87598 9.86133C2.39681 8.80339 3.05599 7.92448 3.85352 7.22461C4.65104 6.52474 5.54622 6.00391 6.53906 5.66211C7.5319 5.30404 8.54915 5.11686 9.59082 5.10059C10.6325 5.08431 11.6497 5.24707 12.6426 5.58887C13.6517 5.91439 14.5632 6.41895 15.377 7.10254C16.1908 7.76986 16.8662 8.61621 17.4033 9.6416C17.9404 10.6507 18.266 11.8389 18.3799 13.2061C18.4124 13.3363 18.4287 13.4339 18.4287 13.499C18.4287 13.5804 18.4124 13.6862 18.3799 13.8164ZM3.02344 13.499C3.10482 14.9313 3.47917 16.1276 4.14648 17.0879C4.8138 18.0482 5.6276 18.7725 6.58789 19.2607C7.56445 19.7327 8.60612 19.9688 9.71289 19.9688C10.8197 19.9688 11.8532 19.7327 12.8135 19.2607C13.79 18.7725 14.612 18.0482 15.2793 17.0879C15.9466 16.1276 16.321 14.9313 16.4023 13.499C16.3535 12.6364 16.1501 11.7982 15.792 10.9844C15.4502 10.1543 14.9863 9.42188 14.4004 8.78711C13.8145 8.15234 13.1227 7.65592 12.3252 7.29785C11.5277 6.93978 10.6569 6.78516 9.71289 6.83398C8.83398 6.88281 7.97949 7.07812 7.14941 7.41992C6.33561 7.76172 5.61133 8.22559 4.97656 8.81152C4.35807 9.39746 3.86165 10.0892 3.4873 10.8867C3.12923 11.6842 2.97461 12.555 3.02344 13.499ZM57.4619 1.24316C57.999 3.26139 58.4954 5.28776 58.9512 7.32227C59.4232 9.35677 59.887 11.3913 60.3428 13.4258C60.7985 15.4603 61.2705 17.4867 61.7588 19.5049C62.2471 21.5231 62.7842 23.5332 63.3701 25.5352C63.4678 25.8607 63.4352 26.1292 63.2725 26.3408C63.1097 26.5524 62.9062 26.6908 62.6621 26.7559C62.418 26.821 62.1738 26.8047 61.9297 26.707C61.6855 26.6094 61.5146 26.4059 61.417 26.0967C60.7985 23.9808 60.2288 21.8649 59.708 19.749C59.2035 17.6331 58.7152 15.5091 58.2432 13.377H47.2812C47.7533 15.4277 48.2253 17.4622 48.6973 19.4805C49.1855 21.4987 49.7308 23.5169 50.333 25.5352C50.4307 25.8607 50.3981 26.1292 50.2354 26.3408C50.0889 26.5524 49.8936 26.6908 49.6494 26.7559C49.4053 26.821 49.153 26.8047 48.8926 26.707C48.6484 26.6094 48.4775 26.4059 48.3799 26.0967C47.7939 24.0947 47.2568 22.0846 46.7686 20.0664C46.2803 18.0319 45.8083 15.9974 45.3525 13.9629C44.8968 11.9284 44.4411 9.90202 43.9854 7.88379C43.5296 5.84928 43.0332 3.82292 42.4961 1.80469C42.4147 1.49544 42.4473 1.23503 42.5938 1.02344C42.7565 0.795573 42.96 0.649089 43.2041 0.583984C43.4482 0.51888 43.6924 0.535156 43.9365 0.632812C44.1969 0.730469 44.3678 0.933919 44.4492 1.24316C44.8887 2.9196 45.3037 4.60417 45.6943 6.29688C46.085 7.97331 46.4674 9.65788 46.8418 11.3506H57.8037C57.4456 9.73926 57.0794 8.14421 56.7051 6.56543C56.347 4.97038 55.9564 3.38346 55.5332 1.80469C55.4518 1.49544 55.4844 1.23503 55.6309 1.02344C55.7936 0.795573 55.9971 0.649089 56.2412 0.583984C56.4854 0.51888 56.7295 0.535156 56.9736 0.632812C57.2178 0.730469 57.3805 0.933919 57.4619 1.24316ZM79.2002 4.0752C80.2256 5.2959 81.194 6.54915 82.1055 7.83496C83.0332 9.12077 83.9365 10.4229 84.8154 11.7412C85.7106 13.0596 86.5895 14.3861 87.4521 15.7207C88.3311 17.0391 89.2344 18.3411 90.1621 19.627C90.3574 19.9036 90.4062 20.1641 90.3086 20.4082C90.2272 20.6361 90.0726 20.8151 89.8447 20.9453C89.6331 21.0592 89.389 21.1081 89.1123 21.0918C88.8356 21.0592 88.6077 20.9128 88.4287 20.6523C87.9079 19.9525 87.4033 19.2526 86.915 18.5527C86.4268 17.8366 85.9466 17.1123 85.4746 16.3799H75.9043C75.4486 17.5029 74.9847 18.626 74.5127 19.749C74.057 20.8558 73.5687 21.9626 73.0479 23.0693C72.9014 23.3623 72.7061 23.5332 72.4619 23.582C72.2178 23.6146 71.9818 23.5658 71.7539 23.4355C71.5423 23.3053 71.3796 23.1182 71.2656 22.874C71.1517 22.6136 71.1598 22.3369 71.29 22.0439C71.7295 21.1162 72.1445 20.1803 72.5352 19.2363C72.9421 18.2923 73.3408 17.3402 73.7314 16.3799H72.4863C72.1608 16.3799 71.9085 16.2741 71.7295 16.0625C71.5667 15.8509 71.4854 15.623 71.4854 15.3789C71.4854 15.1185 71.5667 14.8825 71.7295 14.6709C71.9085 14.4593 72.1608 14.3535 72.4863 14.3535H74.5371C75.1068 12.9049 75.6683 11.4645 76.2217 10.0322C76.7751 8.58366 77.3366 7.12695 77.9062 5.66211C77.8737 5.62956 77.8493 5.60514 77.833 5.58887C77.833 5.57259 77.8167 5.54818 77.7842 5.51562C77.5726 5.27148 77.4912 5.01107 77.54 4.73438C77.5889 4.45768 77.6947 4.22982 77.8574 4.05078C78.0365 3.87174 78.248 3.77409 78.4922 3.75781C78.7526 3.72526 78.9886 3.83105 79.2002 4.0752ZM84.1318 14.3535C83.3506 13.1816 82.5693 12.026 81.7881 10.8867C81.0231 9.7474 80.2093 8.61621 79.3467 7.49316C78.9072 8.63249 78.4678 9.77181 78.0283 10.9111C77.5889 12.0505 77.1494 13.1979 76.71 14.3535H84.1318ZM100.719 22.9473C99.8724 22.2962 99.1725 21.4906 98.6191 20.5303C98.0658 19.5537 97.6426 18.5202 97.3496 17.4297C97.0729 16.3229 96.9183 15.1999 96.8857 14.0605C96.8532 12.9049 96.9427 11.8226 97.1543 10.8135C97.4635 9.33236 98.0332 8.06283 98.8633 7.00488C99.7096 5.93066 100.711 5.05176 101.866 4.36816C103.038 3.68457 104.324 3.18815 105.724 2.87891C107.14 2.56966 108.564 2.43945 109.996 2.48828C111.428 2.52083 112.828 2.72428 114.195 3.09863C115.562 3.47298 116.799 4.00195 117.906 4.68555C118.183 4.86458 118.338 5.08431 118.37 5.34473C118.403 5.60514 118.354 5.84928 118.224 6.07715C118.11 6.28874 117.931 6.44336 117.687 6.54102C117.442 6.63867 117.182 6.59798 116.905 6.41895C115.929 5.81673 114.806 5.35286 113.536 5.02734C112.283 4.70182 110.989 4.53906 109.654 4.53906C108.336 4.52279 107.034 4.66927 105.748 4.97852C104.479 5.28776 103.339 5.77604 102.33 6.44336C101.337 7.11068 100.532 7.97331 99.9131 9.03125C99.2946 10.0729 98.9854 11.3262 98.9854 12.791C98.9854 13.9141 99.0749 15.0208 99.2539 16.1113C99.4329 17.1855 99.7585 18.1702 100.23 19.0654C100.702 19.9443 101.345 20.693 102.159 21.3115C102.973 21.9137 104.015 22.2962 105.284 22.459C106.179 22.5892 107.075 22.6624 107.97 22.6787C108.881 22.6787 109.785 22.6543 110.68 22.6055C111.575 22.5566 112.47 22.4834 113.365 22.3857C114.26 22.2881 115.156 22.1904 116.051 22.0928C116.376 22.0602 116.62 22.1416 116.783 22.3369C116.946 22.516 117.027 22.7357 117.027 22.9961C117.027 23.2565 116.946 23.5007 116.783 23.7285C116.62 23.9564 116.376 24.0866 116.051 24.1191C115.302 24.2005 114.488 24.2982 113.609 24.4121C112.747 24.526 111.86 24.6237 110.948 24.7051C110.037 24.7865 109.117 24.8353 108.189 24.8516C107.262 24.8678 106.35 24.819 105.455 24.7051C104.576 24.5911 103.73 24.3958 102.916 24.1191C102.118 23.8424 101.386 23.4518 100.719 22.9473Z" fill="#40BA4C"/>
</svg>
