<svg width="543" height="53" viewBox="0 0 543 53" fill="none" xmlns="http://www.w3.org/2000/svg">
<path d="M53.582 38.791C52.1497 38.8887 50.278 39.0677 47.9668 39.3281C45.6556 39.556 43.1003 39.7839 40.3008 40.0117C37.5339 40.2396 34.6204 40.4186 31.5605 40.5488C28.5332 40.6465 25.5384 40.6139 22.5762 40.4512C19.6139 40.2559 16.7982 39.8815 14.1289 39.3281C11.4596 38.7747 9.13216 37.9447 7.14648 36.8379C5.16081 35.6986 3.59831 34.25 2.45898 32.4922C1.35221 30.7344 0.863932 28.5697 0.994141 25.998C1.05924 24.403 1.44987 22.987 2.16602 21.75C2.91471 20.4805 3.85872 19.3737 4.99805 18.4297C6.16992 17.4857 7.48828 16.6719 8.95312 15.9883C10.418 15.3047 11.9154 14.735 13.4453 14.2793C15.0078 13.791 16.5378 13.4167 18.0352 13.1562C19.5326 12.8958 20.8997 12.7005 22.1367 12.5703C23.4062 12.4401 24.806 12.3262 26.3359 12.2285C27.8984 12.1309 29.4935 12.0983 31.1211 12.1309C32.7812 12.1634 34.4414 12.2936 36.1016 12.5215C37.7617 12.7168 39.3405 13.0586 40.8379 13.5469C42.3353 14.0352 43.7025 14.6862 44.9395 15.5C46.1764 16.3138 47.2181 17.3392 48.0645 18.5762C48.4551 19.1621 48.4876 19.748 48.1621 20.334C47.8366 20.8874 47.3971 21.2943 46.8438 21.5547C44.1419 22.6615 41.2773 23.4102 38.25 23.8008C35.2552 24.1914 32.2116 24.3216 29.1191 24.1914C26.0592 24.0286 23.0156 23.638 19.9883 23.0195C16.9935 22.401 14.1452 21.6523 11.4434 20.7734C11.1504 20.6432 10.9062 20.4967 10.7109 20.334C9.47396 20.985 8.39974 21.6849 7.48828 22.4336C6.57682 23.1497 5.89323 23.931 5.4375 24.7773C4.98177 25.5911 4.78646 26.4538 4.85156 27.3652C4.91667 28.2767 5.29102 29.2044 5.97461 30.1484C7.21159 31.8086 8.87174 33.0618 10.9551 33.9082C13.071 34.7546 15.3333 35.3405 17.7422 35.666C20.151 35.9915 22.5436 36.1543 24.9199 36.1543C27.3288 36.1543 29.4447 36.138 31.2676 36.1055C35.0111 36.0404 38.722 35.8613 42.4004 35.5684C46.1113 35.2428 49.8385 34.9661 53.582 34.7383C54.2331 34.7057 54.7214 34.8848 55.0469 35.2754C55.3724 35.666 55.5352 36.1217 55.5352 36.6426C55.5352 37.1309 55.3724 37.6029 55.0469 38.0586C54.7214 38.5143 54.2331 38.7585 53.582 38.791ZM42.5957 18.7227C41.2611 17.7786 39.5684 17.0951 37.5176 16.6719C35.4668 16.2161 33.2533 15.9883 30.877 15.9883C28.5007 15.9557 26.0592 16.1185 23.5527 16.4766C21.0788 16.8346 18.7188 17.3555 16.4727 18.0391C18.556 18.5924 20.7044 19.0482 22.918 19.4062C25.1315 19.7643 27.3451 19.9922 29.5586 20.0898C31.8047 20.1875 34.0182 20.1387 36.1992 19.9434C38.4128 19.7155 40.5449 19.3086 42.5957 18.7227ZM116.404 42.8438C116.99 43.1367 117.316 43.5436 117.381 44.0645C117.479 44.5527 117.397 45.0247 117.137 45.4805C116.876 45.9036 116.486 46.2292 115.965 46.457C115.477 46.6523 114.939 46.6035 114.354 46.3105C110.968 44.6504 107.534 43.0879 104.051 41.623C100.568 40.1257 97.0846 38.6283 93.6016 37.1309C90.1185 35.6009 86.668 34.0384 83.25 32.4434C79.832 30.8158 76.4954 29.0417 73.2402 27.1211C73.2728 30.9622 73.2728 34.8034 73.2402 38.6445C73.2402 42.4531 73.2402 46.278 73.2402 50.1191C73.2402 50.7702 73.0286 51.2747 72.6055 51.6328C72.1823 51.9583 71.7103 52.1211 71.1895 52.1211C70.7012 52.1211 70.2454 51.9583 69.8223 51.6328C69.3991 51.2747 69.1875 50.7702 69.1875 50.1191C69.1875 45.8548 69.1875 41.6068 69.1875 37.375C69.2201 33.1107 69.2038 28.8301 69.1387 24.5332C68.6178 24.11 68.3574 23.6055 68.3574 23.0195C68.39 22.4336 68.6341 21.929 69.0898 21.5059C69.0247 18.3483 68.9434 15.1908 68.8457 12.0332C68.748 8.87565 68.5853 5.70182 68.3574 2.51172C68.3249 1.86068 68.5039 1.3724 68.8945 1.04688C69.2852 0.721354 69.7246 0.558594 70.2129 0.558594C70.7337 0.558594 71.2057 0.721354 71.6289 1.04688C72.0846 1.3724 72.3451 1.86068 72.4102 2.51172C72.4753 3.0651 72.5078 3.63477 72.5078 4.2207C72.5404 4.77409 72.5729 5.32747 72.6055 5.88086C73.4193 6.01107 74.4121 6.14128 75.584 6.27148C76.7559 6.36914 77.9603 6.51562 79.1973 6.71094C80.4668 6.90625 81.7201 7.16667 82.957 7.49219C84.194 7.78516 85.3171 8.17578 86.3262 8.66406C87.3678 9.15234 88.2142 9.75456 88.8652 10.4707C89.5163 11.1868 89.8906 12.0658 89.9883 13.1074C90.151 14.9954 89.7767 16.5417 88.8652 17.7461C87.9863 18.9505 86.8145 19.9434 85.3496 20.7246C83.9173 21.4733 82.306 22.0755 80.5156 22.5312C78.7578 22.9544 77.0651 23.3451 75.4375 23.7031C78.6927 25.6237 82.013 27.3815 85.3984 28.9766C88.8164 30.5716 92.2507 32.1341 95.7012 33.6641C99.1842 35.1615 102.651 36.6589 106.102 38.1562C109.585 39.6211 113.019 41.1836 116.404 42.8438ZM84.5684 12.5703C82.7129 11.7565 80.776 11.2194 78.7578 10.959C76.7721 10.666 74.7865 10.3568 72.8008 10.0312C72.8659 11.6914 72.9147 13.3678 72.9473 15.0605C73.0124 16.7207 73.0775 18.3971 73.1426 20.0898C74.1191 19.862 75.0957 19.6829 76.0723 19.5527C77.0814 19.4225 78.1068 19.2272 79.1484 18.9668C79.4089 18.9017 79.832 18.7389 80.418 18.4785C81.0039 18.2181 81.6061 17.9089 82.2246 17.5508C82.8757 17.1602 83.4941 16.737 84.0801 16.2812C84.6986 15.8255 85.1543 15.3861 85.4473 14.9629C85.7728 14.5072 85.8867 14.0677 85.7891 13.6445C85.6914 13.2214 85.2845 12.8633 84.5684 12.5703ZM126.98 9.49414C127.697 12.196 128.364 14.9141 128.982 17.6484C129.601 20.3828 130.203 23.1172 130.789 25.8516C131.408 28.5859 132.042 31.3203 132.693 34.0547C133.344 36.7565 134.077 39.4421 134.891 42.1113C135.086 42.7298 135.021 43.2507 134.695 43.6738C134.37 44.097 133.963 44.3737 133.475 44.5039C132.986 44.6341 132.498 44.6016 132.01 44.4062C131.521 44.2109 131.18 43.804 130.984 43.1855C130.171 40.5163 129.438 37.8307 128.787 35.1289C128.136 32.3945 127.501 29.6602 126.883 26.9258C126.297 24.1914 125.695 21.457 125.076 18.7227C124.458 15.9883 123.79 13.2702 123.074 10.5684C122.911 9.94987 122.977 9.42904 123.27 9.00586C123.595 8.55013 124.002 8.25716 124.49 8.12695C124.979 7.99674 125.467 8.04557 125.955 8.27344C126.476 8.46875 126.818 8.87565 126.98 9.49414ZM160.701 10.6172C160.799 10.2591 160.978 9.96615 161.238 9.73828C161.499 9.47786 161.792 9.3151 162.117 9.25C162.475 9.15234 162.833 9.15234 163.191 9.25C163.549 9.3151 163.859 9.47786 164.119 9.73828C168.774 14.3932 173.413 19.0482 178.035 23.7031C182.658 28.3255 187.296 32.9805 191.951 37.668C192.602 35.2266 193.204 32.7852 193.758 30.3438C194.344 27.9023 194.913 25.4609 195.467 23.0195C196.02 20.5781 196.574 18.1367 197.127 15.6953C197.68 13.2539 198.283 10.8125 198.934 8.37109C199.096 7.7526 199.422 7.3457 199.91 7.15039C200.398 6.92253 200.887 6.8737 201.375 7.00391C201.863 7.13411 202.27 7.42708 202.596 7.88281C202.921 8.30599 203.003 8.82682 202.84 9.44531C202.124 12.1471 201.456 14.8652 200.838 17.5996C200.219 20.334 199.601 23.0684 198.982 25.8027C198.364 28.5371 197.729 31.2715 197.078 34.0059C196.427 36.7077 195.695 39.3932 194.881 42.0625C194.783 42.4206 194.604 42.7298 194.344 42.9902C194.083 43.2181 193.79 43.3809 193.465 43.4785C193.139 43.5762 192.798 43.5924 192.439 43.5273C192.114 43.4297 191.805 43.2344 191.512 42.9414C186.857 38.2865 182.234 33.6478 177.645 29.0254C173.055 24.403 168.432 19.7643 163.777 15.1094C163.159 17.5508 162.573 19.9922 162.02 22.4336C161.499 24.875 160.962 27.3164 160.408 29.7578C159.855 32.1992 159.269 34.6406 158.65 37.082C158.064 39.4909 157.413 41.8997 156.697 44.3086C156.502 44.9271 156.144 45.3503 155.623 45.5781C155.135 45.7734 154.646 45.806 154.158 45.6758C153.67 45.5456 153.263 45.2689 152.938 44.8457C152.645 44.4225 152.596 43.8854 152.791 43.2344C153.605 40.5651 154.337 37.8796 154.988 35.1777C155.639 32.4434 156.258 29.709 156.844 26.9746C157.462 24.2402 158.081 21.5059 158.699 18.7715C159.318 16.0371 159.985 13.319 160.701 10.6172ZM278.924 29.3184C279.673 30.002 280.031 30.6855 279.998 31.3691C279.998 32.0527 279.754 32.7201 279.266 33.3711C278.777 33.9896 278.11 34.5918 277.264 35.1777C276.45 35.7311 275.604 36.2357 274.725 36.6914C273.878 37.1471 273.064 37.5378 272.283 37.8633C271.535 38.1562 270.981 38.3678 270.623 38.498C267.596 39.5397 264.536 40.4186 261.443 41.1348C258.383 41.8184 255.307 42.4368 252.215 42.9902C249.122 43.5111 246.014 43.9993 242.889 44.4551C239.764 44.9108 236.639 45.4316 233.514 46.0176C232.863 46.1152 232.326 46.0013 231.902 45.6758C231.479 45.3177 231.186 44.8945 231.023 44.4062C230.893 43.918 230.926 43.446 231.121 42.9902C231.349 42.502 231.788 42.209 232.439 42.1113C235.271 41.5905 238.104 41.1348 240.936 40.7441C243.768 40.321 246.6 39.8815 249.432 39.4258C252.264 38.9701 255.079 38.4655 257.879 37.9121C260.678 37.3262 263.445 36.5938 266.18 35.7148C267.482 35.2917 268.8 34.8685 270.135 34.4453C271.502 33.9896 272.771 33.3874 273.943 32.6387C274.334 32.4108 274.66 32.248 274.92 32.1504C275.18 32.0202 275.359 31.9388 275.457 31.9062C275.587 31.8737 275.636 31.8574 275.604 31.8574C275.571 31.8249 275.473 31.776 275.311 31.7109C274.139 31.1901 272.902 30.7832 271.6 30.4902C270.33 30.1973 269.077 29.9206 267.84 29.6602C264.194 28.9115 260.548 28.2116 256.902 27.5605C253.257 26.9095 249.627 26.0957 246.014 25.1191C245.135 24.8913 244.158 24.6471 243.084 24.3867C242.042 24.0938 241.017 23.7357 240.008 23.3125C239.031 22.8893 238.136 22.3522 237.322 21.7012C236.508 21.0501 235.906 20.2363 235.516 19.2598C235.32 18.7064 235.385 18.2018 235.711 17.7461C236.069 17.2904 236.476 16.9648 236.932 16.7695C243.051 14.2305 249.22 12.082 255.438 10.3242C261.688 8.56641 268.1 7.32943 274.676 6.61328C275.327 6.54818 275.799 6.71094 276.092 7.10156C276.417 7.49219 276.58 7.94792 276.58 8.46875C276.58 8.95703 276.417 9.42904 276.092 9.88477C275.766 10.3405 275.294 10.6009 274.676 10.666C268.816 11.3171 263.087 12.4238 257.488 13.9863C251.922 15.5163 246.404 17.3555 240.936 19.5039C241.489 19.7969 242.124 20.0573 242.84 20.2852C243.556 20.4805 244.256 20.6595 244.939 20.8223C245.656 20.985 246.307 21.1315 246.893 21.2617C247.479 21.3594 247.934 21.4408 248.26 21.5059C250.441 22.0592 252.622 22.5475 254.803 22.9707C256.984 23.3939 259.165 23.8171 261.346 24.2402C262.648 24.5007 264.096 24.7285 265.691 24.9238C267.319 25.1191 268.93 25.3958 270.525 25.7539C272.153 26.0794 273.699 26.5189 275.164 27.0723C276.629 27.6257 277.882 28.3743 278.924 29.3184ZM333.152 43.2832C333.738 43.0228 334.292 43.0065 334.812 43.2344C335.333 43.4622 335.724 43.804 335.984 44.2598C336.245 44.6829 336.326 45.1387 336.229 45.627C336.131 46.1152 335.789 46.4896 335.203 46.75C332.469 47.9219 329.637 48.8496 326.707 49.5332C323.777 50.2168 320.929 50.4284 318.162 50.168C315.395 49.9076 312.807 49.0612 310.398 47.6289C308.022 46.1966 306.02 43.9505 304.393 40.8906C303.058 38.2865 301.984 35.5358 301.17 32.6387C298.533 33.1921 295.913 33.8105 293.309 34.4941C290.737 35.1452 288.149 35.8613 285.545 36.6426C284.926 36.8379 284.406 36.7891 283.982 36.4961C283.559 36.1706 283.283 35.7637 283.152 35.2754C283.022 34.7871 283.055 34.2988 283.25 33.8105C283.445 33.2897 283.852 32.9316 284.471 32.7363C287.107 31.9225 289.728 31.1901 292.332 30.5391C294.936 29.888 297.557 29.2858 300.193 28.7324C299.38 24.696 298.875 20.627 298.68 16.5254C298.517 12.3913 298.37 8.33854 298.24 4.36719C298.208 3.71615 298.387 3.22786 298.777 2.90234C299.201 2.57682 299.673 2.41406 300.193 2.41406C300.714 2.41406 301.186 2.57682 301.609 2.90234C302.033 3.22786 302.26 3.71615 302.293 4.36719C302.423 8.24089 302.553 12.1797 302.684 16.1836C302.846 20.1549 303.335 24.0775 304.148 27.9512C307.143 27.3978 310.122 26.9095 313.084 26.4863C316.079 26.0632 319.122 25.7051 322.215 25.4121C322.866 25.347 323.338 25.5098 323.631 25.9004C323.956 26.291 324.119 26.7467 324.119 27.2676C324.119 27.7884 323.956 28.2767 323.631 28.7324C323.305 29.1882 322.833 29.4323 322.215 29.4648C319.285 29.7253 316.404 30.0508 313.572 30.4414C310.773 30.832 307.957 31.304 305.125 31.8574C305.223 32.2155 305.32 32.5736 305.418 32.9316C305.548 33.2897 305.678 33.6478 305.809 34.0059C306.98 37.3262 308.494 39.9303 310.35 41.8184C312.205 43.6738 314.321 44.9271 316.697 45.5781C319.074 46.2292 321.661 46.3431 324.461 45.9199C327.26 45.4642 330.158 44.5853 333.152 43.2832ZM339.334 14.9141C339.269 14.263 339.415 13.7747 339.773 13.4492C340.164 13.1237 340.62 12.9609 341.141 12.9609C341.661 12.9609 342.15 13.1237 342.605 13.4492C343.061 13.7747 343.322 14.263 343.387 14.9141C343.517 16.2161 343.68 17.7949 343.875 19.6504C344.103 21.4733 344.412 23.3613 344.803 25.3145C345.226 27.2676 345.763 29.1719 346.414 31.0273C347.098 32.8828 347.96 34.4453 349.002 35.7148C350.076 36.9844 351.378 37.8633 352.908 38.3516C354.471 38.8398 356.326 38.6934 358.475 37.9121C360.005 37.3587 361.29 36.5286 362.332 35.4219C363.406 34.3151 364.285 33.0456 364.969 31.6133C365.652 30.1484 366.173 28.5697 366.531 26.877C366.889 25.1842 367.15 23.4915 367.312 21.7988C367.475 20.0736 367.557 18.3971 367.557 16.7695C367.589 15.1094 367.605 13.612 367.605 12.2773C367.605 11.6263 367.801 11.138 368.191 10.8125C368.615 10.487 369.07 10.3242 369.559 10.3242C370.079 10.3242 370.551 10.487 370.975 10.8125C371.43 11.138 371.658 11.6263 371.658 12.2773C371.658 13.9701 371.609 15.8743 371.512 17.9902C371.447 20.1061 371.235 22.2708 370.877 24.4844C370.551 26.6654 370.063 28.8138 369.412 30.9297C368.794 33.013 367.931 34.8848 366.824 36.5449C365.717 38.2051 364.334 39.5723 362.674 40.6465C361.014 41.6882 359.028 42.2415 356.717 42.3066C354.243 42.4043 352.127 42.0462 350.369 41.2324C348.611 40.4186 347.114 39.3118 345.877 37.9121C344.673 36.4798 343.696 34.8359 342.947 32.9805C342.199 31.0924 341.58 29.123 341.092 27.0723C340.636 24.9889 340.278 22.9056 340.018 20.8223C339.757 18.7389 339.529 16.7695 339.334 14.9141ZM381.111 3.3418C382.186 3.11393 383.65 2.88607 385.506 2.6582C387.394 2.43034 389.493 2.26758 391.805 2.16992C394.116 2.07227 396.541 2.05599 399.08 2.12109C401.619 2.15365 404.093 2.34896 406.502 2.70703C408.911 3.0651 411.141 3.58594 413.191 4.26953C415.242 4.95312 416.935 5.88086 418.27 7.05273C419.637 8.19206 420.532 9.60807 420.955 11.3008C421.378 12.9609 421.167 14.9303 420.32 17.209C419.572 19.1621 418.693 21.0664 417.684 22.9219C416.707 24.7448 415.617 26.5352 414.412 28.293C413.24 30.0508 412.003 31.776 410.701 33.4688C409.399 35.1289 408.081 36.7565 406.746 38.3516C406.03 39.1979 405.2 40.2721 404.256 41.5742C403.344 42.8438 402.352 44.097 401.277 45.334C400.203 46.571 399.064 47.694 397.859 48.7031C396.688 49.6797 395.516 50.2982 394.344 50.5586C393.693 50.7214 393.156 50.64 392.732 50.3145C392.309 49.9564 392.033 49.5332 391.902 49.0449C391.772 48.5566 391.805 48.0846 392 47.6289C392.195 47.1406 392.618 46.8151 393.27 46.6523C393.758 46.5221 394.279 46.2617 394.832 45.8711C395.385 45.4479 395.939 44.9596 396.492 44.4062C394.995 38.026 393.481 31.6784 391.951 25.3633C390.454 19.0482 388.745 12.7331 386.824 6.41797C386.043 6.54818 385.262 6.67839 384.48 6.80859C383.699 6.9388 382.934 7.08529 382.186 7.24805C381.535 7.37826 380.997 7.2806 380.574 6.95508C380.151 6.59701 379.858 6.17383 379.695 5.68555C379.565 5.19727 379.598 4.72526 379.793 4.26953C380.021 3.78125 380.46 3.47201 381.111 3.3418ZM414.217 20.8223C414.51 20.2689 414.819 19.6829 415.145 19.0645C415.503 18.446 415.828 17.8275 416.121 17.209C416.414 16.5579 416.642 15.9069 416.805 15.2559C417 14.5723 417.098 13.9049 417.098 13.2539C417.065 12.2773 416.658 11.431 415.877 10.7148C415.096 9.96615 414.168 9.34766 413.094 8.85938C412.02 8.33854 410.896 7.93164 409.725 7.63867C408.585 7.31315 407.641 7.05273 406.893 6.85742C404.354 6.27148 401.733 5.91341 399.031 5.7832C396.329 5.65299 393.628 5.7181 390.926 5.97852C392.651 11.7402 394.214 17.4857 395.613 23.2148C397.013 28.944 398.396 34.7383 399.764 40.5977C400.219 40.0117 400.643 39.4583 401.033 38.9375C401.456 38.4167 401.814 37.9772 402.107 37.6191C404.354 34.9824 406.518 32.2969 408.602 29.5625C410.685 26.7956 412.557 23.8822 414.217 20.8223ZM437.977 9.49414C438.693 12.196 439.36 14.9141 439.979 17.6484C440.597 20.3828 441.199 23.1172 441.785 25.8516C442.404 28.5859 443.038 31.3203 443.689 34.0547C444.34 36.7565 445.073 39.4421 445.887 42.1113C446.082 42.7298 446.017 43.2507 445.691 43.6738C445.366 44.097 444.959 44.3737 444.471 44.5039C443.982 44.6341 443.494 44.6016 443.006 44.4062C442.518 44.2109 442.176 43.804 441.98 43.1855C441.167 40.5163 440.434 37.8307 439.783 35.1289C439.132 32.3945 438.497 29.6602 437.879 26.9258C437.293 24.1914 436.691 21.457 436.072 18.7227C435.454 15.9883 434.786 13.2702 434.07 10.5684C433.908 9.94987 433.973 9.42904 434.266 9.00586C434.591 8.55013 434.998 8.25716 435.486 8.12695C435.975 7.99674 436.463 8.04557 436.951 8.27344C437.472 8.46875 437.814 8.87565 437.977 9.49414ZM491.229 32.4922C491.847 32.362 492.368 32.4759 492.791 32.834C493.247 33.1595 493.54 33.5664 493.67 34.0547C493.833 34.543 493.8 35.0312 493.572 35.5195C493.377 35.9753 492.954 36.2682 492.303 36.3984C489.894 36.8867 487.339 37.3262 484.637 37.7168C481.967 38.0749 479.282 38.2214 476.58 38.1562C473.911 38.0911 471.29 37.7331 468.719 37.082C466.147 36.3984 463.787 35.2754 461.639 33.7129C460.141 32.6387 459.246 31.5156 458.953 30.3438C458.66 29.1719 458.758 28 459.246 26.8281C459.734 25.6562 460.516 24.5169 461.59 23.4102C462.664 22.3034 463.82 21.278 465.057 20.334C466.326 19.39 467.579 18.5599 468.816 17.8438C470.086 17.1276 471.144 16.5742 471.99 16.1836C472.869 15.7604 473.96 15.4023 475.262 15.1094C476.596 14.8164 477.98 14.6374 479.412 14.5723C480.844 14.4746 482.244 14.5234 483.611 14.7188C485.011 14.9141 486.199 15.321 487.176 15.9395C488.152 16.5579 488.852 17.4043 489.275 18.4785C489.731 19.5527 489.731 20.9036 489.275 22.5312C488.982 23.6706 488.396 24.6634 487.518 25.5098C486.639 26.3236 485.63 27.0234 484.49 27.6094C483.383 28.1953 482.228 28.6836 481.023 29.0742C479.819 29.4323 478.729 29.709 477.752 29.9043C476.58 30.1322 475.408 30.2786 474.236 30.3438C473.064 30.3763 471.876 30.36 470.672 30.2949C469.5 30.1973 468.312 30.0833 467.107 29.9531C465.936 29.7904 464.764 29.6276 463.592 29.4648C463.852 30.1159 464.357 30.6855 465.105 31.1738C465.887 31.6621 466.749 32.069 467.693 32.3945C468.67 32.7201 469.663 32.9967 470.672 33.2246C471.714 33.4199 472.625 33.5664 473.406 33.6641C476.466 34.1198 479.445 34.2012 482.342 33.9082C485.271 33.5827 488.234 33.1107 491.229 32.4922ZM475.066 19.3086C473.374 19.9596 471.616 20.806 469.793 21.8477C468.003 22.8893 466.456 24.0612 465.154 25.3633C465.122 25.4284 465.089 25.4772 465.057 25.5098C465.024 25.5098 464.992 25.5423 464.959 25.6074C466.619 25.8678 468.377 26.0794 470.232 26.2422C472.088 26.4049 473.911 26.4212 475.701 26.291C477.492 26.1283 479.168 25.7539 480.73 25.168C482.326 24.5495 483.66 23.5729 484.734 22.2383C485.483 21.3594 485.776 20.6758 485.613 20.1875C485.483 19.6667 485.076 19.2923 484.393 19.0645C483.742 18.8366 482.928 18.7064 481.951 18.6738C480.975 18.6413 479.998 18.6576 479.021 18.7227C478.077 18.7878 477.215 18.8854 476.434 19.0156C475.685 19.1458 475.229 19.2435 475.066 19.3086ZM538.377 25.1191C540.037 26.1283 541.193 27.1862 541.844 28.293C542.527 29.3997 542.771 30.4902 542.576 31.5645C542.381 32.6387 541.795 33.6803 540.818 34.6895C539.874 35.6986 538.621 36.61 537.059 37.4238C535.887 38.0423 534.633 38.5306 533.299 38.8887C531.997 39.2142 530.662 39.4746 529.295 39.6699C527.928 39.8652 526.561 40.028 525.193 40.1582C523.826 40.2559 522.508 40.3861 521.238 40.5488C517.885 40.972 514.549 41.3626 511.229 41.7207C507.941 42.0788 504.62 42.388 501.268 42.6484C500.617 42.7135 500.128 42.5508 499.803 42.1602C499.477 41.737 499.314 41.2812 499.314 40.793C499.314 40.2721 499.477 39.8001 499.803 39.377C500.128 38.9212 500.617 38.6608 501.268 38.5957C505.044 38.2702 508.787 37.9121 512.498 37.5215C516.242 37.1309 519.985 36.6914 523.729 36.2031C524.77 36.0729 525.844 35.959 526.951 35.8613C528.09 35.7311 529.214 35.5684 530.32 35.373C531.427 35.1777 532.501 34.9173 533.543 34.5918C534.617 34.2337 535.61 33.7454 536.521 33.127C537.4 32.541 537.938 32.0039 538.133 31.5156C538.361 30.9948 538.361 30.5228 538.133 30.0996C537.938 29.6764 537.579 29.3021 537.059 28.9766C536.538 28.6185 535.968 28.3092 535.35 28.0488C534.764 27.7884 534.161 27.5605 533.543 27.3652C532.957 27.1699 532.485 27.0234 532.127 26.9258C530.467 26.4375 528.79 25.9818 527.098 25.5586C525.405 25.1354 523.729 24.696 522.068 24.2402C520.408 23.752 518.748 23.2474 517.088 22.7266C515.428 22.1732 513.8 21.5384 512.205 20.8223C511.521 20.5293 510.74 20.1549 509.861 19.6992C508.982 19.2435 508.201 18.7227 507.518 18.1367C506.867 17.5182 506.443 16.8346 506.248 16.0859C506.085 15.3047 506.378 14.4583 507.127 13.5469C507.55 13.026 508.185 12.6354 509.031 12.375C509.878 12.1146 510.757 11.9355 511.668 11.8379C512.612 11.7077 513.523 11.6263 514.402 11.5938C515.314 11.5612 516.046 11.5124 516.6 11.4473C519.367 11.1543 522.101 10.8939 524.803 10.666C527.505 10.4056 530.239 10.194 533.006 10.0312C533.657 9.9987 534.145 10.1777 534.471 10.5684C534.796 10.959 534.959 11.4147 534.959 11.9355C534.959 12.4238 534.796 12.8958 534.471 13.3516C534.145 13.8073 533.657 14.0514 533.006 14.084C529.848 14.2467 526.723 14.4746 523.631 14.7676C520.538 15.0605 517.43 15.3861 514.305 15.7441C513.849 15.7767 513.41 15.8255 512.986 15.8906C512.563 15.9557 512.124 16.0208 511.668 16.0859C511.798 16.151 511.912 16.2161 512.01 16.2812C512.107 16.3138 512.205 16.3626 512.303 16.4277C513.117 16.8184 513.914 17.1764 514.695 17.502C515.509 17.8275 516.323 18.1367 517.137 18.4297C518.829 19.0156 520.604 19.5365 522.459 19.9922C524.314 20.4154 526.17 20.8548 528.025 21.3105C529.881 21.7663 531.688 22.2871 533.445 22.873C535.203 23.459 536.847 24.2077 538.377 25.1191Z" fill="#40BA4C"/>
</svg>
