<svg width="538" height="41" viewBox="0 0 538 41" fill="none" xmlns="http://www.w3.org/2000/svg">
<path d="M28.8291 19.126C29.0407 19.9072 28.9674 20.5908 28.6094 21.1768C28.2676 21.7464 27.7386 22.2428 27.0225 22.666C26.3226 23.0729 25.4925 23.4066 24.5322 23.667C23.5882 23.9274 22.6198 24.139 21.627 24.3018C20.6504 24.4482 19.7064 24.5622 18.7949 24.6436C17.8835 24.7087 17.1185 24.7493 16.5 24.7656C17.0208 27.0931 17.5498 29.4124 18.0869 31.7236C18.624 34.0186 19.2344 36.3053 19.918 38.584C20.0156 38.9095 19.9831 39.1781 19.8203 39.3896C19.6576 39.6012 19.4541 39.7396 19.21 39.8047C18.9658 39.8698 18.7217 39.8535 18.4775 39.7559C18.2334 39.6419 18.0625 39.4303 17.9648 39.1211C17.265 36.7773 16.6383 34.4255 16.085 32.0654C15.5316 29.6891 14.9945 27.3047 14.4736 24.9121C13.6436 24.6354 12.7891 24.4564 11.9102 24.375C11.0312 24.2936 10.1442 24.2285 9.24902 24.1797C8.37012 24.1146 7.49121 24.0332 6.6123 23.9355C5.74967 23.8216 4.90332 23.6019 4.07324 23.2764C3.65007 23.1136 3.21875 22.8857 2.7793 22.5928C2.33984 22.2998 1.96549 21.9661 1.65625 21.5918C1.34701 21.2012 1.13542 20.778 1.02148 20.3223C0.907552 19.8503 0.964518 19.362 1.19238 18.8574C1.40397 18.3691 1.71322 17.946 2.12012 17.5879C2.52702 17.2135 2.98275 16.8962 3.4873 16.6357C3.99186 16.359 4.50456 16.123 5.02539 15.9277C5.5625 15.7324 6.06706 15.5615 6.53906 15.415C7.32031 15.1709 8.09342 14.943 8.8584 14.7314C9.63965 14.5199 10.4209 14.3245 11.2021 14.1455C11.251 13.9502 11.3486 13.7874 11.4951 13.6572C11.6416 13.527 11.8532 13.4782 12.1299 13.5107C12.2926 13.527 12.4473 13.5433 12.5938 13.5596C12.7565 13.5758 12.9111 13.5921 13.0576 13.6084C13.2041 13.6084 13.3099 13.6165 13.375 13.6328C13.5215 13.6165 13.7005 13.5758 13.9121 13.5107C14.14 13.4619 14.3353 13.4701 14.498 13.5352C14.6608 13.6003 14.7992 13.6979 14.9131 13.8281C16.0687 13.9909 17.2161 14.1699 18.3555 14.3652C19.5111 14.5443 20.6504 14.7803 21.7734 15.0732C22.3105 15.2197 22.9453 15.3906 23.6777 15.5859C24.4102 15.7812 25.1263 16.0335 25.8262 16.3428C26.5423 16.652 27.1771 17.0345 27.7305 17.4902C28.2839 17.9297 28.6501 18.4749 28.8291 19.126ZM8.66309 22.1533C9.54199 22.2347 10.4209 22.2998 11.2998 22.3486C12.195 22.3812 13.082 22.4951 13.9609 22.6904C13.7005 21.5511 13.432 20.4199 13.1553 19.2969C12.8949 18.1576 12.6182 17.0182 12.3252 15.8789C11.5602 16.0254 10.7627 16.1882 9.93262 16.3672C9.10254 16.5299 8.29688 16.7334 7.51562 16.9775C6.73438 17.2217 5.99382 17.5146 5.29395 17.8564C4.59408 18.1982 3.99186 18.6133 3.4873 19.1016C3.12923 19.4434 2.98275 19.7526 3.04785 20.0293C3.11296 20.306 3.30827 20.5583 3.63379 20.7861C3.95931 21.014 4.36621 21.2093 4.85449 21.3721C5.35905 21.5348 5.86361 21.6732 6.36816 21.7871C6.87272 21.901 7.33659 21.9906 7.75977 22.0557C8.18294 22.1045 8.48405 22.137 8.66309 22.1533ZM22.2129 21.958C22.4733 21.9092 22.8151 21.8359 23.2383 21.7383C23.6777 21.6243 24.1172 21.4941 24.5566 21.3477C25.0124 21.1849 25.4274 21.014 25.8018 20.835C26.1761 20.6396 26.4447 20.4281 26.6074 20.2002C26.7702 19.9561 26.7865 19.7038 26.6562 19.4434C26.526 19.1667 26.168 18.8737 25.582 18.5645C24.7357 18.125 23.8568 17.7588 22.9453 17.4658C22.0339 17.1566 21.098 16.8962 20.1377 16.6846C19.1937 16.473 18.2334 16.3021 17.2568 16.1719C16.2965 16.0254 15.3444 15.8952 14.4004 15.7812C14.6934 16.9531 14.9701 18.1169 15.2305 19.2725C15.5072 20.4281 15.7757 21.5918 16.0361 22.7637C17.0778 22.7311 18.1113 22.6497 19.1367 22.5195C20.1621 22.373 21.1875 22.1859 22.2129 21.958ZM55.3037 26.8164C55.2061 27.9232 54.9212 28.9974 54.4492 30.0391C53.9935 31.0645 53.3831 31.9759 52.6182 32.7734C51.8695 33.571 50.9824 34.1976 49.957 34.6533C48.9479 35.0928 47.8411 35.2799 46.6367 35.2148C45.5137 35.1497 44.415 34.8975 43.3408 34.458C42.2666 34.0023 41.3145 33.3919 40.4844 32.627C39.6706 31.8457 39.0195 30.9424 38.5312 29.917C38.0592 28.8753 37.8558 27.736 37.9209 26.499C38.0023 25.1156 38.2952 23.903 38.7998 22.8613C39.3206 21.8034 39.9798 20.9245 40.7773 20.2246C41.5749 19.5247 42.4701 19.0039 43.4629 18.6621C44.4557 18.304 45.473 18.1169 46.5146 18.1006C47.5563 18.0843 48.5736 18.2471 49.5664 18.5889C50.5755 18.9144 51.487 19.4189 52.3008 20.1025C53.1146 20.7699 53.79 21.6162 54.3271 22.6416C54.8643 23.6507 55.1898 24.8389 55.3037 26.2061C55.3363 26.3363 55.3525 26.4339 55.3525 26.499C55.3525 26.5804 55.3363 26.6862 55.3037 26.8164ZM39.9473 26.499C40.0286 27.9313 40.403 29.1276 41.0703 30.0879C41.7376 31.0482 42.5514 31.7725 43.5117 32.2607C44.4883 32.7327 45.5299 32.9688 46.6367 32.9688C47.7435 32.9688 48.777 32.7327 49.7373 32.2607C50.7139 31.7725 51.5358 31.0482 52.2031 30.0879C52.8704 29.1276 53.2448 27.9313 53.3262 26.499C53.2773 25.6364 53.0739 24.7982 52.7158 23.9844C52.374 23.1543 51.9102 22.4219 51.3242 21.7871C50.7383 21.1523 50.0465 20.6559 49.249 20.2979C48.4515 19.9398 47.5807 19.7852 46.6367 19.834C45.7578 19.8828 44.9033 20.0781 44.0732 20.4199C43.2594 20.7617 42.5352 21.2256 41.9004 21.8115C41.2819 22.3975 40.7855 23.0892 40.4111 23.8867C40.0531 24.6842 39.8984 25.555 39.9473 26.499ZM83.2188 19.3213C83.3815 19.9398 83.3652 20.5013 83.1699 21.0059C82.9746 21.4941 82.6491 21.9336 82.1934 22.3242C81.7376 22.6986 81.1761 23.0241 80.5088 23.3008C79.8577 23.5775 79.1497 23.8135 78.3848 24.0088C77.6361 24.2041 76.863 24.3669 76.0654 24.4971C75.2679 24.611 74.5029 24.7087 73.7705 24.79C73.0381 24.8551 72.3626 24.904 71.7441 24.9365C71.1419 24.9528 70.6455 24.9691 70.2549 24.9854C70.7757 27.264 71.2965 29.5345 71.8174 31.7969C72.3545 34.043 72.9567 36.2891 73.624 38.5352C73.7217 38.8444 73.6891 39.1048 73.5264 39.3164C73.3636 39.528 73.1602 39.6663 72.916 39.7314C72.6719 39.7965 72.4277 39.7803 72.1836 39.6826C71.9395 39.585 71.7686 39.3815 71.6709 39.0723C71.1012 37.1354 70.5723 35.1823 70.084 33.2129C69.612 31.2435 69.1562 29.2741 68.7168 27.3047C68.2773 25.319 67.8298 23.3415 67.374 21.3721C66.9346 19.4027 66.4626 17.4414 65.958 15.4883C65.7952 15.3581 65.6813 15.1953 65.6162 15C65.5511 14.8047 65.5267 14.6175 65.543 14.4385C65.5755 14.2594 65.6488 14.1048 65.7627 13.9746C65.8766 13.8281 66.0394 13.7386 66.251 13.7061C66.4463 13.5921 66.6497 13.5433 66.8613 13.5596C67.0892 13.5596 67.2845 13.641 67.4473 13.8037C68.9284 13.9827 70.3932 14.1781 71.8418 14.3896C73.2904 14.6012 74.7308 14.8942 76.1631 15.2686C76.7002 15.3988 77.335 15.5615 78.0674 15.7568C78.7998 15.9521 79.516 16.2126 80.2158 16.5381C80.932 16.8473 81.5667 17.2298 82.1201 17.6855C82.6735 18.125 83.0397 18.6702 83.2188 19.3213ZM76.5781 22.1533C76.8385 22.1045 77.1803 22.0312 77.6035 21.9336C78.043 21.8197 78.4824 21.6895 78.9219 21.543C79.3776 21.3802 79.7926 21.2012 80.167 21.0059C80.5576 20.8105 80.8343 20.599 80.9971 20.3711C81.1598 20.1432 81.168 19.891 81.0215 19.6143C80.8913 19.3376 80.5332 19.0446 79.9473 18.7354C79.0684 18.2796 78.1406 17.8971 77.1641 17.5879C76.2038 17.2624 75.2191 17.002 74.21 16.8066C73.2008 16.5951 72.1836 16.4242 71.1582 16.2939C70.1328 16.1475 69.1237 16.0173 68.1309 15.9033C68.4401 17.0915 68.7331 18.2796 69.0098 19.4678C69.2865 20.6559 69.5632 21.8441 69.8398 23.0322C69.9375 22.9834 70.0596 22.959 70.2061 22.959C71.2803 22.9264 72.3464 22.8451 73.4043 22.7148C74.4785 22.5684 75.5365 22.3812 76.5781 22.1533ZM118.946 13.4131C118.995 13.1527 119.125 12.9655 119.337 12.8516C119.549 12.7214 119.768 12.6725 119.996 12.7051C120.224 12.7214 120.436 12.8109 120.631 12.9736C120.826 13.1364 120.932 13.3643 120.948 13.6572C121.241 17.9867 121.38 22.3242 121.363 26.6699C121.363 30.9993 121.363 35.3288 121.363 39.6582C121.363 39.9837 121.257 40.2279 121.046 40.3906C120.834 40.5697 120.598 40.6592 120.338 40.6592C120.094 40.6592 119.866 40.5697 119.654 40.3906C119.443 40.2279 119.337 39.9837 119.337 39.6582C119.353 35.8333 119.361 32.0247 119.361 28.2324C119.378 24.4401 119.296 20.6315 119.117 16.8066C117.343 19.4596 115.536 22.0638 113.697 24.6191C111.858 27.1582 109.986 29.7054 108.082 32.2607C107.903 32.5049 107.651 32.6676 107.325 32.749C107.016 32.8141 106.739 32.7165 106.495 32.4561C105.958 31.8864 105.486 31.2598 105.079 30.5762C104.672 29.8926 104.298 29.1927 103.956 28.4766C103.614 27.7441 103.289 27.0036 102.979 26.2549C102.67 25.5062 102.337 24.79 101.979 24.1064C101.555 23.2601 101.132 22.4137 100.709 21.5674C100.302 20.721 99.9033 19.8584 99.5127 18.9795C99.6429 22.4463 99.6999 25.8968 99.6836 29.3311C99.6673 32.749 99.6592 36.1914 99.6592 39.6582C99.6592 39.9837 99.5534 40.2279 99.3418 40.3906C99.1302 40.5697 98.8942 40.6592 98.6338 40.6592C98.3896 40.6592 98.1618 40.5697 97.9502 40.3906C97.7386 40.2279 97.6328 39.9837 97.6328 39.6582C97.6328 35.3288 97.6328 30.9993 97.6328 26.6699C97.6328 22.3242 97.4945 17.9867 97.2178 13.6572C97.2015 13.4619 97.234 13.2992 97.3154 13.1689C97.3968 13.0225 97.5026 12.9167 97.6328 12.8516C97.763 12.7702 97.9095 12.7214 98.0723 12.7051C98.235 12.6888 98.3896 12.7051 98.5361 12.7539C98.7152 12.7702 98.8861 12.8353 99.0488 12.9492C99.2279 13.0469 99.3581 13.2096 99.4395 13.4375C100.009 15.1139 100.66 16.7497 101.393 18.3447C102.141 19.9235 102.923 21.5023 103.736 23.0811C104.013 23.6344 104.282 24.2204 104.542 24.8389C104.802 25.4411 105.063 26.0514 105.323 26.6699C105.6 27.2721 105.885 27.8743 106.178 28.4766C106.471 29.0625 106.804 29.6077 107.179 30.1123C109.213 27.3454 111.215 24.5947 113.185 21.8604C115.17 19.1097 117.091 16.2939 118.946 13.4131ZM147.887 14.8535C149.27 18.4993 150.873 22.0312 152.696 25.4492C154.535 28.8672 156.627 32.1387 158.971 35.2637C159.166 35.5241 159.215 35.7764 159.117 36.0205C159.036 36.2484 158.881 36.4274 158.653 36.5576C158.442 36.6878 158.198 36.7448 157.921 36.7285C157.644 36.696 157.408 36.5495 157.213 36.2891C156.48 35.3125 155.772 34.3197 155.089 33.3105C154.422 32.3014 153.779 31.2842 153.16 30.2588C153.128 30.2588 153.103 30.2669 153.087 30.2832C153.087 30.2832 153.071 30.2832 153.038 30.2832C150.987 30.5924 148.945 30.8366 146.91 31.0156C144.876 31.1784 142.817 31.333 140.733 31.4795C140.099 32.6676 139.472 33.8639 138.854 35.0684C138.251 36.2565 137.674 37.4609 137.12 38.6816C136.99 38.9746 136.795 39.1455 136.534 39.1943C136.29 39.2269 136.054 39.1781 135.826 39.0479C135.615 38.9176 135.452 38.7305 135.338 38.4863C135.224 38.2259 135.232 37.9492 135.362 37.6562C135.834 36.6309 136.323 35.6217 136.827 34.6289C137.332 33.6198 137.844 32.6188 138.365 31.626C138.121 31.6423 137.877 31.6585 137.633 31.6748C137.389 31.6911 137.153 31.7074 136.925 31.7236C136.599 31.7562 136.355 31.6748 136.192 31.4795C136.03 31.2679 135.948 31.04 135.948 30.7959C135.948 30.5355 136.03 30.2995 136.192 30.0879C136.355 29.86 136.599 29.738 136.925 29.7217C137.348 29.6891 137.771 29.6566 138.194 29.624C138.634 29.5915 139.065 29.5589 139.488 29.5264C140.123 28.3382 140.742 27.1501 141.344 25.9619C141.962 24.7738 142.548 23.5775 143.102 22.373C143.671 21.1523 144.192 19.9235 144.664 18.6865C145.152 17.4333 145.576 16.1556 145.934 14.8535C145.999 14.5931 146.121 14.4059 146.3 14.292C146.479 14.1781 146.674 14.1292 146.886 14.1455C147.097 14.1455 147.293 14.2106 147.472 14.3408C147.667 14.4548 147.805 14.6257 147.887 14.8535ZM141.856 29.3799C143.565 29.266 145.266 29.1357 146.959 28.9893C148.652 28.8428 150.344 28.6475 152.037 28.4033C151.077 26.7269 150.182 25.0423 149.352 23.3496C148.521 21.6406 147.74 19.8991 147.008 18.125C146.324 20.0944 145.535 22.0068 144.64 23.8623C143.761 25.7015 142.833 27.5407 141.856 29.3799ZM193.99 15.3906C194.316 15.3906 194.56 15.4964 194.723 15.708C194.885 15.9196 194.967 16.1556 194.967 16.416C194.967 16.6602 194.885 16.888 194.723 17.0996C194.56 17.3112 194.316 17.417 193.99 17.417H182.711C183.118 19.012 183.492 20.6234 183.834 22.251C184.192 23.8623 184.55 25.4736 184.908 27.085C185.266 28.6963 185.641 30.3076 186.031 31.9189C186.422 33.514 186.853 35.1009 187.325 36.6797C187.423 37.0052 187.39 37.2738 187.228 37.4854C187.065 37.6969 186.861 37.8353 186.617 37.9004C186.373 37.9655 186.129 37.9492 185.885 37.8516C185.641 37.7539 185.47 37.5505 185.372 37.2412C184.884 35.6136 184.444 33.9697 184.054 32.3096C183.663 30.6494 183.281 28.9893 182.906 27.3291C182.548 25.6689 182.182 24.0169 181.808 22.373C181.433 20.7129 181.035 19.0609 180.611 17.417H166.695C166.37 17.417 166.126 17.3112 165.963 17.0996C165.8 16.888 165.719 16.6602 165.719 16.416C165.719 16.1556 165.8 15.9196 165.963 15.708C166.126 15.4964 166.37 15.3906 166.695 15.3906H193.99ZM250.812 18.2471C251.17 19.598 251.503 20.957 251.812 22.3242C252.122 23.6914 252.423 25.0586 252.716 26.4258C253.025 27.793 253.342 29.1602 253.668 30.5273C253.993 31.8783 254.36 33.221 254.767 34.5557C254.864 34.8649 254.832 35.1253 254.669 35.3369C254.522 35.5485 254.327 35.6868 254.083 35.752C253.839 35.8171 253.587 35.8008 253.326 35.7031C253.082 35.6055 252.911 35.402 252.813 35.0928C252.423 33.7581 252.057 32.4154 251.715 31.0645C251.389 29.6973 251.072 28.3301 250.763 26.9629C250.47 25.5957 250.169 24.2285 249.859 22.8613C249.55 21.4941 249.216 20.1351 248.858 18.7842C248.777 18.4749 248.81 18.2145 248.956 18.0029C249.119 17.7913 249.322 17.653 249.566 17.5879C249.811 17.5228 250.055 17.5391 250.299 17.6367C250.559 17.7344 250.73 17.9378 250.812 18.2471ZM211.773 27.6221C212.164 27.4756 212.807 27.3128 213.702 27.1338C214.614 26.9548 215.663 26.7839 216.852 26.6211C218.056 26.4583 219.35 26.32 220.733 26.2061C222.133 26.0921 223.508 26.0352 224.859 26.0352C226.227 26.0189 227.521 26.0758 228.741 26.2061C229.978 26.3363 231.044 26.5641 231.939 26.8896C232.835 27.1989 233.502 27.6302 233.941 28.1836C234.381 28.7207 234.487 29.3962 234.259 30.21C234.096 30.7796 233.746 31.276 233.209 31.6992C232.688 32.1224 232.094 32.4967 231.427 32.8223C230.759 33.1315 230.076 33.3919 229.376 33.6035C228.692 33.8151 228.115 33.986 227.643 34.1162C225.201 34.7998 222.687 35.2881 220.099 35.5811C217.511 35.874 214.955 35.9798 212.433 35.8984C212.058 35.8822 211.79 35.7438 211.627 35.4834C211.48 35.2067 211.432 34.9219 211.48 34.6289C211.09 33.3105 210.732 31.9922 210.406 30.6738C210.097 29.3392 209.796 28.0046 209.503 26.6699C209.21 25.3353 208.909 24.0007 208.6 22.666C208.307 21.3151 207.981 19.9805 207.623 18.6621C207.542 18.3529 207.574 18.0924 207.721 17.8809C207.883 17.653 208.087 17.5065 208.331 17.4414C208.575 17.3763 208.819 17.4007 209.063 17.5146C209.324 17.6123 209.495 17.8158 209.576 18.125C209.999 19.7038 210.382 21.2826 210.724 22.8613C211.065 24.4401 211.415 26.027 211.773 27.6221ZM230.914 30.6494C231.435 30.3402 231.736 30.0716 231.817 29.8438C231.899 29.5996 231.842 29.3962 231.646 29.2334C231.451 29.0544 231.158 28.9079 230.768 28.7939C230.377 28.68 229.962 28.5824 229.522 28.501C227.504 28.1429 225.47 27.9964 223.419 28.0615C222.507 28.0941 221.572 28.1348 220.611 28.1836C219.667 28.2161 218.715 28.2812 217.755 28.3789C216.811 28.4766 215.867 28.623 214.923 28.8184C213.995 28.9974 213.108 29.2497 212.262 29.5752H212.237C212.416 30.3076 212.595 31.0319 212.774 31.748C212.97 32.4642 213.173 33.1885 213.385 33.9209C214.785 33.9535 216.257 33.9372 217.804 33.8721C219.35 33.7907 220.888 33.6361 222.418 33.4082C223.948 33.1641 225.437 32.8223 226.886 32.3828C228.351 31.9434 229.693 31.3656 230.914 30.6494ZM313.048 29.917C313.211 29.9821 313.357 30.0798 313.487 30.21C313.618 30.3402 313.707 30.4867 313.756 30.6494C313.805 30.7959 313.813 30.9587 313.78 31.1377C313.748 31.3005 313.658 31.4551 313.512 31.6016C312.535 32.4967 311.502 33.2536 310.411 33.8721C309.321 34.4906 308.181 35.0114 306.993 35.4346C305.805 35.8577 304.584 36.2158 303.331 36.5088C302.094 36.7855 300.841 37.0296 299.571 37.2412C299.246 37.29 298.977 37.2331 298.766 37.0703C298.554 36.8913 298.416 36.6797 298.351 36.4355C298.285 36.1914 298.302 35.9554 298.399 35.7275C298.497 35.4834 298.709 35.3369 299.034 35.2881C300.076 35.109 301.109 34.9137 302.135 34.7021C303.176 34.4743 304.194 34.2139 305.187 33.9209C306.196 33.6117 307.164 33.2373 308.092 32.7979C309.036 32.3584 309.939 31.8294 310.802 31.2109C308.604 30.4134 306.383 29.7542 304.137 29.2334C301.907 28.7126 299.653 28.2161 297.374 27.7441C297.179 27.6953 297.024 27.6058 296.91 27.4756C296.796 27.3454 296.715 27.1989 296.666 27.0361C296.633 26.8734 296.633 26.7025 296.666 26.5234C296.715 26.3444 296.796 26.1898 296.91 26.0596C297.61 25.2458 298.383 24.5296 299.229 23.9111C300.092 23.2926 300.971 22.7067 301.866 22.1533C302.761 21.5837 303.648 21.014 304.527 20.4443C305.423 19.8747 306.261 19.2318 307.042 18.5156C305.74 18.2064 304.43 18.068 303.111 18.1006C301.809 18.1331 300.499 18.2227 299.181 18.3691C297.862 18.5156 296.536 18.654 295.201 18.7842C293.883 18.9144 292.556 18.9144 291.222 18.7842C290.896 18.7516 290.652 18.6296 290.489 18.418C290.326 18.1901 290.245 17.9541 290.245 17.71C290.245 17.4495 290.326 17.2217 290.489 17.0264C290.652 16.8311 290.896 16.7415 291.222 16.7578C292.231 16.8555 293.24 16.8799 294.249 16.8311C295.258 16.766 296.259 16.6846 297.252 16.5869C298.261 16.473 299.262 16.3672 300.255 16.2695C301.264 16.1556 302.265 16.0986 303.258 16.0986C304.251 16.0824 305.243 16.1475 306.236 16.2939C307.229 16.4242 308.222 16.6846 309.215 17.0752C309.573 17.2054 309.801 17.4414 309.898 17.7832C310.012 18.125 309.931 18.4505 309.654 18.7598C308.954 19.5573 308.189 20.2653 307.359 20.8838C306.529 21.5023 305.675 22.0882 304.796 22.6416C303.917 23.195 303.038 23.7484 302.159 24.3018C301.297 24.8551 300.475 25.4736 299.693 26.1572C301.972 26.6292 304.218 27.1582 306.432 27.7441C308.661 28.3138 310.867 29.0381 313.048 29.917ZM335.445 14.8535C336.829 18.4993 338.432 22.0312 340.255 25.4492C342.094 28.8672 344.186 32.1387 346.529 35.2637C346.725 35.5241 346.773 35.7764 346.676 36.0205C346.594 36.2484 346.44 36.4274 346.212 36.5576C346 36.6878 345.756 36.7448 345.479 36.7285C345.203 36.696 344.967 36.5495 344.771 36.2891C344.039 35.3125 343.331 34.3197 342.647 33.3105C341.98 32.3014 341.337 31.2842 340.719 30.2588C340.686 30.2588 340.662 30.2669 340.646 30.2832C340.646 30.2832 340.629 30.2832 340.597 30.2832C338.546 30.5924 336.503 30.8366 334.469 31.0156C332.434 31.1784 330.375 31.333 328.292 31.4795C327.657 32.6676 327.031 33.8639 326.412 35.0684C325.81 36.2565 325.232 37.4609 324.679 38.6816C324.549 38.9746 324.353 39.1455 324.093 39.1943C323.849 39.2269 323.613 39.1781 323.385 39.0479C323.173 38.9176 323.01 38.7305 322.896 38.4863C322.783 38.2259 322.791 37.9492 322.921 37.6562C323.393 36.6309 323.881 35.6217 324.386 34.6289C324.89 33.6198 325.403 32.6188 325.924 31.626C325.68 31.6423 325.436 31.6585 325.191 31.6748C324.947 31.6911 324.711 31.7074 324.483 31.7236C324.158 31.7562 323.914 31.6748 323.751 31.4795C323.588 31.2679 323.507 31.04 323.507 30.7959C323.507 30.5355 323.588 30.2995 323.751 30.0879C323.914 29.86 324.158 29.738 324.483 29.7217C324.907 29.6891 325.33 29.6566 325.753 29.624C326.192 29.5915 326.624 29.5589 327.047 29.5264C327.682 28.3382 328.3 27.1501 328.902 25.9619C329.521 24.7738 330.107 23.5775 330.66 22.373C331.23 21.1523 331.751 19.9235 332.223 18.6865C332.711 17.4333 333.134 16.1556 333.492 14.8535C333.557 14.5931 333.679 14.4059 333.858 14.292C334.037 14.1781 334.233 14.1292 334.444 14.1455C334.656 14.1455 334.851 14.2106 335.03 14.3408C335.226 14.4548 335.364 14.6257 335.445 14.8535ZM329.415 29.3799C331.124 29.266 332.825 29.1357 334.518 28.9893C336.21 28.8428 337.903 28.6475 339.596 28.4033C338.635 26.7269 337.74 25.0423 336.91 23.3496C336.08 21.6406 335.299 19.8991 334.566 18.125C333.883 20.0944 333.093 22.0068 332.198 23.8623C331.319 25.7015 330.392 27.5407 329.415 29.3799ZM377.838 14.2676C378.375 16.2858 378.871 18.3122 379.327 20.3467C379.799 22.3649 380.263 24.3913 380.719 26.4258C381.174 28.4603 381.646 30.4867 382.135 32.5049C382.623 34.5231 383.16 36.5332 383.746 38.5352C383.844 38.8444 383.811 39.1048 383.648 39.3164C383.486 39.528 383.282 39.6663 383.038 39.7314C382.794 39.7965 382.55 39.7803 382.306 39.6826C382.062 39.585 381.891 39.3815 381.793 39.0723C381.174 36.9564 380.613 34.8486 380.108 32.749C379.604 30.6331 379.107 28.5091 378.619 26.377H361.773C362.245 28.4277 362.717 30.4622 363.189 32.4805C363.678 34.4987 364.223 36.5169 364.825 38.5352C364.923 38.8444 364.89 39.1048 364.728 39.3164C364.565 39.528 364.361 39.6663 364.117 39.7314C363.873 39.7965 363.629 39.7803 363.385 39.6826C363.141 39.585 362.97 39.3815 362.872 39.0723C362.286 37.0703 361.749 35.0602 361.261 33.042C360.772 31.0238 360.3 28.9974 359.845 26.9629C359.389 24.9284 358.933 22.902 358.478 20.8838C358.022 18.8493 357.525 16.8229 356.988 14.8047C356.907 14.4954 356.939 14.235 357.086 14.0234C357.249 13.7956 357.452 13.6491 357.696 13.584C357.94 13.5189 358.185 13.5433 358.429 13.6572C358.689 13.7549 358.86 13.9583 358.941 14.2676C359.381 15.944 359.796 17.6204 360.187 19.2969C360.577 20.9733 360.96 22.6579 361.334 24.3506H378.18C377.822 22.7393 377.455 21.1442 377.081 19.5654C376.723 17.9704 376.332 16.3835 375.909 14.8047C375.828 14.4954 375.86 14.235 376.007 14.0234C376.17 13.7956 376.373 13.6491 376.617 13.584C376.861 13.5189 377.105 13.5433 377.35 13.6572C377.594 13.7549 377.757 13.9583 377.838 14.2676ZM414.566 23.7891C414.729 23.9844 414.811 24.2041 414.811 24.4482C414.827 24.6924 414.745 24.9121 414.566 25.1074C414.599 27.5488 414.607 29.974 414.591 32.3828C414.591 34.7917 414.583 37.2168 414.566 39.6582C414.566 39.9837 414.461 40.2279 414.249 40.3906C414.037 40.5697 413.81 40.6592 413.565 40.6592C413.321 40.6592 413.093 40.5697 412.882 40.3906C412.67 40.2279 412.564 39.9837 412.564 39.6582C412.564 37.4284 412.573 35.223 412.589 33.042C412.605 30.8447 412.597 28.6312 412.564 26.4014C410.921 27.3779 409.236 28.2731 407.511 29.0869C405.802 29.9007 404.068 30.6901 402.311 31.4551C400.569 32.2038 398.819 32.9606 397.062 33.7256C395.304 34.4743 393.57 35.2637 391.861 36.0938C391.568 36.2402 391.292 36.2646 391.031 36.167C390.787 36.0531 390.6 35.8903 390.47 35.6787C390.34 35.4508 390.291 35.2148 390.323 34.9707C390.372 34.7103 390.543 34.5068 390.836 34.3604C392.496 33.5465 394.181 32.7734 395.89 32.041C397.599 31.3086 399.299 30.5762 400.992 29.8438C402.701 29.0951 404.394 28.3301 406.07 27.5488C407.747 26.7513 409.391 25.8887 411.002 24.9609C410.221 24.8796 409.358 24.79 408.414 24.6924C407.486 24.5947 406.55 24.4727 405.606 24.3262C404.679 24.1634 403.792 23.96 402.945 23.7158C402.115 23.4717 401.407 23.1543 400.821 22.7637C400.252 22.3568 399.845 21.8685 399.601 21.2988C399.356 20.7292 399.373 20.0374 399.649 19.2236C399.861 18.5889 400.235 18.0355 400.772 17.5635C401.326 17.0915 401.969 16.6764 402.701 16.3184C403.434 15.9603 404.231 15.651 405.094 15.3906C405.956 15.1302 406.811 14.9105 407.657 14.7314C408.52 14.5361 409.342 14.3734 410.123 14.2432C410.904 14.113 411.588 13.9827 412.174 13.8525C412.158 13.82 412.149 13.7549 412.149 13.6572C412.133 13.3317 412.223 13.0876 412.418 12.9248C412.613 12.762 412.833 12.6807 413.077 12.6807C413.338 12.6807 413.574 12.762 413.785 12.9248C414.013 13.0876 414.143 13.3317 414.176 13.6572C414.29 15.3662 414.371 17.0589 414.42 18.7354C414.485 20.4118 414.534 22.0964 414.566 23.7891ZM402.359 19.126C401.822 19.5166 401.57 19.8747 401.603 20.2002C401.635 20.5094 401.847 20.7943 402.237 21.0547C402.628 21.2988 403.132 21.5104 403.751 21.6895C404.386 21.8685 405.021 22.0231 405.655 22.1533C406.29 22.2673 406.868 22.3568 407.389 22.4219C407.91 22.487 408.268 22.5277 408.463 22.5439C409.146 22.5765 409.822 22.6253 410.489 22.6904C411.173 22.7555 411.848 22.8613 412.516 23.0078C412.483 21.8197 412.451 20.6396 412.418 19.4678C412.385 18.2796 412.337 17.0915 412.271 15.9033C411.458 16.0824 410.603 16.2614 409.708 16.4404C408.829 16.6032 407.958 16.8066 407.096 17.0508C406.233 17.2786 405.395 17.5635 404.581 17.9053C403.767 18.2308 403.027 18.6377 402.359 19.126ZM454.518 15.3906C454.843 15.3906 455.087 15.4964 455.25 15.708C455.413 15.9196 455.494 16.1556 455.494 16.416C455.494 16.6602 455.413 16.888 455.25 17.0996C455.087 17.3112 454.843 17.417 454.518 17.417H443.238C443.645 19.012 444.02 20.6234 444.361 22.251C444.719 23.8623 445.077 25.4736 445.436 27.085C445.794 28.6963 446.168 30.3076 446.559 31.9189C446.949 33.514 447.381 35.1009 447.853 36.6797C447.95 37.0052 447.918 37.2738 447.755 37.4854C447.592 37.6969 447.389 37.8353 447.145 37.9004C446.9 37.9655 446.656 37.9492 446.412 37.8516C446.168 37.7539 445.997 37.5505 445.899 37.2412C445.411 35.6136 444.972 33.9697 444.581 32.3096C444.19 30.6494 443.808 28.9893 443.434 27.3291C443.076 25.6689 442.709 24.0169 442.335 22.373C441.961 20.7129 441.562 19.0609 441.139 17.417H427.223C426.897 17.417 426.653 17.3112 426.49 17.0996C426.327 16.888 426.246 16.6602 426.246 16.416C426.246 16.1556 426.327 15.9196 426.49 15.708C426.653 15.4964 426.897 15.3906 427.223 15.3906H454.518ZM494.298 39.3408C493.435 36.4925 492.67 33.6279 492.003 30.7471C491.352 27.8499 490.66 24.9691 489.928 22.1045C487.6 24.432 485.289 26.7513 482.994 29.0625C480.699 31.3574 478.388 33.6686 476.061 35.9961C475.93 36.1426 475.776 36.2402 475.597 36.2891C475.418 36.3216 475.247 36.3135 475.084 36.2646C474.921 36.2158 474.775 36.1344 474.645 36.0205C474.514 35.8903 474.425 35.7357 474.376 35.5566C473.855 33.8314 473.383 32.0898 472.96 30.332C472.553 28.5742 472.154 26.8164 471.764 25.0586C471.389 23.3008 471.007 21.543 470.616 19.7852C470.242 18.0273 469.827 16.2777 469.371 14.5361C469.29 14.2269 469.322 13.9665 469.469 13.7549C469.632 13.527 469.835 13.3805 470.079 13.3154C470.323 13.2503 470.567 13.2666 470.812 13.3643C471.072 13.4619 471.243 13.6654 471.324 13.9746C471.747 15.5859 472.138 17.2054 472.496 18.833C472.854 20.4443 473.204 22.0638 473.546 23.6914C473.904 25.3027 474.262 26.9222 474.62 28.5498C474.994 30.1611 475.401 31.7643 475.841 33.3594C478.168 31.0156 480.488 28.6882 482.799 26.377C485.11 24.0658 487.429 21.7464 489.757 19.4189C489.887 19.2887 490.042 19.2074 490.221 19.1748C490.4 19.126 490.571 19.126 490.733 19.1748C490.896 19.2074 491.043 19.2887 491.173 19.4189C491.303 19.5329 491.393 19.6794 491.441 19.8584C491.865 21.4372 492.263 23.016 492.638 24.5947C493.012 26.1735 493.386 27.7604 493.761 29.3555C494.151 30.9342 494.542 32.513 494.933 34.0918C495.34 35.6706 495.779 37.2412 496.251 38.8037C496.349 39.1292 496.316 39.3978 496.153 39.6094C495.991 39.821 495.787 39.9593 495.543 40.0244C495.299 40.0895 495.055 40.0732 494.811 39.9756C494.566 39.8779 494.396 39.6663 494.298 39.3408ZM518.331 2.91504C518.006 2.91504 517.753 2.80924 517.574 2.59766C517.411 2.38607 517.33 2.1582 517.33 1.91406C517.33 1.65365 517.411 1.41764 517.574 1.20605C517.753 0.994466 518.006 0.888672 518.331 0.888672H528.951C529.277 0.888672 529.521 0.994466 529.684 1.20605C529.846 1.41764 529.928 1.65365 529.928 1.91406C529.928 2.1582 529.846 2.38607 529.684 2.59766C529.521 2.80924 529.277 2.91504 528.951 2.91504H518.331ZM535.128 39.3408C534.265 36.4925 533.5 33.6279 532.833 30.7471C532.182 27.8499 531.49 24.9691 530.758 22.1045C528.43 24.432 526.119 26.7513 523.824 29.0625C521.529 31.3574 519.218 33.6686 516.891 35.9961C516.76 36.1426 516.606 36.2402 516.427 36.2891C516.248 36.3216 516.077 36.3135 515.914 36.2646C515.751 36.2158 515.605 36.1344 515.475 36.0205C515.344 35.8903 515.255 35.7357 515.206 35.5566C514.685 33.8314 514.213 32.0898 513.79 30.332C513.383 28.5742 512.984 26.8164 512.594 25.0586C512.219 23.3008 511.837 21.543 511.446 19.7852C511.072 18.0273 510.657 16.2777 510.201 14.5361C510.12 14.2269 510.152 13.9665 510.299 13.7549C510.462 13.527 510.665 13.3805 510.909 13.3154C511.153 13.2503 511.397 13.2666 511.642 13.3643C511.902 13.4619 512.073 13.6654 512.154 13.9746C512.577 15.5859 512.968 17.2054 513.326 18.833C513.684 20.4443 514.034 22.0638 514.376 23.6914C514.734 25.3027 515.092 26.9222 515.45 28.5498C515.825 30.1611 516.231 31.7643 516.671 33.3594C518.998 31.0156 521.318 28.6882 523.629 26.377C525.94 24.0658 528.259 21.7464 530.587 19.4189C530.717 19.2887 530.872 19.2074 531.051 19.1748C531.23 19.126 531.401 19.126 531.563 19.1748C531.726 19.2074 531.873 19.2887 532.003 19.4189C532.133 19.5329 532.223 19.6794 532.271 19.8584C532.695 21.4372 533.093 23.016 533.468 24.5947C533.842 26.1735 534.216 27.7604 534.591 29.3555C534.981 30.9342 535.372 32.513 535.763 34.0918C536.17 35.6706 536.609 37.2412 537.081 38.8037C537.179 39.1292 537.146 39.3978 536.983 39.6094C536.821 39.821 536.617 39.9593 536.373 40.0244C536.129 40.0895 535.885 40.0732 535.641 39.9756C535.396 39.8779 535.226 39.6663 535.128 39.3408Z" fill="#40BA4C"/>
</svg>
