<svg width="184" height="50" viewBox="0 0 184 50" fill="none" xmlns="http://www.w3.org/2000/svg">
<path d="M151.451 12.2428C149.569 8.30606 143.298 5.98152 137.533 4.63223C128.755 2.58198 119.161 1.92685 109.869 1.63199C86.7624 0.899484 63.0346 2.67064 40.7183 6.4602C31.3322 8.05178 21.8891 10.0658 13.4499 13.1456C8.02436 15.1277 1.9064 17.9711 0.345305 22.0235C-1.43473 26.6547 3.98546 31.12 9.31133 33.8957C17.1257 37.9661 27.4428 40.0595 37.1368 41.5787C62.0164 45.4748 88.3698 45.9622 113.89 45.5472C124.133 45.3795 134.396 45.028 144.574 44.2776C148.713 43.9692 152.734 43.5629 156.755 42.8602C164.023 41.5901 171.665 39.9141 177.617 36.9073C181.163 35.1135 183.862 32.671 183.995 29.7388C184.121 26.9107 181.791 24.2302 179.038 22.0987C171.277 16.089 159.313 12.2497 148.09 9.42153C138.168 6.92055 127.689 5.23112 117.023 4.66846C108.24 4.20599 99.39 4.16753 90.586 4.26492C79.0852 4.39641 67.579 4.84982 56.169 5.75263C45.2591 6.61875 34.2763 7.87277 23.9058 10.2156C16.371 11.9165 8.08134 14.3611 3.62947 18.7604C-0.772558 23.1125 0.964736 28.4146 5.00542 32.5985C10.3224 38.1115 20.2336 41.4153 29.4987 43.6603C41.7703 46.6358 54.9657 48.119 67.992 49.0284C81.9101 49.999 95.9795 50.2143 109.965 49.7994C121.466 49.4569 133.111 48.7628 144.298 46.983C149.639 46.1326 154.617 44.8375 159.388 43.0934C164.005 41.4066 168.528 39.2113 171.218 36.2518C175.892 31.1038 172.297 25.3777 166.747 21.1553C159.26 15.4609 148.77 11.4015 138.369 8.13833C127.356 4.67987 115.498 1.91108 103.327 0.61603C98.5623 0.110286 93.8042 -0.0936663 88.9804 0.0399534C87.5777 0.0784181 88.7098 1.72726 89.9879 1.69315C94.988 1.55249 100.136 2.14433 104.995 2.80919C111.044 3.63897 116.975 4.75232 122.783 6.09725C134.496 8.80487 145.906 12.3109 155.842 17.0958C162.46 20.2843 170.59 25.0216 170.342 30.7364C170.223 33.4305 167.795 35.8525 164.817 37.694C160.435 40.4042 154.509 42.5064 148.752 43.801C138.935 46.0098 128.211 46.79 117.881 47.3433C104.171 48.0806 90.3421 48.078 76.6216 47.4705C63.0844 46.8672 49.4618 45.6586 36.4497 43.1751C26.5456 41.286 15.9758 38.5626 9.1173 33.483C4.48031 30.0494 2.06481 24.9085 5.72278 20.7788C9.6531 16.3428 18.0442 13.9235 25.2925 12.2655C35.6434 9.90032 46.6547 8.67337 57.5503 7.8002C68.9389 6.88644 80.4273 6.44667 91.9032 6.32389C100.62 6.22874 109.381 6.28331 118.075 6.74801C128.928 7.33069 139.512 9.14725 149.564 11.7552C155.673 13.3403 161.583 15.2499 167.062 17.5788C171.439 19.4409 175.707 21.6335 178.662 24.4206C180.848 26.4801 181.838 28.8771 180.398 31.2515C178.473 34.4264 172.998 36.4378 168.414 37.8503C158.514 40.9052 147.935 42.0255 137.1 42.6535C125.948 43.3001 114.737 43.5678 103.539 43.6014C90.3528 43.6424 77.1431 43.3205 64.0243 42.461C51.8684 41.6648 39.6289 40.4356 28.0088 37.9957C19.7797 36.2653 10.5894 33.7594 5.5145 29.1038C1.80135 25.6978 2.1538 22.4114 6.42944 19.3138C11.5969 15.5697 19.5786 13.2997 26.7539 11.5125C36.9339 8.97516 47.6479 7.28305 58.3887 5.99504C70.0604 4.59388 81.919 3.72283 93.7936 3.38739C104.429 3.0856 115.211 3.22414 125.733 4.31468C131.242 4.88382 136.797 5.74346 141.821 7.31056C145.281 8.38768 148.711 9.99336 150.021 12.3698C150.381 13.0141 151.83 13.0342 151.451 12.2428Z" fill="#40BA4C"/>
</svg>
