<svg width="584" height="460" viewBox="0 0 584 460" fill="none" xmlns="http://www.w3.org/2000/svg">
<path d="M7.99963 7.66105C126.561 7.66105 245.123 7.59422 363.684 7.66105C424.787 7.69549 485.765 9.92001 546.839 9.92001C553.084 9.92001 534.349 9.9 528.105 9.92001C457.057 10.1476 386.14 13.2912 315.197 15.8602C247.833 18.2996 180.567 18.9558 113.139 18.9558C92.1714 18.9558 71.2128 19.1815 50.2791 18.2029" stroke="#40BA4C" stroke-linecap="round"/>
<path d="M556.016 9.90719C556.016 113.244 557.407 216.629 554.516 319.948C553.526 355.353 552.883 390.724 553.017 426.137C553.057 436.639 553.056 446.902 557.792 456.905C560.579 462.791 557.438 444.449 556.904 438.233C553.872 402.922 553.432 367.496 553.462 332.126C553.508 277.261 555.121 222.379 559.625 167.607C563.442 121.18 569.563 75.1461 578.78 29.1478C580.365 21.2366 583 12.832 583 4.7926" stroke="#40BA4C" stroke-linecap="round"/>
<path d="M541.727 458.956C407.804 458.956 273.882 458.956 139.96 458.956C110.957 458.956 81.9404 459.129 52.9398 458.789C41.9769 458.66 27.8236 459.831 17.0358 457.45C9.82743 455.859 23.6258 455.171 24.1942 455.107C73.1402 449.655 122.556 447.446 172.005 447.034C242.145 446.449 312.487 446.072 382.507 449.544C432.373 452.016 482.649 456.697 532.667 456.697" stroke="#40BA4C" stroke-linecap="round"/>
<path d="M5.17968 1.14038C5.17968 84.0944 5.17968 167.048 5.17968 250.002C5.17968 287.013 5.46919 324.101 6.24226 361.11C6.67933 382.033 8.19964 402.866 8.19964 423.817C8.19964 428.711 8.19964 433.606 8.19964 438.5C8.19964 443.245 8.36618 441.177 7.97594 437.622C5.42132 414.344 2.3089 391.325 1.20898 367.928" stroke="#40BA4C" stroke-linecap="round"/>
</svg>
