<svg width="539" height="23" viewBox="0 0 539 23" fill="none" xmlns="http://www.w3.org/2000/svg">
<path d="M0.835938 21.7266C0.835938 18.263 0.835938 14.7995 0.835938 11.3359C0.835938 7.85938 0.72526 4.38932 0.503906 0.925781C0.490885 0.665365 0.5625 0.470052 0.71875 0.339844C0.875 0.209635 1.05078 0.144531 1.24609 0.144531C1.45443 0.144531 1.64323 0.209635 1.8125 0.339844C1.99479 0.470052 2.09896 0.665365 2.125 0.925781C2.22917 2.42318 2.30078 3.91406 2.33984 5.39844C2.37891 6.86979 2.41146 8.35417 2.4375 9.85156C4.29948 8.54948 6.15495 7.25391 8.00391 5.96484C9.85286 4.67578 11.7539 3.45833 13.707 2.3125C13.9284 2.18229 14.1367 2.15625 14.332 2.23438C14.5404 2.3125 14.6901 2.44271 14.7812 2.625C14.8854 2.79427 14.9245 2.98307 14.8984 3.19141C14.8724 3.39974 14.7487 3.56901 14.5273 3.69922C12.5872 4.84505 10.6992 6.05599 8.86328 7.33203C7.02734 8.59505 5.19141 9.8776 3.35547 11.1797C4.70964 11.9479 6.05729 12.7357 7.39844 13.543C8.73958 14.3503 10.0807 15.1576 11.4219 15.9648C12.776 16.7591 14.1302 17.5469 15.4844 18.3281C16.8385 19.0964 18.2122 19.8385 19.6055 20.5547C19.8398 20.6719 19.9701 20.8346 19.9961 21.043C20.0352 21.2383 20.0026 21.4271 19.8984 21.6094C19.7943 21.7786 19.6445 21.9089 19.4492 22C19.2539 22.0781 19.0391 22.0586 18.8047 21.9414C17.3984 21.2253 16.0117 20.4831 14.6445 19.7148C13.2773 18.9336 11.9167 18.1393 10.5625 17.332C9.22135 16.5247 7.8737 15.7174 6.51953 14.9102C5.17839 14.1029 3.82422 13.3086 2.45703 12.5273C2.47005 14.0638 2.47005 15.6003 2.45703 17.1367C2.45703 18.6602 2.45703 20.1901 2.45703 21.7266C2.45703 21.987 2.3724 22.1823 2.20312 22.3125C2.03385 22.4557 1.84505 22.5273 1.63672 22.5273C1.44141 22.5273 1.25911 22.4557 1.08984 22.3125C0.920573 22.1823 0.835938 21.987 0.835938 21.7266ZM37.3281 1.88281C38.4349 4.79948 39.7174 7.625 41.1758 10.3594C42.6471 13.0938 44.3203 15.7109 46.1953 18.2109C46.3516 18.4193 46.3906 18.6211 46.3125 18.8164C46.2474 18.9987 46.1237 19.1419 45.9414 19.2461C45.7721 19.3503 45.5768 19.3958 45.3555 19.3828C45.1341 19.3568 44.9453 19.2396 44.7891 19.0312C44.2031 18.25 43.6367 17.4557 43.0898 16.6484C42.556 15.8411 42.0417 15.0273 41.5469 14.207C41.5208 14.207 41.5013 14.2135 41.4883 14.2266C41.4883 14.2266 41.4753 14.2266 41.4492 14.2266C39.8086 14.474 38.1745 14.6693 36.5469 14.8125C34.9193 14.9427 33.2721 15.0664 31.6055 15.1836C31.0977 16.1341 30.5964 17.0911 30.1016 18.0547C29.6198 19.0052 29.1576 19.9688 28.7148 20.9453C28.6107 21.1797 28.4544 21.3164 28.2461 21.3555C28.0508 21.3815 27.862 21.3424 27.6797 21.2383C27.5104 21.1341 27.3802 20.9844 27.2891 20.7891C27.1979 20.5807 27.2044 20.3594 27.3086 20.125C27.6862 19.3047 28.0768 18.4974 28.4805 17.7031C28.8841 16.8958 29.2943 16.0951 29.7109 15.3008C29.5156 15.3138 29.3203 15.3268 29.125 15.3398C28.9297 15.3529 28.7409 15.3659 28.5586 15.3789C28.2982 15.4049 28.1029 15.3398 27.9727 15.1836C27.8424 15.0143 27.7773 14.832 27.7773 14.6367C27.7773 14.4284 27.8424 14.2396 27.9727 14.0703C28.1029 13.888 28.2982 13.7904 28.5586 13.7773C28.8971 13.7513 29.2357 13.7253 29.5742 13.6992C29.9258 13.6732 30.2708 13.6471 30.6094 13.6211C31.1172 12.6706 31.612 11.7201 32.0938 10.7695C32.5885 9.81901 33.0573 8.86198 33.5 7.89844C33.9557 6.92188 34.3724 5.9388 34.75 4.94922C35.1406 3.94661 35.4792 2.92448 35.7656 1.88281C35.8177 1.67448 35.9154 1.52474 36.0586 1.43359C36.2018 1.34245 36.3581 1.30339 36.5273 1.31641C36.6966 1.31641 36.8529 1.36849 36.9961 1.47266C37.1523 1.5638 37.263 1.70052 37.3281 1.88281ZM32.5039 13.5039C33.8711 13.4128 35.2318 13.3086 36.5859 13.1914C37.9401 13.0742 39.2943 12.918 40.6484 12.7227C39.8802 11.3815 39.1641 10.0339 38.5 8.67969C37.8359 7.3125 37.2109 5.91927 36.625 4.5C36.0781 6.07552 35.4466 7.60547 34.7305 9.08984C34.0273 10.5612 33.2852 12.0326 32.5039 13.5039ZM57.8047 21.7266C57.8047 18.263 57.8047 14.7995 57.8047 11.3359C57.8047 7.85938 57.694 4.38932 57.4727 0.925781C57.4596 0.665365 57.5312 0.470052 57.6875 0.339844C57.8438 0.209635 58.0195 0.144531 58.2148 0.144531C58.4232 0.144531 58.612 0.209635 58.7812 0.339844C58.9635 0.470052 59.0677 0.665365 59.0938 0.925781C59.1979 2.42318 59.2695 3.91406 59.3086 5.39844C59.3477 6.86979 59.3802 8.35417 59.4062 9.85156C61.2682 8.54948 63.1237 7.25391 64.9727 5.96484C66.8216 4.67578 68.7227 3.45833 70.6758 2.3125C70.8971 2.18229 71.1055 2.15625 71.3008 2.23438C71.5091 2.3125 71.6589 2.44271 71.75 2.625C71.8542 2.79427 71.8932 2.98307 71.8672 3.19141C71.8411 3.39974 71.7174 3.56901 71.4961 3.69922C69.556 4.84505 67.668 6.05599 65.832 7.33203C63.9961 8.59505 62.1602 9.8776 60.3242 11.1797C61.6784 11.9479 63.026 12.7357 64.3672 13.543C65.7083 14.3503 67.0495 15.1576 68.3906 15.9648C69.7448 16.7591 71.099 17.5469 72.4531 18.3281C73.8073 19.0964 75.181 19.8385 76.5742 20.5547C76.8086 20.6719 76.9388 20.8346 76.9648 21.043C77.0039 21.2383 76.9714 21.4271 76.8672 21.6094C76.763 21.7786 76.6133 21.9089 76.418 22C76.2227 22.0781 76.0078 22.0586 75.7734 21.9414C74.3672 21.2253 72.9805 20.4831 71.6133 19.7148C70.2461 18.9336 68.8854 18.1393 67.5312 17.332C66.1901 16.5247 64.8424 15.7174 63.4883 14.9102C62.1471 14.1029 60.793 13.3086 59.4258 12.5273C59.4388 14.0638 59.4388 15.6003 59.4258 17.1367C59.4258 18.6602 59.4258 20.1901 59.4258 21.7266C59.4258 21.987 59.3411 22.1823 59.1719 22.3125C59.0026 22.4557 58.8138 22.5273 58.6055 22.5273C58.4102 22.5273 58.2279 22.4557 58.0586 22.3125C57.8893 22.1823 57.8047 21.987 57.8047 21.7266ZM124 1.41406C124.43 3.02865 124.827 4.64974 125.191 6.27734C125.569 7.89193 125.94 9.51302 126.305 11.1406C126.669 12.7682 127.047 14.3893 127.438 16.0039C127.828 17.6185 128.258 19.2266 128.727 20.8281C128.805 21.0755 128.779 21.2839 128.648 21.4531C128.518 21.6224 128.355 21.7331 128.16 21.7852C127.965 21.8372 127.77 21.8242 127.574 21.7461C127.379 21.668 127.242 21.5052 127.164 21.2578C126.669 19.5651 126.22 17.8789 125.816 16.1992C125.413 14.5065 125.016 12.8073 124.625 11.1016H111.148C111.526 12.7422 111.904 14.3698 112.281 15.9844C112.672 17.599 113.108 19.2135 113.59 20.8281C113.668 21.0755 113.642 21.2839 113.512 21.4531C113.382 21.6224 113.219 21.7331 113.023 21.7852C112.828 21.8372 112.633 21.8242 112.438 21.7461C112.242 21.668 112.105 21.5052 112.027 21.2578C111.559 19.6562 111.129 18.0482 110.738 16.4336C110.348 14.819 109.97 13.1979 109.605 11.5703C109.241 9.94271 108.876 8.32161 108.512 6.70703C108.147 5.07943 107.75 3.45833 107.32 1.84375C107.255 1.59635 107.281 1.38802 107.398 1.21875C107.529 1.03646 107.691 0.919271 107.887 0.867188C108.082 0.815104 108.277 0.834635 108.473 0.925781C108.681 1.00391 108.818 1.16667 108.883 1.41406C109.234 2.75521 109.566 4.09635 109.879 5.4375C110.191 6.77865 110.497 8.1263 110.797 9.48047H124.273C123.987 8.19141 123.694 6.91536 123.395 5.65234C123.108 4.3763 122.796 3.10677 122.457 1.84375C122.392 1.59635 122.418 1.38802 122.535 1.21875C122.665 1.03646 122.828 0.919271 123.023 0.867188C123.219 0.815104 123.414 0.834635 123.609 0.925781C123.805 1.00391 123.935 1.16667 124 1.41406ZM146.039 1.88281C147.146 4.79948 148.428 7.625 149.887 10.3594C151.358 13.0938 153.031 15.7109 154.906 18.2109C155.062 18.4193 155.102 18.6211 155.023 18.8164C154.958 18.9987 154.835 19.1419 154.652 19.2461C154.483 19.3503 154.288 19.3958 154.066 19.3828C153.845 19.3568 153.656 19.2396 153.5 19.0312C152.914 18.25 152.348 17.4557 151.801 16.6484C151.267 15.8411 150.753 15.0273 150.258 14.207C150.232 14.207 150.212 14.2135 150.199 14.2266C150.199 14.2266 150.186 14.2266 150.16 14.2266C148.52 14.474 146.885 14.6693 145.258 14.8125C143.63 14.9427 141.983 15.0664 140.316 15.1836C139.809 16.1341 139.307 17.0911 138.812 18.0547C138.331 19.0052 137.868 19.9688 137.426 20.9453C137.322 21.1797 137.165 21.3164 136.957 21.3555C136.762 21.3815 136.573 21.3424 136.391 21.2383C136.221 21.1341 136.091 20.9844 136 20.7891C135.909 20.5807 135.915 20.3594 136.02 20.125C136.397 19.3047 136.788 18.4974 137.191 17.7031C137.595 16.8958 138.005 16.0951 138.422 15.3008C138.227 15.3138 138.031 15.3268 137.836 15.3398C137.641 15.3529 137.452 15.3659 137.27 15.3789C137.009 15.4049 136.814 15.3398 136.684 15.1836C136.553 15.0143 136.488 14.832 136.488 14.6367C136.488 14.4284 136.553 14.2396 136.684 14.0703C136.814 13.888 137.009 13.7904 137.27 13.7773C137.608 13.7513 137.947 13.7253 138.285 13.6992C138.637 13.6732 138.982 13.6471 139.32 13.6211C139.828 12.6706 140.323 11.7201 140.805 10.7695C141.299 9.81901 141.768 8.86198 142.211 7.89844C142.667 6.92188 143.083 5.9388 143.461 4.94922C143.852 3.94661 144.19 2.92448 144.477 1.88281C144.529 1.67448 144.626 1.52474 144.77 1.43359C144.913 1.34245 145.069 1.30339 145.238 1.31641C145.408 1.31641 145.564 1.36849 145.707 1.47266C145.863 1.5638 145.974 1.70052 146.039 1.88281ZM141.215 13.5039C142.582 13.4128 143.943 13.3086 145.297 13.1914C146.651 13.0742 148.005 12.918 149.359 12.7227C148.591 11.3815 147.875 10.0339 147.211 8.67969C146.547 7.3125 145.922 5.91927 145.336 4.5C144.789 6.07552 144.158 7.60547 143.441 9.08984C142.738 10.5612 141.996 12.0326 141.215 13.5039ZM175.793 2.60547C175.949 2.64453 176.079 2.72917 176.184 2.85938C176.301 2.97656 176.372 3.13281 176.398 3.32812C176.516 4.72135 176.6 6.11458 176.652 7.50781C176.717 8.90104 176.757 10.2943 176.77 11.6875C176.783 13.0807 176.783 14.474 176.77 15.8672C176.757 17.2604 176.75 18.6536 176.75 20.0469C176.75 20.3073 176.665 20.5026 176.496 20.6328C176.327 20.763 176.138 20.8281 175.93 20.8281C175.734 20.8281 175.552 20.763 175.383 20.6328C175.214 20.5026 175.129 20.3073 175.129 20.0469C175.142 17.9115 175.148 15.7956 175.148 13.6992C175.161 11.5898 175.122 9.47396 175.031 7.35156C174.615 8.10677 174.12 8.81641 173.547 9.48047C172.987 10.1445 172.362 10.7109 171.672 11.1797C170.995 11.6354 170.259 11.9609 169.465 12.1562C168.684 12.3385 167.863 12.332 167.004 12.1367C166.288 11.9674 165.656 11.707 165.109 11.3555C164.576 10.9909 164.107 10.5612 163.703 10.0664C163.312 9.57161 162.98 9.02474 162.707 8.42578C162.434 7.82682 162.199 7.20182 162.004 6.55078C161.822 5.89974 161.672 5.24219 161.555 4.57812C161.451 3.90104 161.366 3.24349 161.301 2.60547C161.275 2.34505 161.333 2.15625 161.477 2.03906C161.633 1.90885 161.815 1.84375 162.023 1.84375C162.232 1.84375 162.427 1.90885 162.609 2.03906C162.792 2.16927 162.896 2.35807 162.922 2.60547C162.961 3.02214 163.013 3.49089 163.078 4.01172C163.156 4.53255 163.254 5.06641 163.371 5.61328C163.501 6.14714 163.658 6.67448 163.84 7.19531C164.022 7.71615 164.25 8.19792 164.523 8.64062C164.797 9.08333 165.122 9.46745 165.5 9.79297C165.878 10.1055 166.32 10.3203 166.828 10.4375C167.544 10.6068 168.221 10.6328 168.859 10.5156C169.497 10.3984 170.096 10.1771 170.656 9.85156C171.216 9.52604 171.724 9.11589 172.18 8.62109C172.635 8.1263 173.039 7.58594 173.391 7C173.742 6.41406 174.035 5.80208 174.27 5.16406C174.504 4.52604 174.673 3.90104 174.777 3.28906C174.777 3.09375 174.816 2.94401 174.895 2.83984C174.999 2.68359 175.129 2.59245 175.285 2.56641C175.454 2.52734 175.624 2.54036 175.793 2.60547ZM197.969 1.88281C199.076 4.79948 200.358 7.625 201.816 10.3594C203.288 13.0938 204.961 15.7109 206.836 18.2109C206.992 18.4193 207.031 18.6211 206.953 18.8164C206.888 18.9987 206.764 19.1419 206.582 19.2461C206.413 19.3503 206.217 19.3958 205.996 19.3828C205.775 19.3568 205.586 19.2396 205.43 19.0312C204.844 18.25 204.277 17.4557 203.73 16.6484C203.197 15.8411 202.682 15.0273 202.188 14.207C202.161 14.207 202.142 14.2135 202.129 14.2266C202.129 14.2266 202.116 14.2266 202.09 14.2266C200.449 14.474 198.815 14.6693 197.188 14.8125C195.56 14.9427 193.913 15.0664 192.246 15.1836C191.738 16.1341 191.237 17.0911 190.742 18.0547C190.26 19.0052 189.798 19.9688 189.355 20.9453C189.251 21.1797 189.095 21.3164 188.887 21.3555C188.691 21.3815 188.503 21.3424 188.32 21.2383C188.151 21.1341 188.021 20.9844 187.93 20.7891C187.839 20.5807 187.845 20.3594 187.949 20.125C188.327 19.3047 188.717 18.4974 189.121 17.7031C189.525 16.8958 189.935 16.0951 190.352 15.3008C190.156 15.3138 189.961 15.3268 189.766 15.3398C189.57 15.3529 189.382 15.3659 189.199 15.3789C188.939 15.4049 188.743 15.3398 188.613 15.1836C188.483 15.0143 188.418 14.832 188.418 14.6367C188.418 14.4284 188.483 14.2396 188.613 14.0703C188.743 13.888 188.939 13.7904 189.199 13.7773C189.538 13.7513 189.876 13.7253 190.215 13.6992C190.566 13.6732 190.911 13.6471 191.25 13.6211C191.758 12.6706 192.253 11.7201 192.734 10.7695C193.229 9.81901 193.698 8.86198 194.141 7.89844C194.596 6.92188 195.013 5.9388 195.391 4.94922C195.781 3.94661 196.12 2.92448 196.406 1.88281C196.458 1.67448 196.556 1.52474 196.699 1.43359C196.842 1.34245 196.999 1.30339 197.168 1.31641C197.337 1.31641 197.493 1.36849 197.637 1.47266C197.793 1.5638 197.904 1.70052 197.969 1.88281ZM193.145 13.5039C194.512 13.4128 195.872 13.3086 197.227 13.1914C198.581 13.0742 199.935 12.918 201.289 12.7227C200.521 11.3815 199.805 10.0339 199.141 8.67969C198.477 7.3125 197.852 5.91927 197.266 4.5C196.719 6.07552 196.087 7.60547 195.371 9.08984C194.668 10.5612 193.926 12.0326 193.145 13.5039ZM234.852 2.3125C235.112 2.3125 235.307 2.39714 235.438 2.56641C235.568 2.73568 235.633 2.92448 235.633 3.13281C235.633 3.32812 235.568 3.51042 235.438 3.67969C235.307 3.84896 235.112 3.93359 234.852 3.93359H225.828C226.154 5.20964 226.453 6.4987 226.727 7.80078C227.013 9.08984 227.299 10.3789 227.586 11.668C227.872 12.957 228.172 14.2461 228.484 15.5352C228.797 16.8112 229.142 18.0807 229.52 19.3438C229.598 19.6042 229.572 19.819 229.441 19.9883C229.311 20.1576 229.148 20.2682 228.953 20.3203C228.758 20.3724 228.562 20.3594 228.367 20.2812C228.172 20.2031 228.035 20.0404 227.957 19.793C227.566 18.4909 227.215 17.1758 226.902 15.8477C226.59 14.5195 226.284 13.1914 225.984 11.8633C225.698 10.5352 225.405 9.21354 225.105 7.89844C224.806 6.57031 224.487 5.2487 224.148 3.93359H213.016C212.755 3.93359 212.56 3.84896 212.43 3.67969C212.299 3.51042 212.234 3.32812 212.234 3.13281C212.234 2.92448 212.299 2.73568 212.43 2.56641C212.56 2.39714 212.755 2.3125 213.016 2.3125H234.852ZM249.078 12.0977C249.391 11.9805 249.905 11.8503 250.621 11.707C251.35 11.5638 252.19 11.4271 253.141 11.2969C254.104 11.1667 255.139 11.056 256.246 10.9648C257.366 10.8737 258.466 10.8281 259.547 10.8281C260.641 10.8151 261.676 10.8607 262.652 10.9648C263.642 11.069 264.495 11.2513 265.211 11.5117C265.927 11.7591 266.461 12.1042 266.812 12.5469C267.164 12.9766 267.249 13.5169 267.066 14.168C266.936 14.6237 266.656 15.0208 266.227 15.3594C265.81 15.6979 265.335 15.9974 264.801 16.2578C264.267 16.5052 263.72 16.7135 263.16 16.8828C262.613 17.0521 262.151 17.1888 261.773 17.293C259.82 17.8398 257.809 18.2305 255.738 18.4648C253.668 18.6992 251.624 18.7839 249.605 18.7188C249.306 18.7057 249.091 18.5951 248.961 18.3867C248.844 18.1654 248.805 17.9375 248.844 17.7031C248.531 16.6484 248.245 15.5938 247.984 14.5391C247.737 13.4714 247.496 12.4036 247.262 11.3359C247.027 10.2682 246.786 9.20052 246.539 8.13281C246.305 7.05208 246.044 5.98438 245.758 4.92969C245.693 4.68229 245.719 4.47396 245.836 4.30469C245.966 4.1224 246.129 4.00521 246.324 3.95312C246.52 3.90104 246.715 3.92057 246.91 4.01172C247.118 4.08984 247.255 4.2526 247.32 4.5C247.659 5.76302 247.965 7.02604 248.238 8.28906C248.512 9.55208 248.792 10.8216 249.078 12.0977ZM264.391 14.5195C264.807 14.2721 265.048 14.0573 265.113 13.875C265.178 13.6797 265.133 13.5169 264.977 13.3867C264.82 13.2435 264.586 13.1263 264.273 13.0352C263.961 12.944 263.629 12.8659 263.277 12.8008C261.663 12.5143 260.035 12.3971 258.395 12.4492C257.665 12.4753 256.917 12.5078 256.148 12.5469C255.393 12.5729 254.632 12.625 253.863 12.7031C253.108 12.7812 252.353 12.8984 251.598 13.0547C250.855 13.1979 250.146 13.3997 249.469 13.6602H249.449C249.592 14.2461 249.736 14.8255 249.879 15.3984C250.035 15.9714 250.198 16.5508 250.367 17.1367C251.487 17.1628 252.665 17.1497 253.902 17.0977C255.139 17.0326 256.37 16.9089 257.594 16.7266C258.818 16.5312 260.009 16.2578 261.168 15.9062C262.34 15.5547 263.414 15.0924 264.391 14.5195ZM310.371 11.4531C310.293 12.3385 310.065 13.1979 309.688 14.0312C309.323 14.8516 308.835 15.5807 308.223 16.2188C307.624 16.8568 306.914 17.3581 306.094 17.7227C305.286 18.0742 304.401 18.224 303.438 18.1719C302.539 18.1198 301.66 17.918 300.801 17.5664C299.941 17.2018 299.18 16.7135 298.516 16.1016C297.865 15.4766 297.344 14.7539 296.953 13.9336C296.576 13.1003 296.413 12.1888 296.465 11.1992C296.53 10.0924 296.764 9.1224 297.168 8.28906C297.585 7.44271 298.112 6.73958 298.75 6.17969C299.388 5.61979 300.104 5.20312 300.898 4.92969C301.693 4.64323 302.507 4.49349 303.34 4.48047C304.173 4.46745 304.987 4.59766 305.781 4.87109C306.589 5.13151 307.318 5.53516 307.969 6.08203C308.62 6.61589 309.16 7.29297 309.59 8.11328C310.02 8.92057 310.28 9.87109 310.371 10.9648C310.397 11.069 310.41 11.1471 310.41 11.1992C310.41 11.2643 310.397 11.349 310.371 11.4531ZM298.086 11.1992C298.151 12.3451 298.451 13.3021 298.984 14.0703C299.518 14.8385 300.169 15.418 300.938 15.8086C301.719 16.1862 302.552 16.375 303.438 16.375C304.323 16.375 305.15 16.1862 305.918 15.8086C306.699 15.418 307.357 14.8385 307.891 14.0703C308.424 13.3021 308.724 12.3451 308.789 11.1992C308.75 10.5091 308.587 9.83854 308.301 9.1875C308.027 8.52344 307.656 7.9375 307.188 7.42969C306.719 6.92188 306.165 6.52474 305.527 6.23828C304.889 5.95182 304.193 5.82812 303.438 5.86719C302.734 5.90625 302.051 6.0625 301.387 6.33594C300.736 6.60938 300.156 6.98047 299.648 7.44922C299.154 7.91797 298.757 8.47135 298.457 9.10938C298.171 9.7474 298.047 10.444 298.086 11.1992ZM339.461 0.828125C339.721 0.828125 339.917 0.91276 340.047 1.08203C340.177 1.2513 340.242 1.4401 340.242 1.64844C340.242 1.84375 340.177 2.02604 340.047 2.19531C339.917 2.36458 339.721 2.44922 339.461 2.44922H322.801C323.022 3.26953 323.224 4.08333 323.406 4.89062C323.602 5.6849 323.79 6.49219 323.973 7.3125C324.637 7.41667 325.288 7.53385 325.926 7.66406C326.577 7.78125 327.228 7.92448 327.879 8.09375C328.309 8.19792 328.816 8.32812 329.402 8.48438C329.988 8.64062 330.561 8.84896 331.121 9.10938C331.694 9.35677 332.202 9.66276 332.645 10.0273C333.087 10.3789 333.38 10.8151 333.523 11.3359C333.654 11.8438 333.641 12.2995 333.484 12.7031C333.328 13.0938 333.061 13.4388 332.684 13.7383C332.319 14.0378 331.87 14.2982 331.336 14.5195C330.802 14.7409 330.229 14.9297 329.617 15.0859C329.018 15.2422 328.393 15.3724 327.742 15.4766C327.104 15.5807 326.492 15.6589 325.906 15.7109C326.115 16.5703 326.329 17.4232 326.551 18.2695C326.772 19.1159 327.013 19.9688 327.273 20.8281C327.352 21.0885 327.326 21.3034 327.195 21.4727C327.065 21.6419 326.902 21.7526 326.707 21.8047C326.512 21.8568 326.316 21.8438 326.121 21.7656C325.926 21.6875 325.789 21.5247 325.711 21.2773C325.451 20.3659 325.197 19.4609 324.949 18.5625C324.715 17.651 324.487 16.7396 324.266 15.8281C324.031 15.8411 323.816 15.8477 323.621 15.8477C323.426 15.8477 323.257 15.8542 323.113 15.8672C322.853 15.8672 322.658 15.7891 322.527 15.6328C322.397 15.4635 322.332 15.2812 322.332 15.0859C322.332 14.8776 322.397 14.6888 322.527 14.5195C322.658 14.3372 322.853 14.2461 323.113 14.2461C323.243 14.2461 323.367 14.2461 323.484 14.2461C323.615 14.2331 323.745 14.2201 323.875 14.207C323.654 13.2956 323.445 12.3841 323.25 11.4727C323.055 10.5612 322.853 9.64974 322.645 8.73828C322.228 8.6862 321.811 8.64062 321.395 8.60156C320.978 8.54948 320.561 8.4974 320.145 8.44531C319.884 8.41927 319.689 8.3151 319.559 8.13281C319.441 7.95052 319.383 7.75521 319.383 7.54688C319.383 7.33854 319.441 7.16276 319.559 7.01953C319.689 6.86328 319.884 6.79818 320.145 6.82422C320.509 6.86328 320.867 6.90885 321.219 6.96094C321.57 7 321.922 7.03906 322.273 7.07812C322.091 6.29688 321.909 5.52865 321.727 4.77344C321.544 4.00521 321.349 3.23047 321.141 2.44922H318.367C318.107 2.44922 317.911 2.36458 317.781 2.19531C317.651 2.02604 317.586 1.84375 317.586 1.64844C317.586 1.4401 317.651 1.2513 317.781 1.08203C317.911 0.91276 318.107 0.828125 318.367 0.828125H321.766H339.461ZM330.906 10.8672C329.904 10.3464 328.842 9.94271 327.723 9.65625C326.616 9.36979 325.49 9.14193 324.344 8.97266C324.539 9.83203 324.728 10.6849 324.91 11.5312C325.105 12.3646 325.307 13.2109 325.516 14.0703C325.971 14.0052 326.421 13.9401 326.863 13.875C327.319 13.7969 327.768 13.7057 328.211 13.6016C328.419 13.5625 328.693 13.5039 329.031 13.4258C329.383 13.3346 329.734 13.2305 330.086 13.1133C330.451 12.9831 330.783 12.8398 331.082 12.6836C331.395 12.5273 331.616 12.3581 331.746 12.1758C331.876 11.9935 331.883 11.7917 331.766 11.5703C331.661 11.349 331.375 11.1146 330.906 10.8672ZM358.707 4.30469C358.798 4.07031 358.948 3.91406 359.156 3.83594C359.365 3.75781 359.566 3.74479 359.762 3.79688C359.957 3.84896 360.113 3.95964 360.23 4.12891C360.348 4.28516 360.361 4.48047 360.27 4.71484C359.345 7.03255 358.447 9.34375 357.574 11.6484C356.702 13.9401 355.745 16.2188 354.703 18.4844C354.586 18.7188 354.43 18.8555 354.234 18.8945C354.039 18.9336 353.85 18.901 353.668 18.7969C353.499 18.6927 353.368 18.543 353.277 18.3477C353.186 18.1393 353.193 17.918 353.297 17.6836C353.714 16.7852 354.111 15.8867 354.488 14.9883C354.866 14.0898 355.237 13.1849 355.602 12.2734C354.495 11.1146 353.349 10.0078 352.164 8.95312C350.992 7.89844 349.827 6.81771 348.668 5.71094C348.473 5.52865 348.388 5.33333 348.414 5.125C348.44 4.91667 348.525 4.74089 348.668 4.59766C348.811 4.45443 348.987 4.36979 349.195 4.34375C349.417 4.30469 349.618 4.3763 349.801 4.55859C350.882 5.58724 351.969 6.59635 353.062 7.58594C354.156 8.5625 355.217 9.57812 356.246 10.6328C356.663 9.57812 357.073 8.52344 357.477 7.46875C357.88 6.41406 358.29 5.35938 358.707 4.30469ZM381.02 2.60547C381.176 2.64453 381.306 2.72917 381.41 2.85938C381.527 2.97656 381.599 3.13281 381.625 3.32812C381.742 4.72135 381.827 6.11458 381.879 7.50781C381.944 8.90104 381.983 10.2943 381.996 11.6875C382.009 13.0807 382.009 14.474 381.996 15.8672C381.983 17.2604 381.977 18.6536 381.977 20.0469C381.977 20.3073 381.892 20.5026 381.723 20.6328C381.553 20.763 381.365 20.8281 381.156 20.8281C380.961 20.8281 380.779 20.763 380.609 20.6328C380.44 20.5026 380.355 20.3073 380.355 20.0469C380.368 17.9115 380.375 15.7956 380.375 13.6992C380.388 11.5898 380.349 9.47396 380.258 7.35156C379.841 8.10677 379.346 8.81641 378.773 9.48047C378.214 10.1445 377.589 10.7109 376.898 11.1797C376.221 11.6354 375.486 11.9609 374.691 12.1562C373.91 12.3385 373.09 12.332 372.23 12.1367C371.514 11.9674 370.883 11.707 370.336 11.3555C369.802 10.9909 369.333 10.5612 368.93 10.0664C368.539 9.57161 368.207 9.02474 367.934 8.42578C367.66 7.82682 367.426 7.20182 367.23 6.55078C367.048 5.89974 366.898 5.24219 366.781 4.57812C366.677 3.90104 366.592 3.24349 366.527 2.60547C366.501 2.34505 366.56 2.15625 366.703 2.03906C366.859 1.90885 367.042 1.84375 367.25 1.84375C367.458 1.84375 367.654 1.90885 367.836 2.03906C368.018 2.16927 368.122 2.35807 368.148 2.60547C368.188 3.02214 368.24 3.49089 368.305 4.01172C368.383 4.53255 368.48 5.06641 368.598 5.61328C368.728 6.14714 368.884 6.67448 369.066 7.19531C369.249 7.71615 369.477 8.19792 369.75 8.64062C370.023 9.08333 370.349 9.46745 370.727 9.79297C371.104 10.1055 371.547 10.3203 372.055 10.4375C372.771 10.6068 373.448 10.6328 374.086 10.5156C374.724 10.3984 375.323 10.1771 375.883 9.85156C376.443 9.52604 376.951 9.11589 377.406 8.62109C377.862 8.1263 378.266 7.58594 378.617 7C378.969 6.41406 379.262 5.80208 379.496 5.16406C379.73 4.52604 379.9 3.90104 380.004 3.28906C380.004 3.09375 380.043 2.94401 380.121 2.83984C380.225 2.68359 380.355 2.59245 380.512 2.56641C380.681 2.52734 380.85 2.54036 381.02 2.60547ZM393.098 11.1992C393.124 10.5612 393.28 9.99479 393.566 9.5C393.866 9.00521 394.243 8.56901 394.699 8.19141C395.168 7.80078 395.695 7.46875 396.281 7.19531C396.867 6.92188 397.466 6.69401 398.078 6.51172C398.69 6.32943 399.296 6.1862 399.895 6.08203C400.493 5.96484 401.04 5.88021 401.535 5.82812C402.043 5.77604 402.603 5.73047 403.215 5.69141C403.84 5.65234 404.478 5.63932 405.129 5.65234C405.793 5.66536 406.457 5.71745 407.121 5.80859C407.785 5.88672 408.41 6.02344 408.996 6.21875C409.595 6.41406 410.142 6.67448 410.637 7C411.145 7.32552 411.561 7.73568 411.887 8.23047C412.056 8.46484 412.076 8.69922 411.945 8.93359C411.815 9.15495 411.639 9.31771 411.418 9.42188C410.337 9.86458 409.191 10.1641 407.98 10.3203C406.783 10.4766 405.565 10.5286 404.328 10.4766C403.104 10.4115 401.887 10.2552 400.676 10.0078C399.478 9.76042 398.345 9.46094 397.277 9.10938C397.212 9.08333 397.154 9.05729 397.102 9.03125C397.062 8.99219 397.017 8.95964 396.965 8.93359C396.47 9.19401 396.04 9.47396 395.676 9.77344C395.324 10.0599 395.057 10.3724 394.875 10.7109C394.693 11.0365 394.615 11.3815 394.641 11.7461C394.667 12.1107 394.816 12.4818 395.09 12.8594C395.585 13.5234 396.249 14.0247 397.082 14.3633C397.928 14.7018 398.827 14.9362 399.777 15.0664C400.741 15.1966 401.698 15.2617 402.648 15.2617C403.612 15.2487 404.458 15.2357 405.188 15.2227C406.685 15.1966 408.169 15.125 409.641 15.0078C411.112 14.8906 412.596 14.7865 414.094 14.6953C414.354 14.6823 414.549 14.7539 414.68 14.9102C414.81 15.0664 414.875 15.2487 414.875 15.457C414.875 15.6523 414.81 15.8411 414.68 16.0234C414.549 16.2057 414.354 16.3034 414.094 16.3164C413.521 16.3555 412.772 16.4271 411.848 16.5312C410.936 16.6224 409.921 16.7135 408.801 16.8047C407.694 16.8828 406.529 16.9479 405.305 17C404.094 17.0391 402.896 17.026 401.711 16.9609C400.526 16.8828 399.4 16.7331 398.332 16.5117C397.277 16.2904 396.353 15.9583 395.559 15.5156C394.764 15.0729 394.139 14.5 393.684 13.7969C393.241 13.0938 393.046 12.2279 393.098 11.1992ZM409.719 8.28906C409.185 7.92448 408.508 7.65755 407.688 7.48828C406.867 7.30599 405.982 7.20833 405.031 7.19531C404.081 7.18229 403.104 7.2474 402.102 7.39062C401.112 7.53385 400.168 7.74219 399.27 8.01562C400.103 8.23698 400.962 8.42578 401.848 8.58203C402.733 8.72526 403.618 8.81641 404.504 8.85547C405.402 8.89453 406.288 8.86849 407.16 8.77734C408.046 8.6862 408.898 8.52344 409.719 8.28906ZM437.812 1.41406C438.242 3.02865 438.639 4.64974 439.004 6.27734C439.382 7.89193 439.753 9.51302 440.117 11.1406C440.482 12.7682 440.859 14.3893 441.25 16.0039C441.641 17.6185 442.07 19.2266 442.539 20.8281C442.617 21.0755 442.591 21.2839 442.461 21.4531C442.331 21.6224 442.168 21.7331 441.973 21.7852C441.777 21.8372 441.582 21.8242 441.387 21.7461C441.191 21.668 441.055 21.5052 440.977 21.2578C440.482 19.5651 440.033 17.8789 439.629 16.1992C439.225 14.5065 438.828 12.8073 438.438 11.1016H424.961C425.339 12.7422 425.716 14.3698 426.094 15.9844C426.484 17.599 426.921 19.2135 427.402 20.8281C427.48 21.0755 427.454 21.2839 427.324 21.4531C427.194 21.6224 427.031 21.7331 426.836 21.7852C426.641 21.8372 426.445 21.8242 426.25 21.7461C426.055 21.668 425.918 21.5052 425.84 21.2578C425.371 19.6562 424.941 18.0482 424.551 16.4336C424.16 14.819 423.783 13.1979 423.418 11.5703C423.053 9.94271 422.689 8.32161 422.324 6.70703C421.96 5.07943 421.562 3.45833 421.133 1.84375C421.068 1.59635 421.094 1.38802 421.211 1.21875C421.341 1.03646 421.504 0.919271 421.699 0.867188C421.895 0.815104 422.09 0.834635 422.285 0.925781C422.493 1.00391 422.63 1.16667 422.695 1.41406C423.047 2.75521 423.379 4.09635 423.691 5.4375C424.004 6.77865 424.31 8.1263 424.609 9.48047H438.086C437.799 8.19141 437.507 6.91536 437.207 5.65234C436.921 4.3763 436.608 3.10677 436.27 1.84375C436.204 1.59635 436.23 1.38802 436.348 1.21875C436.478 1.03646 436.641 0.919271 436.836 0.867188C437.031 0.815104 437.227 0.834635 437.422 0.925781C437.617 1.00391 437.747 1.16667 437.812 1.41406ZM471.668 21.4727C470.978 19.194 470.366 16.9023 469.832 14.5977C469.311 12.2799 468.758 9.97526 468.172 7.68359C466.31 9.54557 464.461 11.401 462.625 13.25C460.789 15.0859 458.94 16.9349 457.078 18.7969C456.974 18.9141 456.85 18.9922 456.707 19.0312C456.564 19.0573 456.427 19.0508 456.297 19.0117C456.167 18.9727 456.049 18.9076 455.945 18.8164C455.841 18.7122 455.77 18.5885 455.73 18.4453C455.314 17.0651 454.936 15.6719 454.598 14.2656C454.272 12.8594 453.953 11.4531 453.641 10.0469C453.341 8.64062 453.035 7.23438 452.723 5.82812C452.423 4.42188 452.091 3.02214 451.727 1.62891C451.661 1.38151 451.688 1.17318 451.805 1.00391C451.935 0.821615 452.098 0.704427 452.293 0.652344C452.488 0.60026 452.684 0.613281 452.879 0.691406C453.087 0.769531 453.224 0.932292 453.289 1.17969C453.628 2.46875 453.94 3.76432 454.227 5.06641C454.513 6.35547 454.793 7.65104 455.066 8.95312C455.353 10.2422 455.639 11.5378 455.926 12.8398C456.225 14.1289 456.551 15.4115 456.902 16.6875C458.764 14.8125 460.62 12.9505 462.469 11.1016C464.318 9.2526 466.173 7.39714 468.035 5.53516C468.139 5.43099 468.263 5.36589 468.406 5.33984C468.549 5.30078 468.686 5.30078 468.816 5.33984C468.947 5.36589 469.064 5.43099 469.168 5.53516C469.272 5.6263 469.344 5.74349 469.383 5.88672C469.721 7.14974 470.04 8.41276 470.34 9.67578C470.639 10.9388 470.939 12.2083 471.238 13.4844C471.551 14.7474 471.863 16.0104 472.176 17.2734C472.501 18.5365 472.853 19.793 473.23 21.043C473.309 21.3034 473.283 21.5182 473.152 21.6875C473.022 21.8568 472.859 21.9674 472.664 22.0195C472.469 22.0716 472.273 22.0586 472.078 21.9805C471.883 21.9023 471.746 21.7331 471.668 21.4727ZM482.418 11.1992C482.444 10.5612 482.6 9.99479 482.887 9.5C483.186 9.00521 483.564 8.56901 484.02 8.19141C484.488 7.80078 485.016 7.46875 485.602 7.19531C486.188 6.92188 486.786 6.69401 487.398 6.51172C488.01 6.32943 488.616 6.1862 489.215 6.08203C489.814 5.96484 490.361 5.88021 490.855 5.82812C491.363 5.77604 491.923 5.73047 492.535 5.69141C493.16 5.65234 493.798 5.63932 494.449 5.65234C495.113 5.66536 495.777 5.71745 496.441 5.80859C497.105 5.88672 497.73 6.02344 498.316 6.21875C498.915 6.41406 499.462 6.67448 499.957 7C500.465 7.32552 500.882 7.73568 501.207 8.23047C501.376 8.46484 501.396 8.69922 501.266 8.93359C501.135 9.15495 500.96 9.31771 500.738 9.42188C499.658 9.86458 498.512 10.1641 497.301 10.3203C496.103 10.4766 494.885 10.5286 493.648 10.4766C492.424 10.4115 491.207 10.2552 489.996 10.0078C488.798 9.76042 487.665 9.46094 486.598 9.10938C486.533 9.08333 486.474 9.05729 486.422 9.03125C486.383 8.99219 486.337 8.95964 486.285 8.93359C485.79 9.19401 485.361 9.47396 484.996 9.77344C484.645 10.0599 484.378 10.3724 484.195 10.7109C484.013 11.0365 483.935 11.3815 483.961 11.7461C483.987 12.1107 484.137 12.4818 484.41 12.8594C484.905 13.5234 485.569 14.0247 486.402 14.3633C487.249 14.7018 488.147 14.9362 489.098 15.0664C490.061 15.1966 491.018 15.2617 491.969 15.2617C492.932 15.2487 493.779 15.2357 494.508 15.2227C496.005 15.1966 497.49 15.125 498.961 15.0078C500.432 14.8906 501.917 14.7865 503.414 14.6953C503.674 14.6823 503.87 14.7539 504 14.9102C504.13 15.0664 504.195 15.2487 504.195 15.457C504.195 15.6523 504.13 15.8411 504 16.0234C503.87 16.2057 503.674 16.3034 503.414 16.3164C502.841 16.3555 502.092 16.4271 501.168 16.5312C500.257 16.6224 499.241 16.7135 498.121 16.8047C497.014 16.8828 495.849 16.9479 494.625 17C493.414 17.0391 492.216 17.026 491.031 16.9609C489.846 16.8828 488.72 16.7331 487.652 16.5117C486.598 16.2904 485.673 15.9583 484.879 15.5156C484.085 15.0729 483.46 14.5 483.004 13.7969C482.561 13.0938 482.366 12.2279 482.418 11.1992ZM499.039 8.28906C498.505 7.92448 497.828 7.65755 497.008 7.48828C496.188 7.30599 495.302 7.20833 494.352 7.19531C493.401 7.18229 492.424 7.2474 491.422 7.39062C490.432 7.53385 489.488 7.74219 488.59 8.01562C489.423 8.23698 490.283 8.42578 491.168 8.58203C492.053 8.72526 492.939 8.81641 493.824 8.85547C494.723 8.89453 495.608 8.86849 496.48 8.77734C497.366 8.6862 498.219 8.52344 499.039 8.28906ZM538.242 1.64844C538.385 1.70052 538.509 1.78516 538.613 1.90234C538.73 2.00651 538.809 2.13021 538.848 2.27344C538.9 2.41667 538.906 2.56641 538.867 2.72266C538.841 2.86589 538.763 2.99609 538.633 3.11328C537.708 3.92057 536.751 4.6888 535.762 5.41797C534.785 6.13411 533.789 6.83724 532.773 7.52734C531.771 8.21745 530.762 8.90755 529.746 9.59766C528.73 10.2747 527.734 10.9844 526.758 11.7266C526.536 11.8958 526.322 11.9479 526.113 11.8828C525.905 11.8047 525.749 11.6745 525.645 11.4922C525.54 11.2969 525.495 11.0755 525.508 10.8281C525.534 10.5807 525.658 10.3724 525.879 10.2031C526.725 9.5651 527.585 8.95312 528.457 8.36719C529.329 7.76823 530.202 7.17578 531.074 6.58984C531.96 5.99089 532.832 5.38542 533.691 4.77344C534.551 4.16146 535.391 3.52344 536.211 2.85938C534.883 2.53385 533.529 2.35807 532.148 2.33203C530.768 2.30599 529.382 2.35156 527.988 2.46875C526.595 2.58594 525.202 2.72917 523.809 2.89844C522.428 3.05469 521.068 3.15885 519.727 3.21094C519.44 3.22396 519.225 3.14583 519.082 2.97656C518.952 2.79427 518.887 2.59245 518.887 2.37109C518.887 2.14974 518.958 1.94792 519.102 1.76562C519.245 1.57031 519.453 1.46615 519.727 1.45312C520.742 1.41406 521.764 1.34245 522.793 1.23828C523.835 1.13411 524.876 1.02995 525.918 0.925781C526.96 0.808594 528.001 0.717448 529.043 0.652344C530.098 0.574219 531.139 0.554688 532.168 0.59375C533.21 0.619792 534.238 0.710938 535.254 0.867188C536.27 1.02344 537.266 1.28385 538.242 1.64844ZM527.637 20.1836C527.923 20.1836 528.132 20.2747 528.262 20.457C528.405 20.6393 528.477 20.8411 528.477 21.0625C528.477 21.2839 528.405 21.4857 528.262 21.668C528.132 21.8503 527.923 21.9414 527.637 21.9414C527.35 21.9414 527.135 21.8503 526.992 21.668C526.849 21.4857 526.777 21.2839 526.777 21.0625C526.777 20.8411 526.849 20.6393 526.992 20.457C527.135 20.2747 527.35 20.1836 527.637 20.1836Z" fill="#40BA4C"/>
</svg>
