<svg width="24" height="24" viewBox="0 0 24 24" fill="none" xmlns="http://www.w3.org/2000/svg">
<g clip-path="url(#clip0_0_90)">
<path d="M12 2.32026C15.1547 2.32026 15.525 2.33433 16.7719 2.39058C17.925 2.44214 18.5484 2.63433 18.9656 2.79839C19.5187 3.01401 19.9125 3.26714 20.325 3.67964C20.7375 4.09214 20.9953 4.48589 21.2062 5.03901C21.3656 5.4562 21.5625 6.07964 21.614 7.23276C21.6703 8.47964 21.6844 8.84995 21.6844 12.0046C21.6844 15.1593 21.6703 15.5296 21.614 16.7765C21.5625 17.9296 21.3703 18.5531 21.2062 18.9703C20.9906 19.5234 20.7375 19.9171 20.325 20.3296C19.9125 20.7421 19.5187 21 18.9656 21.2109C18.5484 21.3703 17.925 21.5671 16.7719 21.6187C15.525 21.675 15.1547 21.689 12 21.689C8.84529 21.689 8.47498 21.675 7.22811 21.6187C6.07498 21.5671 5.45154 21.375 5.03436 21.2109C4.48123 20.9953 4.08748 20.7421 3.67498 20.3296C3.26248 19.9171 3.00467 19.5234 2.79373 18.9703C2.63436 18.5531 2.43748 17.9296 2.38592 16.7765C2.32967 15.5296 2.31561 15.1593 2.31561 12.0046C2.31561 8.84995 2.32967 8.47964 2.38592 7.23276C2.43748 6.07964 2.62967 5.4562 2.79373 5.03901C3.00936 4.48589 3.26248 4.09214 3.67498 3.67964C4.08748 3.26714 4.48123 3.00933 5.03436 2.79839C5.45154 2.63901 6.07498 2.44214 7.22811 2.39058C8.47498 2.32964 8.84529 2.32026 12 2.32026ZM12 0.192139C8.79373 0.192139 8.39061 0.206201 7.12967 0.262451C5.87342 0.318701 5.01561 0.520264 4.26561 0.810889C3.48748 1.11089 2.83123 1.5187 2.17498 2.17495C1.51873 2.8312 1.11561 3.49214 0.810919 4.26558C0.520294 5.01558 0.318732 5.87339 0.262482 7.13433C0.206232 8.39058 0.192169 8.7937 0.192169 12C0.192169 15.2062 0.206232 15.6093 0.262482 16.8703C0.318732 18.1265 0.520294 18.9843 0.810919 19.739C1.11092 20.5171 1.51873 21.1734 2.17498 21.8296C2.83123 22.4859 3.49217 22.889 4.26561 23.1937C5.01561 23.4843 5.87342 23.6859 7.13436 23.7421C8.39529 23.7984 8.79373 23.8125 12.0047 23.8125C15.2156 23.8125 15.614 23.7984 16.875 23.7421C18.1312 23.6859 18.989 23.4843 19.7437 23.1937C20.5219 22.8937 21.1781 22.4859 21.8344 21.8296C22.4906 21.1734 22.8937 20.5125 23.1984 19.739C23.489 18.989 23.6906 18.1312 23.7469 16.8703C23.8031 15.6093 23.8172 15.2109 23.8172 12C23.8172 8.78901 23.8031 8.39058 23.7469 7.12964C23.6906 5.87339 23.489 5.01558 23.1984 4.26089C22.8984 3.48276 22.4906 2.82651 21.8344 2.17026C21.1781 1.51401 20.5172 1.11089 19.7437 0.806201C18.9937 0.515576 18.1359 0.314014 16.875 0.257764C15.6094 0.206201 15.2062 0.192139 12 0.192139Z" fill="#1E1E1E"/>
<path d="M12 5.93433C8.65311 5.93433 5.93436 8.64839 5.93436 12C5.93436 15.3515 8.65311 18.0656 12 18.0656C15.3469 18.0656 18.0656 15.3468 18.0656 12C18.0656 8.65308 15.3469 5.93433 12 5.93433ZM12 15.9375C9.82498 15.9375 8.06248 14.175 8.06248 12C8.06248 9.82495 9.82498 8.06245 12 8.06245C14.175 8.06245 15.9375 9.82495 15.9375 12C15.9375 14.175 14.175 15.9375 12 15.9375Z" fill="#1E1E1E"/>
<path d="M18.3047 7.11103C19.0865 7.11103 19.7203 6.47724 19.7203 5.69541C19.7203 4.91358 19.0865 4.27979 18.3047 4.27979C17.5228 4.27979 16.889 4.91358 16.889 5.69541C16.889 6.47724 17.5228 7.11103 18.3047 7.11103Z" fill="#1E1E1E"/>
</g>
<defs>
<clipPath id="clip0_0_90">
<rect width="24" height="24" fill="white"/>
</clipPath>
</defs>
</svg>
