<svg width="137" height="81" viewBox="0 0 137 81" fill="none" xmlns="http://www.w3.org/2000/svg">
<path d="M2.60111 64.8923C2.95114 64.6822 3.31042 64.4766 3.67836 64.2749C4.04611 64.0738 4.40481 63.8677 4.75542 63.6575C4.0725 63.6226 3.39325 63.5918 2.71939 63.5654C2.04496 63.5394 1.39248 63.5261 0.761966 63.5261H-0.00012207C0.384968 63.0359 0.761966 62.5539 1.12972 62.0811C1.49747 61.6082 1.87389 61.1266 2.25937 60.6359C2.64465 60.6186 3.05189 60.6097 3.4811 60.6097H4.8082C5.56104 60.6097 6.34066 60.623 7.14648 60.6492C7.95191 60.6752 8.74925 60.7147 9.53735 60.7675C10.3258 60.8197 11.0918 60.8856 11.8365 60.9644C12.5807 61.0434 13.2592 61.1266 13.8725 61.214C13.6795 61.792 13.4826 62.3747 13.2815 62.9613C13.0798 63.5483 12.8829 64.1304 12.6905 64.7084C11.8496 64.5159 10.8945 64.3452 9.8265 64.1961C8.75773 64.0474 7.66295 63.9293 6.54216 63.8415C6.52463 64.2447 6.50691 64.6912 6.48977 65.1813C6.47204 65.672 6.45413 66.1757 6.43717 66.6922C6.41945 67.209 6.40616 67.7215 6.39768 68.2291C6.38863 68.7375 6.38458 69.2104 6.38458 69.6481C6.54216 69.3853 6.69512 69.127 6.84442 68.8729C6.99294 68.6194 7.14648 68.3606 7.30425 68.0979C8.03976 68.2909 8.88468 68.4392 9.8396 68.5444C10.7941 68.6496 11.6656 68.702 12.4539 68.702L11.3503 72.3279C10.9648 72.2755 10.5576 72.2142 10.1286 72.1441C9.69936 72.0742 9.26573 71.9996 8.82804 71.9207C8.38979 71.8419 7.96501 71.75 7.55372 71.645C7.14186 71.5398 6.76967 71.4346 6.43717 71.3296C6.45413 72.3632 6.48514 73.309 6.52906 74.1672C6.5726 75.0256 6.6119 75.691 6.64715 76.164C6.19156 76.3393 5.74482 76.5101 5.30714 76.6764C4.86927 76.8428 4.4312 77.0139 3.99371 77.1886H4.67663C5.3422 77.1886 6.0648 77.2063 6.84442 77.2412C7.62365 77.2765 8.40327 77.32 9.1827 77.3726C9.96193 77.4252 10.7238 77.4907 11.4686 77.5697C12.2129 77.6485 12.8914 77.7317 13.505 77.8193C13.2243 78.3624 12.9484 78.8964 12.6772 79.4221C12.4054 79.9472 12.1295 80.473 11.8496 80.9983C11.1137 80.8756 10.2509 80.7573 9.26149 80.6436C8.27189 80.5296 7.25147 80.4335 6.20061 80.3547C5.14956 80.2757 4.10737 80.206 3.07405 80.1445C2.04014 80.0832 1.11219 80.0438 0.28884 80.0262C0.534072 79.7989 0.770443 79.5708 0.998337 79.3433C1.22585 79.1156 1.46222 78.8877 1.70764 78.66C1.76043 78.1172 1.79972 77.4822 1.82592 76.7552C1.85212 76.0285 1.86561 75.2443 1.86561 74.4036C1.86561 73.5629 1.85212 72.7049 1.82592 71.8288C1.79972 70.953 1.76428 70.121 1.72093 69.3327C1.67701 68.5444 1.62461 67.8265 1.56316 67.1782C1.50171 66.5306 1.42735 66.0135 1.34008 65.628C1.42735 65.5756 1.51076 65.5229 1.58975 65.4705C1.66834 65.4181 1.75118 65.3653 1.83902 65.3129C1.89161 65.6983 1.93977 66.158 1.9835 66.6922C2.02704 67.2268 2.07116 67.8134 2.11489 68.4523C2.15842 69.0923 2.18944 69.7621 2.20697 70.4624C2.22431 71.1634 2.23317 71.864 2.23317 72.5645C2.23317 73.6681 2.22431 74.719 2.20697 75.7172C2.18944 76.7157 2.15457 77.5828 2.10179 78.3185C2.18944 78.231 2.26803 78.1609 2.33835 78.1083C2.40808 78.0557 2.4784 77.986 2.54871 77.8981C2.63598 77.0925 2.69319 76.1684 2.71939 75.1262C2.74559 74.0842 2.75869 73.0201 2.75869 71.9339C2.75869 70.4801 2.74116 69.1882 2.70629 68.0586C2.67085 66.9286 2.63598 65.8736 2.60111 64.8923Z" fill="#1E1E1E"/>
<path d="M21.0976 78.8193C20.9924 78.8719 20.8828 78.9245 20.769 78.9769C20.6549 79.0295 20.5459 79.0911 20.4407 79.1609C20.178 79.5115 19.8582 79.8353 19.4818 80.1329C19.1049 80.4306 18.7416 80.7197 18.3912 81C17.8306 80.8424 17.2396 80.6145 16.6178 80.3169C15.9959 80.0193 15.4573 79.669 15.0021 79.2658C15.1073 79.0559 15.199 78.8062 15.2779 78.5172C15.3565 78.2281 15.4224 77.8563 15.475 77.4007C15.5276 76.9451 15.5669 76.3758 15.5931 75.6927C15.6195 75.0096 15.6324 74.1601 15.6324 73.1441V71.1867C15.6324 70.5126 15.6149 69.8426 15.58 69.1766C15.4922 68.879 15.3346 68.6078 15.1073 68.3624C14.8794 68.1171 14.6166 67.9247 14.319 67.7842C14.6869 67.5043 15.05 67.2238 15.4093 66.9436C15.768 66.6635 16.1317 66.383 16.4997 66.1027C17.0075 66.2955 17.502 66.5274 17.984 66.7991C18.4658 67.0707 18.9167 67.4078 19.3373 67.8106C19.3018 67.9156 19.267 68.1348 19.2321 68.4675C19.1968 68.8002 19.1666 69.203 19.1402 69.676C19.1138 70.1489 19.0917 70.6702 19.0745 71.2393C19.0568 71.8085 19.0481 72.3913 19.0481 72.9865C19.0481 74.0726 19.0568 75.0227 19.0745 75.8374C19.0917 76.6517 19.118 77.3834 19.1533 78.0312C19.2756 78.224 19.4511 78.4211 19.6788 78.6224C19.9063 78.8237 20.1425 78.9946 20.3883 79.1347C20.2656 78.6793 20.156 78.1408 20.0597 77.5188C19.9632 76.8971 19.8801 76.2314 19.8102 75.5219C19.7401 74.8126 19.6829 74.0813 19.6393 73.3281C19.5956 72.5752 19.5736 71.8305 19.5736 71.0948C19.5736 70.4818 19.5869 69.8992 19.6131 69.3475C19.6393 68.7958 19.6698 68.2836 19.705 67.8106C20.0728 67.5305 20.4407 67.25 20.8087 66.9698C21.1764 66.6897 21.5528 66.4007 21.9383 66.1027C22.0961 66.3483 22.2885 66.602 22.5164 66.8646C22.7437 67.1273 23.0027 67.3859 23.2916 67.6398C23.5806 67.8939 23.8826 68.1304 24.1978 68.3491C24.513 68.5683 24.8457 68.7565 25.1963 68.9141C24.8982 69.3344 24.6008 69.7548 24.303 70.1751C24.005 70.5956 23.7071 71.0158 23.4095 71.4363C22.7617 71.2262 22.1354 70.9547 21.5311 70.6218C20.9269 70.2893 20.4319 69.9476 20.0466 69.5972C20.0113 69.8952 19.9849 70.2277 19.968 70.5956C19.9501 70.9634 19.9414 71.3491 19.9414 71.7517C19.9414 72.3471 19.968 72.9692 20.0204 73.617C20.0728 74.2653 20.1473 74.9046 20.2436 75.5352C20.3398 76.1657 20.4581 76.7659 20.5983 77.335C20.7384 77.9043 20.9046 78.399 21.0976 78.8193Z" fill="#1E1E1E"/>
<path d="M30.058 63.1861C29.7078 63.5014 29.3529 63.8212 28.9941 64.1453C28.6348 64.4695 28.2801 64.7889 27.9299 65.1042C27.5444 64.8592 27.1721 64.5787 26.8134 64.2633C26.4541 63.948 26.1256 63.5893 25.828 63.1861C26.178 62.8536 26.5375 62.5294 26.9052 62.214C27.273 61.8987 27.6321 61.5748 27.9827 61.2418C28.2451 61.645 28.5606 62.0085 28.9284 62.3321C29.2961 62.6565 29.6725 62.941 30.058 63.1861ZM30.8991 79.3184C30.4608 79.5987 30.023 79.8792 29.5851 80.1591C29.1472 80.4394 28.7005 80.7197 28.2451 81C27.6845 80.8072 27.1852 80.5704 26.7477 80.2905C26.3096 80.0106 25.8891 79.669 25.4864 79.2658C25.6614 79.1435 25.8018 78.9156 25.907 78.5827C26.012 78.2502 26.0948 77.786 26.1565 77.1901C26.2177 76.5949 26.2572 75.8549 26.2745 74.9699C26.2919 74.0857 26.3009 73.0304 26.3009 71.8041C26.3009 71.3489 26.2965 70.8759 26.2878 70.3851C26.2788 69.895 26.2657 69.4221 26.2485 68.9665C26.1607 68.7212 26.0422 68.5066 25.8937 68.3227C25.7446 68.1389 25.5215 67.9594 25.2239 67.784C25.6614 67.5041 26.0948 67.2237 26.5242 66.9434C26.9534 66.6635 27.3869 66.383 27.8247 66.1027C28.8057 66.4882 29.6989 67.0574 30.5049 67.8104C30.1543 68.0381 29.9401 68.6511 29.8611 69.6496C29.7822 70.6479 29.7429 72.1021 29.7429 74.011C29.7429 74.6767 29.7471 75.3641 29.756 76.0734C29.7646 76.7831 29.7864 77.4793 29.8216 78.1624C29.9617 78.3726 30.1108 78.5694 30.2684 78.7536C30.426 78.9376 30.6363 79.1258 30.8991 79.3184Z" fill="#1E1E1E"/>
<path d="M44.0351 78.4252C44.3327 78.8284 44.7355 79.1435 45.2437 79.371C44.8233 79.6513 44.4072 79.9228 43.9956 80.1857C43.5839 80.4485 43.1682 80.7197 42.7476 81C42.3098 80.7898 41.8677 80.5535 41.4207 80.2907C40.9742 80.0277 40.5579 79.7128 40.1728 79.3448C40.2077 79.0821 40.2425 78.7582 40.278 78.3728C40.3129 77.9877 40.3437 77.5581 40.3699 77.0851C40.3961 76.6122 40.4134 76.109 40.4225 75.5745C40.4311 75.0405 40.4354 74.5105 40.4354 73.9848C40.4354 73.0915 40.4311 72.2468 40.4225 71.4494C40.4134 70.6527 40.3916 70.0528 40.3568 69.6496C40.1637 69.5444 39.9185 69.4485 39.6209 69.3606C39.3231 69.2732 39.0079 69.1988 38.6752 69.1373C38.3423 69.0763 37.9961 69.0191 37.6375 68.9665C37.278 68.9141 36.9411 68.8703 36.6259 68.8353C36.5731 69.1504 36.5294 69.5621 36.4945 70.0701C36.4591 70.5783 36.4329 71.13 36.4155 71.7255C36.398 72.3209 36.3849 72.943 36.3762 73.5908C36.3674 74.2391 36.3631 74.8696 36.3631 75.4826C36.3631 75.9382 36.3539 76.3718 36.3369 76.7833C36.319 77.1948 36.3238 77.5673 36.35 77.8996C36.3762 78.2327 36.4373 78.5217 36.5338 78.7667C36.6299 79.0123 36.8008 79.1961 37.0462 79.3186C36.6084 79.5989 36.1745 79.8794 35.7457 80.1593C35.3163 80.4394 34.8827 80.7197 34.445 81C34.0944 80.7723 33.7488 80.5313 33.4074 80.2774C33.0657 80.0239 32.702 79.6864 32.3169 79.2658C32.4221 79.0911 32.5138 78.7713 32.5929 78.3071C32.6715 77.8432 32.7374 77.2955 32.7896 76.6648C32.8424 76.0343 32.8775 75.3425 32.8948 74.5893C32.9122 73.8363 32.9212 73.083 32.9212 72.3294C32.9212 71.822 32.9299 71.3356 32.9474 70.8713C32.9647 70.4076 32.943 69.9827 32.8819 69.5972C32.8203 69.2121 32.6979 68.8659 32.5138 68.5592C32.33 68.2529 32.0366 67.9944 31.6338 67.7842C31.9838 67.5043 32.3387 67.2238 32.6979 66.9434C33.0568 66.6635 33.4113 66.383 33.7619 66.1027C34.252 66.278 34.7644 66.5716 35.299 66.9829C35.8332 67.3945 36.2491 67.8195 36.5469 68.2572C36.8445 67.9069 37.1335 67.5523 37.4142 67.193C37.6939 66.8341 37.9829 66.4704 38.2811 66.1027C38.7889 66.1905 39.3188 66.2865 39.8705 66.3916C40.4225 66.4968 40.9696 66.6282 41.5128 66.7858C42.0557 66.9434 42.5725 67.1189 43.063 67.3113C43.5531 67.5043 43.9911 67.7316 44.3766 67.9944C44.289 68.3096 44.2192 68.6999 44.1664 69.1637C44.114 69.628 44.0655 70.1358 44.022 70.6875C43.9782 71.2393 43.9472 71.8172 43.9301 72.4217C43.9124 73.0258 43.9037 73.6261 43.9037 74.2215C43.9037 75.1146 43.9168 75.9335 43.9432 76.6781C43.9696 77.4227 43.9998 78.0046 44.0351 78.4252Z" fill="#1E1E1E"/>
<path d="M60.1662 76.691C60.0959 76.7436 60.0217 76.7921 59.9427 76.8355C59.8641 76.8796 59.7894 76.9278 59.7197 76.98C59.7545 76.2096 59.7807 75.4606 59.7983 74.7338C59.8156 74.0069 59.8248 73.2583 59.8248 72.4874C59.8248 72.1898 59.82 71.8873 59.8114 71.581C59.8025 71.2745 59.7983 70.9634 59.7983 70.648C59.4128 71.0335 59.0273 71.4099 58.6422 71.7777C58.2567 72.1456 57.8713 72.5224 57.4864 72.9075C57.1708 72.8551 56.8295 72.7808 56.4615 72.6843C56.0938 72.5881 55.7214 72.4739 55.3448 72.3429C54.968 72.2113 54.6 72.0668 54.2413 71.9093C53.882 71.7515 53.5625 71.5852 53.2824 71.4099C53.2995 71.2526 53.3087 71.0684 53.3087 70.8582V70.1751V68.0732C53.3087 67.3375 53.3305 66.624 53.3744 65.9318C53.418 65.2402 53.5361 64.6929 53.7291 64.2897C54.1845 64.0622 54.6355 63.8345 55.082 63.6066C55.5289 63.3791 55.9795 63.1601 56.4353 62.9497C56.6981 62.5646 56.9608 62.1792 57.2236 61.7937C57.4864 61.4086 57.7491 61.0231 58.0119 60.6376C58.607 60.7781 59.277 60.9137 60.0217 61.0449C60.7659 61.1763 61.528 61.2945 62.3074 61.3995C63.0868 61.5047 63.8618 61.5926 64.6328 61.6623C65.4035 61.7326 66.1215 61.7852 66.7873 61.8201C66.4893 62.3454 66.1962 62.8754 65.9069 63.4097C65.6179 63.9439 65.3245 64.4737 65.0269 64.9992C64.4135 64.9819 63.7744 64.9335 63.1088 64.8547C62.443 64.7758 61.769 64.6883 61.0859 64.5918C60.4028 64.4957 59.7328 64.3862 59.0758 64.2633C58.4189 64.1412 57.7925 64.0185 57.1974 63.8956C57.1446 64.2811 57.1053 64.7101 57.0791 65.183C57.0527 65.6559 57.0394 66.1468 57.0394 66.6544C57.0394 67.1799 57.0527 67.6924 57.0791 68.1915C57.1053 68.6908 57.1446 69.1243 57.1974 69.492C57.5474 69.6673 57.9547 69.8162 58.4189 69.9385C58.8828 70.0615 59.3428 70.158 59.7983 70.2277C59.7632 69.2294 59.7414 68.3317 59.7328 67.5346C59.7235 66.7378 59.7104 65.8663 59.6933 64.9202C59.7807 64.8678 59.8641 64.8197 59.9427 64.7758C60.0217 64.7324 60.1046 64.6839 60.1924 64.6311C60.1573 65.2092 60.1308 65.8399 60.1138 66.5232C60.0959 67.2061 60.0872 67.9247 60.0872 68.6775V70.0963C60.49 69.7114 60.8928 69.3302 61.296 68.9534C61.6988 68.577 62.1015 68.1959 62.5047 67.8104C62.8198 67.863 63.1654 67.9418 63.5422 68.047C63.9188 68.152 64.2953 68.2749 64.6723 68.4148C65.0487 68.5552 65.4166 68.7037 65.7759 68.8613C66.1346 69.0191 66.4544 69.1767 66.7347 69.3344C66.717 69.492 66.7041 69.6673 66.6954 69.8599C66.6863 70.0528 66.6821 70.2716 66.6821 70.5167C66.6821 70.9199 66.6863 71.3664 66.6954 71.8567C66.7041 72.3471 66.7083 72.8465 66.7083 73.3543C66.7083 74.09 66.6908 74.8085 66.6559 75.5088C66.6204 76.2096 66.5332 76.8226 66.3931 77.3479C65.9373 77.576 65.4821 77.7993 65.0269 78.0179C64.5711 78.2369 64.1159 78.4516 63.6607 78.6615C63.3978 79.0647 63.1306 79.4589 62.8591 79.844C62.5875 80.2294 62.3209 80.6145 62.0579 81C61.4623 80.8424 60.7878 80.702 60.0348 80.5797C59.2814 80.4569 58.5108 80.3471 57.7225 80.2512C56.9346 80.1551 56.1462 80.0763 55.3581 80.0148C54.57 79.9538 53.8428 79.9056 53.1774 79.8704C53.475 79.3277 53.7686 78.7931 54.0575 78.2676C54.3465 77.7421 54.6397 77.2167 54.9375 76.691C55.533 76.7087 56.1637 76.7526 56.8295 76.8226C57.495 76.8927 58.1647 76.9759 58.8393 77.0722C59.5135 77.1686 60.1835 77.2782 60.8493 77.4007C61.5149 77.5232 62.1541 77.6459 62.7674 77.7684C62.8023 77.3479 62.8329 76.875 62.8591 76.3496C62.8857 75.8241 62.8988 75.2901 62.8988 74.7467C62.8988 74.1164 62.8857 73.4987 62.8591 72.8946C62.8329 72.2901 62.7936 71.7428 62.7412 71.2526C62.3733 71.0774 61.9528 70.9239 61.48 70.7925C61.0069 70.6611 60.5428 70.5521 60.0872 70.4641C60.0872 71.0599 60.0915 71.6596 60.1007 72.2639C60.109 72.8682 60.1138 73.4421 60.1138 73.9848C60.1138 74.528 60.1177 75.0318 60.1269 75.4957C60.1356 75.9599 60.1487 76.3585 60.1662 76.691Z" fill="#1E1E1E"/>
<path d="M77.7175 78.399C77.3141 78.8368 76.9202 79.2749 76.5349 79.7126C76.1494 80.1506 75.7553 80.5795 75.3528 81C74.8799 80.9299 74.3715 80.8291 73.8289 80.6979C73.2858 80.5666 72.7518 80.409 72.2261 80.225C71.7008 80.041 71.197 79.8353 70.7152 79.6074C70.2332 79.3801 69.8177 79.1258 69.4673 78.8455C69.5201 78.6353 69.568 78.2635 69.6118 77.7288C69.6553 77.1948 69.6907 76.5687 69.7169 75.8503C69.7431 75.1322 69.7651 74.3487 69.7828 73.4987C69.7998 72.6492 69.809 71.8043 69.809 70.9632V69.5182H68.2061L69.7828 67.2323C69.7474 66.602 69.7125 66.0329 69.6776 65.5246C69.6422 65.0168 69.6073 64.6311 69.5725 64.3685C70.238 64.0709 70.9034 63.7642 71.5692 63.449C72.2348 63.1337 72.9003 62.8183 73.5661 62.503C73.5486 62.7133 73.5268 62.9759 73.5002 63.2913C73.4742 63.6066 73.4521 63.9528 73.4349 64.3292C73.4172 64.706 73.3995 65.1002 73.3823 65.5115C73.3644 65.9231 73.3471 66.339 73.3297 66.7594H77.5599C77.5072 67.215 77.4588 67.675 77.4155 68.1389C77.3713 68.6032 77.3234 69.063 77.271 69.5182H73.2771C73.2592 70.1666 73.2509 70.8016 73.2509 71.423V73.1967C73.2509 74.0726 73.255 74.8345 73.264 75.4824C73.2727 76.1308 73.2943 76.6297 73.3297 76.98C73.5046 77.1377 73.7543 77.2913 74.0785 77.4398C74.4025 77.5889 74.7657 77.7247 75.1689 77.8472C75.5715 77.9698 75.992 78.0796 76.4301 78.1757C76.8676 78.2722 77.297 78.3464 77.7175 78.399Z" fill="#1E1E1E"/>
<path d="M91.8271 79.3448C91.4594 79.6251 91.0868 79.901 90.7106 80.1724C90.3334 80.4437 89.9527 80.7197 89.5675 81C89.1296 80.7898 88.6651 80.4878 88.1749 80.0934C87.6846 79.6995 87.2904 79.3011 86.9926 78.8981C86.6597 79.2487 86.3357 79.5987 86.0205 79.9489C85.7052 80.2996 85.381 80.6494 85.0485 81C83.9972 80.8249 82.9549 80.5968 81.9217 80.3169C80.888 80.0368 79.9514 79.6428 79.1105 79.1345C79.1802 78.8368 79.2457 78.4776 79.3076 78.0572C79.3688 77.6369 79.4126 77.177 79.4388 76.6779C79.465 76.1786 79.4867 75.6577 79.5047 75.1146C79.5216 74.5719 79.5309 74.0287 79.5309 73.4856C79.5309 72.6276 79.5216 71.8131 79.5047 71.042C79.4867 70.2714 79.4521 69.492 79.3995 68.7037C79.2592 68.5113 79.0843 68.3317 78.8739 68.1651C78.664 67.9988 78.4446 67.8628 78.217 67.7578L80.5819 66.1027C81.0371 66.2955 81.4969 66.5361 81.961 66.8251C82.4249 67.1142 82.8501 67.434 83.2355 67.784C83.2003 68.047 83.1652 68.3928 83.1304 68.822C83.0951 69.2512 83.0687 69.7284 83.0514 70.2539C83.0338 70.7794 83.0207 71.3356 83.0121 71.9224C83.0032 72.5095 82.999 73.0915 82.999 73.6696C82.999 74.4754 83.0078 75.2287 83.0254 75.9291C83.0425 76.6297 83.0687 77.1553 83.1042 77.5055C83.5245 77.7157 84.0803 77.891 84.7726 78.0312C85.4644 78.1714 86.1429 78.2674 86.8086 78.3202C86.8961 77.7773 86.9618 77.0547 87.0059 76.1526C87.0494 75.2504 87.0714 74.3001 87.0714 73.3017C87.0714 72.3385 87.067 71.4361 87.0583 70.5955C87.0494 69.7548 87.0277 69.0805 86.9926 68.5723C86.9048 68.3976 86.8173 68.2529 86.73 68.1389C86.6422 68.025 86.5461 67.9156 86.4409 67.8104C86.826 67.5305 87.2115 67.25 87.5969 66.9698C87.982 66.6897 88.3675 66.4007 88.753 66.1027C89.1209 66.3128 89.5106 66.5538 89.9223 66.8251C90.3334 67.0969 90.7324 67.4427 91.1178 67.8628C91.0296 68.0035 90.9556 68.2439 90.8944 68.5854C90.8327 68.927 90.7761 69.3389 90.7235 69.8205C90.6709 70.3024 90.6316 70.832 90.6054 71.4099C90.579 71.9881 90.5661 72.5922 90.5661 73.2229V74.8255C90.5661 75.4737 90.5702 76.0998 90.579 76.7043C90.5875 77.3084 90.6095 77.8472 90.6447 78.3202C90.7672 78.513 90.9337 78.697 91.144 78.8719C91.3542 79.047 91.5815 79.2046 91.8271 79.3448Z" fill="#1E1E1E"/>
<path d="M104.359 77.4795C103.851 77.7247 103.343 77.9568 102.835 78.1757C102.327 78.3949 101.82 78.6269 101.312 78.8721C101.031 79.2225 100.755 79.5773 100.484 79.936C100.212 80.2951 99.9362 80.6496 99.6563 81C99.1834 80.9476 98.6665 80.8598 98.1062 80.7374C97.5456 80.6145 96.9852 80.47 96.4248 80.3038C95.8638 80.1375 95.3298 79.949 94.822 79.739C94.3136 79.5288 93.8761 79.3186 93.5082 79.1083C93.5082 78.4777 93.4951 77.7862 93.4689 77.0327C93.4427 76.2797 93.4296 75.4739 93.4296 74.6155C93.4296 73.5473 93.4467 72.5005 93.482 71.4758C93.5169 70.4512 93.6307 69.5621 93.8235 68.8089C94.3839 68.5639 94.9399 68.3142 95.4918 68.0601C96.0435 67.8064 96.5995 67.5567 97.1603 67.3113C97.0904 67.8721 97.0287 68.5421 96.9765 69.3211C96.9239 70.1009 96.8977 70.9108 96.8977 71.7517C96.8977 72.3471 96.9016 72.9299 96.9108 73.4987C96.9193 74.0682 96.937 74.6022 96.9632 75.1015C96.9894 75.6008 97.0158 76.052 97.0422 76.4548C97.0684 76.8578 97.1077 77.1817 97.1603 77.4269C97.6683 77.6723 98.2637 77.8692 98.9468 78.0179C99.6299 78.167 100.313 78.2853 100.996 78.3728C101.031 77.8825 101.057 77.357 101.075 76.7962C101.092 76.2358 101.102 75.6579 101.102 75.0622C101.102 74.4668 101.097 73.8494 101.088 73.2098C101.079 72.5706 101.066 71.9532 101.049 71.3575C101.031 70.7623 101.009 70.2015 100.983 69.676C100.957 69.1506 100.918 68.695 100.865 68.3096C100.409 68.1874 99.8313 67.9418 99.1308 67.5741C98.43 67.2061 97.7162 66.7771 96.9894 66.2865C96.2626 65.7966 95.5662 65.2618 94.9006 64.6839C94.2348 64.1059 93.7006 63.5278 93.2982 62.9497C93.7534 62.5646 94.2088 62.1838 94.6642 61.807C95.1196 61.4304 95.5749 61.0408 96.0306 60.6376C96.3984 61.1809 96.9147 61.759 97.5806 62.3718C98.2462 62.9852 98.9734 63.5718 99.7615 64.1321C100.55 64.6929 101.355 65.1921 102.179 65.6297C103.002 66.0678 103.755 66.3916 104.438 66.602C104.508 67.3377 104.561 68.0732 104.596 68.8089C104.631 69.5446 104.648 70.3067 104.648 71.0948C104.648 72.111 104.631 73.1618 104.596 74.2477C104.561 75.3338 104.482 76.4111 104.359 77.4795Z" fill="#1E1E1E"/>
<path d="M111.138 63.1861C110.788 63.5014 110.433 63.8212 110.074 64.1453C109.715 64.4695 109.36 64.7889 109.01 65.1042C108.624 64.8592 108.252 64.5787 107.893 64.2633C107.534 63.948 107.206 63.5893 106.908 63.1861C107.258 62.8536 107.618 62.5294 107.985 62.214C108.353 61.8987 108.712 61.5748 109.063 61.2418C109.325 61.645 109.641 62.0085 110.008 62.3321C110.376 62.6565 110.753 62.941 111.138 63.1861ZM111.979 79.3184C111.541 79.5987 111.103 79.8792 110.665 80.1591C110.227 80.4394 109.78 80.7197 109.325 81C108.765 80.8072 108.265 80.5704 107.828 80.2905C107.389 80.0106 106.969 79.669 106.566 79.2658C106.741 79.1435 106.882 78.9156 106.987 78.5827C107.092 78.2502 107.175 77.786 107.236 77.1901C107.298 76.5949 107.337 75.8549 107.355 74.9699C107.372 74.0857 107.381 73.0304 107.381 71.8041C107.381 71.3489 107.377 70.8759 107.368 70.3851C107.359 69.895 107.346 69.4221 107.328 68.9665C107.241 68.7212 107.122 68.5066 106.974 68.3227C106.825 68.1389 106.601 67.9594 106.304 67.784C106.741 67.5041 107.175 67.2237 107.604 66.9434C108.033 66.6635 108.467 66.383 108.905 66.1027C109.885 66.4882 110.779 67.0574 111.585 67.8104C111.234 68.0381 111.02 68.6511 110.941 69.6496C110.862 70.6479 110.823 72.1021 110.823 74.011C110.823 74.6767 110.827 75.3641 110.836 76.0734C110.845 76.7831 110.866 77.4793 110.902 78.1624C111.042 78.3726 111.191 78.5694 111.348 78.7536C111.506 78.9376 111.716 79.1258 111.979 79.3184Z" fill="#1E1E1E"/>
<path d="M117.102 68.7037C117.066 69.1944 117.036 69.7022 117.01 70.2277C116.984 70.7532 116.97 71.2963 116.97 71.8567V72.5398C117.233 72.5924 117.526 72.6407 117.851 72.6843C118.174 72.7284 118.498 72.7677 118.823 72.8023C119.147 72.838 119.462 72.8682 119.769 72.8946C120.075 72.9208 120.351 72.9339 120.596 72.9339C120.631 72.6889 120.666 72.4044 120.701 72.0799C120.736 71.7561 120.754 71.419 120.754 71.0684C120.754 70.3681 120.701 69.7812 120.596 69.3082C120.035 69.2554 119.453 69.1766 118.849 69.0715C118.245 68.9665 117.662 68.8441 117.102 68.7037ZM120.149 74.4315C119.764 74.5194 119.278 74.5806 118.691 74.6153C118.104 74.6507 117.565 74.6858 117.075 74.7205C117.11 75.1763 117.145 75.6099 117.18 76.021C117.215 76.4329 117.25 76.8226 117.286 77.1903C117.671 77.3306 118.135 77.466 118.678 77.5976C119.221 77.729 119.79 77.8472 120.386 77.9524C120.981 78.0574 121.572 78.1539 122.159 78.2414C122.746 78.3292 123.276 78.3903 123.749 78.4252C123.381 78.8632 123.004 79.2967 122.619 79.7257C122.234 80.1551 121.848 80.5795 121.463 81C120.885 80.9476 120.263 80.8642 119.598 80.7503C118.932 80.6361 118.262 80.4964 117.588 80.3302C116.913 80.1637 116.256 79.9798 115.617 79.7783C114.978 79.5772 114.404 79.3624 113.896 79.1345C113.773 78.6091 113.677 77.8865 113.607 76.9671C113.537 76.0474 113.502 75.0622 113.502 74.0112C113.502 73.1705 113.528 72.3471 113.581 71.5413C113.633 70.7359 113.73 70.0087 113.87 69.3606C114.325 69.1331 114.79 68.9141 115.262 68.7037C115.735 68.4935 116.208 68.2747 116.681 68.047C116.979 67.7316 117.281 67.4122 117.588 67.0878C117.894 66.7642 118.196 66.4358 118.494 66.1027C119.317 66.3652 120.211 66.6062 121.174 66.8251C122.137 67.0445 123.048 67.2237 123.907 67.3639C123.942 67.6265 123.968 67.9287 123.985 68.2703C124.003 68.6118 124.012 68.9665 124.012 69.3342C124.012 69.9123 123.985 70.4949 123.933 71.0815C123.88 71.6687 123.792 72.1634 123.67 72.5662C123.355 72.6889 123.053 72.8023 122.764 72.9075C122.475 73.0127 122.19 73.1354 121.91 73.2753C121.63 73.4159 121.345 73.5775 121.056 73.7615C120.767 73.9455 120.465 74.1688 120.149 74.4315Z" fill="#1E1E1E"/>
<path d="M136.387 77.9525C135.931 78.1627 135.48 78.3728 135.034 78.5828C134.587 78.7932 134.136 79.0034 133.681 79.2135C133.435 79.5115 133.19 79.8045 132.945 80.0935C132.699 80.3827 132.454 80.6759 132.209 80.9739C131.246 80.6759 130.203 80.4353 129.083 80.2515C127.962 80.0675 126.823 79.9319 125.667 79.844C125.965 79.3888 126.254 78.929 126.534 78.4647C126.814 78.0008 127.103 77.5318 127.401 77.059C128.347 77.1469 129.336 77.2913 130.37 77.4925C131.404 77.6942 132.305 77.9174 133.076 78.1627C133.111 77.8473 133.138 77.4886 133.155 77.0852C133.172 76.6826 133.181 76.3062 133.181 75.9556C133.181 75.6402 133.177 75.3339 133.168 75.0359C133.159 74.7383 133.138 74.4932 133.102 74.3002C132.857 74.1602 132.542 74.0467 132.157 73.9588C131.771 73.8712 131.438 73.8101 131.158 73.7747C130.913 74.1255 130.659 74.4668 130.396 74.7995C130.134 75.1322 129.88 75.474 129.634 75.8242C128.969 75.7545 128.29 75.6185 127.598 75.4169C126.906 75.2158 126.332 74.9662 125.877 74.668C125.825 74.4231 125.794 74.0554 125.785 73.5647C125.776 73.0744 125.772 72.5662 125.772 72.0407C125.772 71.5506 125.781 71.0554 125.798 70.5562C125.816 70.0571 125.851 69.5973 125.903 69.1767C126.359 68.9843 126.81 68.7916 127.257 68.5988C127.703 68.4062 128.154 68.2137 128.61 68.0207C128.802 67.7055 128.995 67.3859 129.188 67.0617C129.38 66.7379 129.573 66.4181 129.766 66.1027C130.799 66.3484 131.885 66.567 133.024 66.7595C134.162 66.9525 135.266 67.1012 136.334 67.2062C136.089 67.6791 135.848 68.1567 135.612 68.6381C135.375 69.1201 135.134 69.5973 134.889 70.0702C133.943 69.9827 132.967 69.856 131.96 69.689C130.952 69.5229 130.029 69.2996 129.188 69.0191C129.152 69.3174 129.131 69.6674 129.122 70.0702C129.113 70.4732 129.109 70.8411 129.109 71.1738C129.109 71.4717 129.118 71.7649 129.135 72.0538C129.152 72.343 129.179 72.6188 129.214 72.8814C129.424 73.0218 129.73 73.127 130.134 73.1968C130.536 73.2669 130.869 73.3195 131.132 73.3543C131.395 73.0218 131.657 72.6934 131.92 72.3692C132.183 72.0453 132.446 71.7082 132.708 71.3576C133.006 71.3929 133.33 71.4455 133.681 71.5152C134.031 71.5853 134.372 71.6687 134.705 71.7649C135.038 71.8614 135.353 71.9708 135.651 72.0933C135.949 72.216 136.203 72.3385 136.413 72.4611C136.448 72.7238 136.474 73.0875 136.492 73.5514C136.509 74.0157 136.518 74.5196 136.518 75.0623C136.518 75.5705 136.509 76.0737 136.492 76.573C136.474 77.0723 136.439 77.5318 136.387 77.9525Z" fill="#1E1E1E"/>
<path d="M68.2562 45.3154C68.0699 45.3707 67.8704 45.3919 67.6558 45.3838C66.4065 45.5195 65.1379 45.5911 63.8526 45.5911C57.686 45.5911 51.8942 43.9893 46.8673 41.1823C43.7875 42.3459 40.5419 43.1708 37.1741 43.6081C37.1838 43.6718 37.1845 43.7396 37.167 43.8188C37.163 43.8377 37.161 43.857 37.1585 43.8758C37.0272 44.8548 36.7499 45.7969 36.4238 46.7254C35.7132 48.7495 34.6567 50.5857 33.3828 52.3033C33.1173 52.6612 32.8642 53.0278 32.5735 53.4353C32.8694 53.4353 33.1115 53.4283 33.3533 53.4364C34.5109 53.4748 35.6679 53.49 36.8205 53.3457C38.3177 53.1583 39.7652 52.7809 41.1543 52.1904C43.4523 51.2143 45.4504 49.8105 47.1254 47.9568C47.2691 47.7978 47.3889 47.7608 47.5931 47.8055C49.4121 48.2026 51.247 48.4825 53.1108 48.5588C55.8865 48.6722 58.6263 48.4114 61.3323 47.7913C63.7711 47.2322 66.0836 46.4139 68.2583 45.3153C68.2581 45.3153 68.2581 45.3151 68.2581 45.3151C68.2576 45.3153 68.2568 45.3153 68.2562 45.3154Z" fill="#2A933F"/>
<path d="M73.2579 45.5912C71.6632 45.5912 70.0938 45.482 68.5555 45.2747C68.4565 45.2882 68.3581 45.3029 68.2589 45.3152L68.2587 45.3154C70.4334 46.414 72.7457 47.2325 75.1847 47.7914C77.8905 48.4117 80.6305 48.6723 83.4062 48.5589C85.2698 48.4828 87.1049 48.2029 88.9237 47.8056C89.1279 47.7611 89.2479 47.7979 89.3916 47.9569C91.0666 49.8107 93.0645 51.2144 95.3627 52.1907C96.7518 52.781 98.1993 53.1584 99.6964 53.3458C100.849 53.4901 102.006 53.4751 103.164 53.4367C103.405 53.4286 103.648 53.4356 103.944 53.4356C103.653 53.028 103.399 52.6614 103.134 52.3036C101.86 50.586 100.804 48.7498 100.093 46.7257C99.7669 45.797 99.4897 44.8552 99.3583 43.8762C99.3558 43.8571 99.3538 43.8378 99.3498 43.8191C99.3246 43.7057 99.3307 43.6124 99.3621 43.5279C96.1995 43.0742 93.1475 42.2797 90.2436 41.1825C85.2163 43.9896 79.4247 45.5912 73.2579 45.5912Z" fill="#EA581B"/>
<path d="M68.5559 45.2746C70.0941 45.4816 71.6636 45.5911 73.2583 45.5911C79.4251 45.5911 85.2167 43.9893 90.244 41.1823C88.3428 40.4639 86.5049 39.6175 84.7418 38.6508C80.1038 42.122 74.5727 44.4639 68.5559 45.2746Z" fill="#ED6B18"/>
<path d="M29.0882 13.6981C27.6516 16.2618 26.7453 19.0171 26.4224 21.9819C26.2091 23.9393 26.2598 25.8892 26.5923 27.8287C27.0828 30.6902 28.1305 33.34 29.6759 35.7929C31.5638 38.789 34.0088 41.2496 36.9184 43.2537C37.0735 43.3604 37.1533 43.4708 37.1741 43.6082C40.5418 43.1709 43.7874 42.346 46.8672 41.1824C37.0084 35.6775 30.0964 25.5307 29.0882 13.6981Z" fill="#2FA941"/>
<path d="M68.257 45.3152C68.2588 45.3146 68.2613 45.3146 68.2632 45.3139C68.2626 45.3139 68.2626 45.3139 68.262 45.3133C68.2607 45.3139 68.2582 45.3146 68.257 45.3152Z" fill="#2A943F"/>
<path d="M68.257 45.3152C68.2588 45.3146 68.2613 45.3146 68.2632 45.3139C68.2626 45.3139 68.2626 45.3139 68.262 45.3133C68.2607 45.3139 68.2582 45.3146 68.257 45.3152Z" fill="#A5A7A9"/>
<path d="M66.0352 44.8405C66.0331 44.8425 66.0371 44.8386 66.0352 44.8405C60.9938 43.7793 56.3527 41.6313 52.3702 38.6508C50.6071 39.6175 48.7693 40.4639 46.8682 41.1823C51.8951 43.9893 57.6869 45.5911 63.8535 45.5911C65.139 45.5911 66.4074 45.5192 67.6567 45.3838C67.4049 45.3743 67.1323 45.3243 66.8323 45.2333C66.6043 45.1642 66.4029 45.0205 66.0352 44.8405Z" fill="#2FA941"/>
<path d="M68.2602 45.3144C68.2598 45.3148 68.2592 45.315 68.2587 45.3152C68.3579 45.3027 68.4565 45.288 68.5553 45.2747C68.5064 45.2682 68.4577 45.2611 68.4087 45.2543C68.3594 45.2745 68.3115 45.2992 68.2602 45.3144Z" fill="#E9581B"/>
<path d="M68.2602 45.3144C68.2598 45.3148 68.2592 45.315 68.2587 45.3152C68.3579 45.3027 68.4565 45.288 68.5553 45.2747C68.5064 45.2682 68.4577 45.2611 68.4087 45.2543C68.3594 45.2745 68.3115 45.2992 68.2602 45.3144Z" fill="#BCBDBD"/>
<path d="M66.5256 44.3615C70.6109 40.2043 71.0974 35.1176 70.1446 29.7128C69.8645 30.8417 69.6882 32.0184 69.2748 33.1047C68.6895 34.6425 67.1149 35.5506 65.4699 35.5061C63.8677 35.463 62.7475 34.6003 62.108 32.9176C61.8777 32.3114 61.7566 32.0118 61.5485 31.9192C58.8078 34.5439 55.7232 36.8121 52.3698 38.6508C56.3522 41.6314 60.9933 43.7795 66.0348 44.8406C66.2041 44.6822 66.3672 44.5225 66.5256 44.3615Z" fill="#40BA4C"/>
<path d="M74.5297 30.8938C74.4782 30.8659 74.4266 30.8404 74.3759 30.81C73.2438 30.1333 72.2632 29.203 71.3756 28.511C71.5894 29.7925 71.9587 31.3145 72.0781 32.8557C72.3836 36.7944 71.4755 40.5058 69.6252 43.9757C69.3709 44.4529 69.1034 44.8002 68.804 45.0315C68.679 45.1281 68.5459 45.1974 68.4087 45.2542C68.4574 45.261 68.5062 45.2681 68.5551 45.2747C74.5721 44.464 80.1032 42.1221 84.741 38.6509C80.9587 36.5769 77.5202 33.9553 74.5297 30.8938Z" fill="#F19511"/>
<path d="M46.8677 41.1824C48.7688 40.464 50.6066 39.6175 52.3697 38.6509C43.8667 32.287 38.3635 22.1346 38.3635 10.6967C38.3635 8.3779 38.592 6.11282 39.0235 3.92037C38.2503 4.35863 37.4939 4.83368 36.7559 5.34861C34.0098 7.2652 31.6825 9.59423 29.8611 12.413C29.5879 12.8356 29.3315 13.2644 29.0886 13.6981C30.0969 25.5307 37.0089 35.6775 46.8677 41.1824Z" fill="#40BA4C"/>
<path d="M110.094 21.9818C109.811 19.3766 109.078 16.9327 107.929 14.6385C106.644 26.0672 99.84 35.8239 90.2434 41.1822C93.1473 42.2795 96.1993 43.0739 99.3619 43.5276C99.3991 43.4265 99.4744 43.3388 99.5983 43.2535C102.508 41.2494 104.953 38.7888 106.841 35.7927C108.386 33.34 109.434 30.69 109.924 27.8287C110.257 25.889 110.308 23.9391 110.094 21.9818Z" fill="#ED6B18"/>
<path d="M84.7416 38.6509C86.5046 39.6175 88.3426 40.4642 90.2438 41.1824C99.8404 35.8241 106.644 26.0674 107.93 14.6387C107.55 13.8805 107.126 13.1386 106.657 12.413C104.835 9.59423 102.508 7.26521 99.7618 5.34862C99.2392 4.98414 98.7046 4.64586 98.1644 4.32011C98.5462 6.38753 98.7477 8.51853 98.7477 10.6967C98.7477 22.1346 93.2446 32.287 84.7416 38.6509Z" fill="#F19511"/>
<path d="M62.1773 0.99564C60.4507 0.551796 58.6819 0.256863 56.872 0.108143C54.7869 -0.0631142 52.7065 -0.0297852 50.6291 0.199455C49.155 0.36224 47.6988 0.63155 46.2634 1.00624C43.7109 1.67258 41.2925 2.63406 39.023 3.92032C38.5915 6.11258 38.363 8.37784 38.363 10.6965C38.363 22.1343 43.8662 32.2867 52.3692 38.6506C55.7227 36.8119 58.8071 34.5437 61.548 31.919C61.3476 31.8302 61.0673 31.9327 60.5301 32.143C58.7254 32.8492 57.4488 32.6073 56.2465 31.3312C55.0933 30.1072 54.8371 28.3045 55.6077 26.7229C56.6898 24.5019 58.6285 23.2077 60.693 22.054C60.9558 21.9074 61.2228 21.7685 61.4505 21.4732C61.0608 21.5626 60.6709 21.6512 60.281 21.741C58.3455 22.1869 56.4137 22.3609 54.4574 21.8833C54.3871 21.8662 54.317 21.8485 54.2469 21.8296C51.6481 21.1332 50.3297 18.4578 51.4495 16.0665C51.8903 15.1255 52.6932 14.6356 53.6308 14.2987C54.7944 13.8804 54.8186 13.8119 54.389 12.708C53.6794 10.8839 53.9204 9.63406 55.2147 8.4287C56.4613 7.26804 58.2151 7.03359 59.8215 7.81629C60.2498 8.02473 60.6426 8.26592 61.0067 8.53331C62.0315 9.28615 62.8229 10.2534 63.5141 11.3123C63.8367 11.8067 64.1398 12.3191 64.4309 12.8425C64.5896 13.128 64.7443 13.4162 65.0456 13.6591C64.9329 13.1446 64.8146 12.6314 64.7084 12.1157C64.2581 9.9313 64.0602 7.74617 65.0178 5.64253C65.14 5.37418 65.2791 5.1276 65.4347 4.90298C66.0876 3.95943 67.033 3.40558 68.2577 3.2769C68.2579 3.2767 68.2579 3.27671 68.2582 3.27671C66.295 2.28865 64.2671 1.53273 62.1773 0.99564Z" fill="#4FC063"/>
<path d="M98.1641 4.31986C95.7016 2.83421 93.0599 1.73885 90.2535 1.00624C88.8179 0.63155 87.3619 0.362427 85.8876 0.199451C83.8102 -0.029789 81.7299 -0.063118 79.6447 0.108143C78.0425 0.239716 76.4725 0.487068 74.935 0.849426C72.6347 1.3919 70.4076 2.19503 68.2587 3.27671C68.2587 3.27671 68.2589 3.27671 68.2591 3.27671C68.3384 3.26842 68.4189 3.2613 68.5008 3.25667C69.9098 3.1748 71.0371 3.67836 71.7925 4.88314C71.9404 5.11893 72.0572 5.37803 72.1577 5.64368C72.2236 5.81783 72.2826 5.99487 72.3382 6.17056C72.5461 6.8265 72.9414 6.95346 73.5209 6.70148C73.5282 6.69821 73.5357 6.69512 73.5432 6.69185C73.6183 6.65814 73.695 6.6277 73.7717 6.59784C74.046 6.49073 74.3055 6.40674 74.555 6.34163C76.0181 5.95866 77.0895 6.29732 78.1175 7.42966C79.2571 8.68453 79.4754 10.4509 78.6892 12.0473C78.6474 12.132 78.6041 12.2151 78.5596 12.2971C77.6896 13.9084 76.3238 15.0321 74.7892 15.9785C74.0429 16.4385 73.2612 16.8406 72.4064 17.3189C73.8 17.0675 75.0913 16.781 76.3978 16.6131C77.8878 16.4216 79.3631 16.5535 80.7655 17.1636C80.8495 17.2002 80.9312 17.239 81.0113 17.279C82.5112 18.0296 83.3172 19.3911 83.2897 21.1498C83.275 22.0864 82.8911 22.8955 82.1799 23.5264C81.7655 23.8943 81.2398 24.202 80.611 24.4385C79.5707 24.8296 79.5239 24.9296 79.9073 25.9363C80.649 27.8845 80.4087 29.1226 79.051 30.3505C77.8289 31.4557 76.0785 31.736 74.5299 30.8936C77.5207 33.955 80.9589 36.5767 84.7412 38.6506C93.2442 32.2867 98.7474 22.1344 98.7474 10.6967C98.7474 8.51828 98.5459 6.38747 98.1641 4.31986Z" fill="#F3BB0B"/>
<path d="M65.4353 4.90299C65.2797 5.12761 65.1408 5.3742 65.0184 5.64254C64.061 7.74619 64.2589 9.93131 64.7091 12.1155C64.8154 12.6314 64.9335 13.1448 65.0462 13.6593C64.7451 13.4162 64.5904 13.128 64.4315 12.8425C64.1404 12.3193 63.8374 11.8067 63.5147 11.3124C62.8235 10.2534 62.0321 9.28616 61.0073 8.53331C60.6434 8.26593 60.2504 8.02494 59.8223 7.8163C58.2157 7.0338 56.4619 7.26805 55.2155 8.4289C53.921 9.63426 53.68 10.8837 54.3899 12.708C54.8194 13.8119 54.7952 13.8806 53.6314 14.2987C52.6938 14.6356 51.8909 15.1255 51.4503 16.0667C50.3303 18.4578 51.6488 21.133 54.2475 21.8296C54.3178 21.8485 54.3877 21.8662 54.4581 21.8833C56.4143 22.3611 58.3461 22.1871 60.2816 21.7412C60.6715 21.6512 61.0614 21.5626 61.4511 21.4734C61.2234 21.7685 60.9564 21.9074 60.6937 22.0542C58.6291 23.2078 56.6904 24.5019 55.6083 26.7231C54.8379 28.3047 55.094 30.1072 56.2471 31.3312C57.4494 32.6073 58.726 32.8493 60.5307 32.143C61.068 31.9327 61.3484 31.8302 61.5486 31.9192C61.7566 32.0116 61.8778 32.3114 62.1082 32.9174C62.7476 34.6004 63.8678 35.4628 65.47 35.5062C67.115 35.5505 68.6896 34.6424 69.2749 33.1047C69.6885 32.0182 69.8645 30.8415 70.1446 29.7129C71.0974 35.1176 70.611 40.2043 66.5257 44.3615C66.3673 44.5225 66.2042 44.6822 66.0348 44.8406C66.0329 44.8425 66.0369 44.8387 66.0348 44.8406C66.4026 45.0205 66.6039 45.1642 66.832 45.2332C67.1321 45.3243 67.4047 45.3744 67.6565 45.3838C67.8711 45.3919 68.0707 45.3707 68.2567 45.3153C68.2573 45.3153 68.2579 45.3151 68.2585 45.3149C68.2585 45.3151 68.2587 45.3151 68.2589 45.3151H68.2591C68.2596 45.3149 68.26 45.3147 68.2606 45.3143C68.3118 45.2991 68.3596 45.2744 68.4091 45.254C68.5465 45.1972 68.6794 45.1278 68.8046 45.0311C69.1038 44.8001 69.3714 44.4526 69.6257 43.9756C71.4762 40.5056 72.3843 36.7944 72.0787 32.8556C71.9593 31.3143 71.59 29.7924 71.376 28.5108C72.2639 29.2029 73.2444 30.133 74.3766 30.8098C74.427 30.8402 74.4789 30.8658 74.5301 30.8936C76.0787 31.7362 77.8291 31.4557 79.0512 30.3505C80.4089 29.1228 80.6492 27.8845 79.9075 25.9365C79.5241 24.9296 79.5709 24.8296 80.6112 24.4385C81.24 24.202 81.7657 23.8943 82.1801 23.5264C82.8913 22.8955 83.2752 22.0864 83.2899 21.1498C83.3174 19.3911 82.5114 18.0298 81.0115 17.2792C80.9314 17.239 80.8497 17.2002 80.7657 17.1636C79.3633 16.5537 77.888 16.4216 76.398 16.6133C75.0915 16.7811 73.8002 17.0675 72.4066 17.3189C73.2614 16.8406 74.0431 16.4385 74.7894 15.9785C76.324 15.0323 77.6898 13.9084 78.5598 12.2971C78.6043 12.2151 78.6476 12.132 78.6894 12.0473C79.4756 10.4509 79.2573 8.68454 78.1177 7.42967C77.0897 6.29733 76.0183 5.95867 74.5551 6.34164C74.3057 6.40694 74.0462 6.49074 73.7719 6.59785C73.6952 6.6279 73.6185 6.65815 73.5434 6.69186C73.5359 6.69513 73.5284 6.69822 73.5211 6.70149C72.9416 6.95346 72.5463 6.82652 72.3384 6.17057C72.2828 5.99488 72.2238 5.81804 72.1579 5.6437C72.0574 5.37804 71.9406 5.11894 71.7927 4.88315C71.0373 3.67837 69.91 3.17481 68.501 3.25668C68.4191 3.2615 68.3386 3.26843 68.2593 3.27691C68.2591 3.27691 68.2589 3.27671 68.2589 3.27671C68.2587 3.27691 68.2585 3.27691 68.2585 3.27691C67.0337 3.40579 66.0882 3.95963 65.4353 4.90299Z" fill="white"/>
</svg>
