<svg width="74" height="32" viewBox="0 0 74 32" fill="none" xmlns="http://www.w3.org/2000/svg">
<path d="M60.9095 7.83536C60.1528 5.31587 57.6308 3.82817 55.312 2.96463C51.782 1.65246 47.9234 1.23318 44.1865 1.04447C34.8936 0.575667 25.3509 1.70921 16.3758 4.13452C12.601 5.15314 8.80321 6.44212 5.4092 8.41315C3.22719 9.68174 0.766703 11.5015 0.138873 14.095C-0.577011 17.059 1.60285 19.9168 3.74477 21.6932C6.8875 24.2983 11.0368 25.6381 14.9355 26.6103C24.9414 29.1039 35.54 29.4158 45.8037 29.1502C49.9229 29.0429 54.0506 28.8179 58.1441 28.3376C59.8085 28.1403 61.4257 27.8803 63.0428 27.4305C65.9658 26.6176 69.0391 25.545 71.433 23.6207C72.859 22.4726 73.9443 20.9094 73.998 19.0328C74.0489 17.2228 73.1118 15.5073 72.0043 14.1431C68.883 10.297 64.0716 7.8398 59.5579 6.02978C55.5676 4.42915 51.3532 3.34791 47.0636 2.98781C43.5315 2.69183 39.9721 2.66721 36.4313 2.72954C31.806 2.8137 27.1785 3.10388 22.5897 3.68168C18.202 4.236 13.785 5.03857 9.61431 6.53801C6.58397 7.62654 3.2501 9.19111 1.45968 12.0066C-0.310702 14.792 0.387992 18.1853 2.01305 20.863C4.15139 24.3913 8.13743 26.5058 11.8636 27.9426C16.7989 29.8469 22.1058 30.7962 27.3446 31.3782C32.9421 31.9993 38.6004 32.1372 44.2251 31.8716C48.8505 31.6524 53.5338 31.2082 58.0331 30.0691C60.1807 29.5249 62.1831 28.696 64.1017 27.5798C65.9587 26.5002 67.7777 25.0952 68.8594 23.2011C70.7393 19.9064 69.2932 16.2417 67.0611 13.5394C64.0501 9.89499 59.8314 7.29693 55.6485 5.20853C51.2193 2.99511 46.4501 1.22309 41.5556 0.394256C39.6392 0.0705806 37.7256 -0.059949 35.7856 0.0255677C35.2215 0.050185 35.6768 1.10544 36.1908 1.08362C38.2017 0.99359 40.272 1.37237 42.2264 1.79788C44.659 2.32894 47.0443 3.04148 49.3802 3.90223C54.0907 5.63511 58.6795 7.87894 62.6756 10.9413C65.3372 12.982 68.6067 16.0138 68.5072 19.6713C68.4592 21.3955 67.4828 22.9456 66.2851 24.1241C64.5226 25.8587 62.1394 27.2041 59.8242 28.0326C55.8762 29.4463 51.563 29.9456 47.4087 30.2997C41.8949 30.7716 36.3332 30.7699 30.8152 30.3811C25.3709 29.995 19.8922 29.2215 14.6591 27.632C10.676 26.4231 6.42504 24.6801 3.66674 21.4291C1.80186 19.2316 0.830414 15.9414 2.30155 13.2984C3.88223 10.4594 7.2569 8.91101 10.172 7.84989C14.3348 6.3362 18.7633 5.55095 23.1452 4.99213C27.7254 4.40732 32.3458 4.12587 36.9611 4.04729C40.4667 3.98639 43.9903 4.02131 47.4867 4.31873C51.8514 4.69164 56.1081 5.85424 60.1507 7.52335C62.6076 8.53782 64.9843 9.75995 67.1878 11.2505C68.9482 12.4422 70.6649 13.8454 71.8532 15.6292C72.7323 16.9472 73.1304 18.4813 72.5512 20.0009C71.7773 22.0329 69.5753 23.3202 67.7319 24.2242C63.7501 26.1793 59.4957 26.8963 55.1381 27.2983C50.6531 27.712 46.1444 27.8834 41.6408 27.9049C36.3375 27.9312 31.025 27.7251 25.7489 27.175C20.8601 26.6654 15.9377 25.8788 11.2644 24.3173C7.95489 23.2098 4.25877 21.606 2.21779 18.6264C0.724454 16.4466 0.866202 14.3433 2.58576 12.3608C4.66397 9.96462 7.87399 8.51184 10.7597 7.36799C14.8539 5.7441 19.1628 4.66115 23.4824 3.83683C28.1765 2.94008 32.9457 2.38261 37.7213 2.16793C41.9987 1.97478 46.3348 2.06344 50.5664 2.76139C52.7821 3.12564 55.0164 3.67581 57.0366 4.67876C58.4283 5.36811 59.8078 6.39575 60.3347 7.91666C60.4793 8.329 61.062 8.34188 60.9095 7.83536Z" fill="#40BA4C"/>
</svg>
