<svg width="314" height="31" viewBox="0 0 314 31" fill="none" xmlns="http://www.w3.org/2000/svg">
<path d="M24.751 17.1592C25.1253 17.501 25.3044 17.8428 25.2881 18.1846C25.2881 18.5264 25.166 18.86 24.9219 19.1855C24.6777 19.4948 24.3441 19.7959 23.9209 20.0889C23.514 20.3656 23.0908 20.6178 22.6514 20.8457C22.2282 21.0736 21.8213 21.2689 21.4307 21.4316C21.0563 21.5781 20.7796 21.6839 20.6006 21.749C19.0869 22.2699 17.557 22.7093 16.0107 23.0674C14.4808 23.4092 12.9427 23.7184 11.3965 23.9951C9.85026 24.2555 8.2959 24.4997 6.7334 24.7275C5.1709 24.9554 3.6084 25.2158 2.0459 25.5088C1.72038 25.5576 1.45182 25.5007 1.24023 25.3379C1.02865 25.1589 0.882161 24.9473 0.800781 24.7031C0.735677 24.459 0.751953 24.223 0.849609 23.9951C0.963542 23.751 1.18327 23.6045 1.50879 23.5557C2.9248 23.2952 4.34082 23.0674 5.75684 22.8721C7.17285 22.6605 8.58887 22.4408 10.0049 22.2129C11.4209 21.985 12.8288 21.7327 14.2285 21.4561C15.6283 21.1631 17.0117 20.7969 18.3789 20.3574C19.0299 20.1458 19.6891 19.9342 20.3564 19.7227C21.04 19.4948 21.6748 19.1937 22.2607 18.8193C22.4561 18.7054 22.6188 18.624 22.749 18.5752C22.8792 18.5101 22.9688 18.4694 23.0176 18.4531C23.0827 18.4368 23.1071 18.4287 23.0908 18.4287C23.0745 18.4124 23.0257 18.388 22.9443 18.3555C22.3584 18.0951 21.7399 17.8916 21.0889 17.7451C20.4541 17.5986 19.8275 17.4603 19.209 17.3301C17.3861 16.9557 15.5632 16.6058 13.7402 16.2803C11.9173 15.9548 10.1025 15.5479 8.2959 15.0596C7.85645 14.9456 7.36816 14.8236 6.83105 14.6934C6.31022 14.5469 5.79753 14.3678 5.29297 14.1562C4.80469 13.9447 4.3571 13.6761 3.9502 13.3506C3.54329 13.0251 3.24219 12.6182 3.04688 12.1299C2.94922 11.8532 2.98177 11.6009 3.14453 11.373C3.32357 11.1452 3.52702 10.9824 3.75488 10.8848C6.81478 9.61523 9.89909 8.54102 13.0078 7.66211C16.1328 6.7832 19.3392 6.16471 22.627 5.80664C22.9525 5.77409 23.1885 5.85547 23.335 6.05078C23.4977 6.24609 23.5791 6.47396 23.5791 6.73438C23.5791 6.97852 23.4977 7.21452 23.335 7.44238C23.1722 7.67025 22.9362 7.80046 22.627 7.83301C19.6973 8.15853 16.8327 8.71191 14.0332 9.49316C11.25 10.2581 8.49121 11.1777 5.75684 12.252C6.03353 12.3984 6.35091 12.5286 6.70898 12.6426C7.06706 12.7402 7.41699 12.8298 7.75879 12.9111C8.11686 12.9925 8.44238 13.0658 8.73535 13.1309C9.02832 13.1797 9.25618 13.2204 9.41895 13.2529C10.5094 13.5296 11.5999 13.7738 12.6904 13.9854C13.7809 14.1969 14.8714 14.4085 15.9619 14.6201C16.613 14.7503 17.3372 14.8643 18.1348 14.9619C18.9486 15.0596 19.7542 15.1979 20.5518 15.377C21.3656 15.5397 22.1387 15.7594 22.8711 16.0361C23.6035 16.3128 24.2301 16.6872 24.751 17.1592ZM52.3486 26.0947C51.486 26.0947 50.5339 26.0947 49.4922 26.0947C48.4505 26.0947 47.3682 26.0622 46.2451 25.9971C45.1221 25.9157 43.9909 25.7936 42.8516 25.6309C41.7285 25.4681 40.6462 25.2321 39.6045 24.9229C38.5791 24.6136 37.627 24.2148 36.748 23.7266C35.8854 23.222 35.153 22.6035 34.5508 21.8711C33.9648 21.1387 33.5335 20.276 33.2568 19.2832C32.9964 18.2904 32.9639 17.1348 33.1592 15.8164C33.387 14.2376 33.916 12.8216 34.7461 11.5684C35.5762 10.2988 36.6016 9.21647 37.8223 8.32129C39.043 7.40983 40.402 6.69368 41.8994 6.17285C43.3968 5.63574 44.9186 5.3265 46.4648 5.24512C48.0111 5.16374 49.5329 5.31022 51.0303 5.68457C52.5277 6.05892 53.8867 6.68555 55.1074 7.56445C55.3678 7.75977 55.5062 7.99577 55.5225 8.27246C55.555 8.54915 55.5062 8.80143 55.376 9.0293C55.262 9.24089 55.083 9.39551 54.8389 9.49316C54.5947 9.57454 54.3424 9.51758 54.082 9.32227C53.0892 8.60612 51.9255 8.08529 50.5908 7.75977C49.2562 7.43424 47.8809 7.31217 46.4648 7.39355C45.0488 7.45866 43.6491 7.71094 42.2656 8.15039C40.8984 8.58984 39.6777 9.21647 38.6035 10.0303C37.5293 10.8278 36.6667 11.8044 36.0156 12.96C35.3646 14.0993 35.0553 15.4014 35.0879 16.8662C35.1204 18.2334 35.4378 19.3646 36.04 20.2598C36.6423 21.1387 37.4235 21.8467 38.3838 22.3838C39.3441 22.9046 40.4346 23.2952 41.6553 23.5557C42.876 23.7998 44.1211 23.9626 45.3906 24.0439C46.6602 24.109 47.8971 24.1335 49.1016 24.1172C50.3223 24.0846 51.4046 24.0684 52.3486 24.0684C52.6742 24.0684 52.9183 24.1742 53.0811 24.3857C53.2438 24.5973 53.3252 24.8333 53.3252 25.0938C53.3252 25.3379 53.2438 25.5658 53.0811 25.7773C52.9183 25.9889 52.6742 26.0947 52.3486 26.0947ZM85.4639 3.24316C86.001 5.26139 86.4974 7.28776 86.9531 9.32227C87.4251 11.3568 87.889 13.3913 88.3447 15.4258C88.8005 17.4603 89.2725 19.4948 89.7607 21.5293C90.249 23.5475 90.7861 25.5576 91.3721 27.5596C91.4697 27.8688 91.4372 28.1292 91.2744 28.3408C91.1279 28.5524 90.9326 28.6908 90.6885 28.7559C90.4443 28.821 90.1921 28.8047 89.9316 28.707C89.6875 28.6094 89.5166 28.4059 89.4189 28.0967C88.8005 25.9808 88.2389 23.8649 87.7344 21.749C87.2298 19.6331 86.7334 17.5091 86.2451 15.377H69.375C69.847 17.4277 70.3271 19.4622 70.8154 21.4805C71.3037 23.4987 71.8408 25.5251 72.4268 27.5596C72.5244 27.8688 72.4919 28.1292 72.3291 28.3408C72.1826 28.5524 71.9873 28.6908 71.7432 28.7559C71.499 28.821 71.2549 28.8047 71.0107 28.707C70.7666 28.6094 70.5957 28.4059 70.498 28.0967C69.8958 26.0947 69.3506 24.0846 68.8623 22.0664C68.374 20.0319 67.902 17.9974 67.4463 15.9629C66.9906 13.9284 66.5348 11.8939 66.0791 9.85938C65.6234 7.82487 65.127 5.7985 64.5898 3.78027C64.5085 3.47103 64.541 3.21061 64.6875 2.99902C64.8503 2.78743 65.0537 2.64909 65.2979 2.58398C65.542 2.51888 65.7861 2.53516 66.0303 2.63281C66.2907 2.73047 66.4616 2.93392 66.543 3.24316C66.9824 4.9196 67.3975 6.60417 67.7881 8.29688C68.1787 9.97331 68.5612 11.6579 68.9355 13.3506H85.8057C85.4476 11.7393 85.0814 10.1442 84.707 8.56543C84.349 6.97038 83.9583 5.37533 83.5352 3.78027C83.4538 3.47103 83.4863 3.21061 83.6328 2.99902C83.7956 2.78743 83.999 2.64909 84.2432 2.58398C84.4873 2.51888 84.7314 2.53516 84.9756 2.63281C85.2197 2.73047 85.3825 2.93392 85.4639 3.24316ZM120.264 15.8164C120.166 16.9232 119.881 17.9974 119.409 19.0391C118.953 20.0645 118.343 20.9759 117.578 21.7734C116.829 22.571 115.942 23.1976 114.917 23.6533C113.908 24.109 112.801 24.3044 111.597 24.2393C110.457 24.1742 109.351 23.9137 108.276 23.458C107.202 23.0023 106.25 22.3919 105.42 21.627C104.606 20.8457 103.955 19.9424 103.467 18.917C102.995 17.8753 102.791 16.736 102.856 15.499C102.938 14.1156 103.231 12.903 103.735 11.8613C104.256 10.8034 104.915 9.92448 105.713 9.22461C106.51 8.52474 107.406 8.00391 108.398 7.66211C109.391 7.30404 110.409 7.11686 111.45 7.10059C112.492 7.08431 113.517 7.24707 114.526 7.58887C115.535 7.91439 116.447 8.41895 117.261 9.10254C118.075 9.76986 118.75 10.6162 119.287 11.6416C119.824 12.6507 120.15 13.8389 120.264 15.2061C120.296 15.3363 120.312 15.4339 120.312 15.499C120.312 15.5804 120.296 15.6862 120.264 15.8164ZM104.883 15.499C104.964 16.9313 105.339 18.1357 106.006 19.1123C106.673 20.0726 107.487 20.7969 108.447 21.2852C109.424 21.7572 110.465 21.9932 111.572 21.9932C112.695 21.9932 113.737 21.749 114.697 21.2607C115.674 20.7725 116.496 20.0563 117.163 19.1123C117.83 18.152 118.205 16.9476 118.286 15.499C118.237 14.6201 118.034 13.7738 117.676 12.96C117.334 12.1299 116.87 11.4056 116.284 10.7871C115.698 10.1523 115.007 9.65592 114.209 9.29785C113.411 8.9235 112.541 8.76074 111.597 8.80957C110.718 8.8584 109.863 9.06185 109.033 9.41992C108.219 9.76172 107.495 10.2256 106.86 10.8115C106.226 11.3975 105.721 12.0892 105.347 12.8867C104.989 13.6842 104.834 14.555 104.883 15.499ZM146.689 15.8164C146.592 16.9232 146.307 17.9974 145.835 19.0391C145.379 20.0645 144.769 20.9759 144.004 21.7734C143.255 22.571 142.368 23.1976 141.343 23.6533C140.334 24.109 139.227 24.3044 138.022 24.2393C136.883 24.1742 135.776 23.9137 134.702 23.458C133.628 23.0023 132.676 22.3919 131.846 21.627C131.032 20.8457 130.381 19.9424 129.893 18.917C129.421 17.8753 129.217 16.736 129.282 15.499C129.364 14.1156 129.657 12.903 130.161 11.8613C130.682 10.8034 131.341 9.92448 132.139 9.22461C132.936 8.52474 133.831 8.00391 134.824 7.66211C135.817 7.30404 136.834 7.11686 137.876 7.10059C138.918 7.08431 139.943 7.24707 140.952 7.58887C141.961 7.91439 142.873 8.41895 143.687 9.10254C144.5 9.76986 145.176 10.6162 145.713 11.6416C146.25 12.6507 146.576 13.8389 146.689 15.2061C146.722 15.3363 146.738 15.4339 146.738 15.499C146.738 15.5804 146.722 15.6862 146.689 15.8164ZM131.309 15.499C131.39 16.9313 131.764 18.1357 132.432 19.1123C133.099 20.0726 133.913 20.7969 134.873 21.2852C135.85 21.7572 136.891 21.9932 137.998 21.9932C139.121 21.9932 140.163 21.749 141.123 21.2607C142.1 20.7725 142.922 20.0563 143.589 19.1123C144.256 18.152 144.631 16.9476 144.712 15.499C144.663 14.6201 144.46 13.7738 144.102 12.96C143.76 12.1299 143.296 11.4056 142.71 10.7871C142.124 10.1523 141.432 9.65592 140.635 9.29785C139.837 8.9235 138.966 8.76074 138.022 8.80957C137.144 8.8584 136.289 9.06185 135.459 9.41992C134.645 9.76172 133.921 10.2256 133.286 10.8115C132.651 11.3975 132.147 12.0892 131.772 12.8867C131.414 13.6842 131.26 14.555 131.309 15.499ZM176.606 25.582C176.916 25.5332 177.176 25.5983 177.388 25.7773C177.616 25.9401 177.762 26.1436 177.827 26.3877C177.909 26.6318 177.892 26.8678 177.778 27.0957C177.681 27.3236 177.469 27.4619 177.144 27.5107C174.181 27.9665 171.243 28.4303 168.33 28.9023C165.417 29.3743 162.495 29.9196 159.565 30.5381C159.435 30.5869 159.313 30.6113 159.199 30.6113C158.971 30.6276 158.776 30.5706 158.613 30.4404C158.451 30.3265 158.328 30.18 158.247 30.001C158.182 29.8708 158.149 29.765 158.149 29.6836C158.133 29.6673 158.125 29.6348 158.125 29.5859V29.5371C158.125 29.4069 158.133 29.3092 158.149 29.2441C158.996 24.6868 159.704 20.1214 160.273 15.5479C160.843 10.958 161.144 6.34375 161.177 1.70508C161.177 1.37956 161.283 1.13542 161.494 0.972656C161.706 0.809896 161.934 0.728516 162.178 0.728516C162.422 0.728516 162.65 0.809896 162.861 0.972656C163.073 1.13542 163.179 1.37956 163.179 1.70508V2.68164C163.179 2.7793 163.171 2.86068 163.154 2.92578C163.073 7.20638 162.772 11.4626 162.251 15.6943C161.746 19.9098 161.12 24.1172 160.371 28.3164C163.073 27.7793 165.767 27.2992 168.452 26.876C171.154 26.4365 173.872 26.0052 176.606 25.582ZM234.204 25.582C234.513 25.5332 234.774 25.5983 234.985 25.7773C235.213 25.9401 235.36 26.1436 235.425 26.3877C235.506 26.6318 235.49 26.8678 235.376 27.0957C235.278 27.3236 235.067 27.4619 234.741 27.5107C231.779 27.9665 228.841 28.4303 225.928 28.9023C223.014 29.3743 220.093 29.9196 217.163 30.5381C217.033 30.5869 216.911 30.6113 216.797 30.6113C216.569 30.6276 216.374 30.5706 216.211 30.4404C216.048 30.3265 215.926 30.18 215.845 30.001C215.78 29.8708 215.747 29.765 215.747 29.6836C215.731 29.6673 215.723 29.6348 215.723 29.5859V29.5371C215.723 29.4069 215.731 29.3092 215.747 29.2441C216.593 24.6868 217.301 20.1214 217.871 15.5479C218.441 10.958 218.742 6.34375 218.774 1.70508C218.774 1.37956 218.88 1.13542 219.092 0.972656C219.303 0.809896 219.531 0.728516 219.775 0.728516C220.02 0.728516 220.247 0.809896 220.459 0.972656C220.671 1.13542 220.776 1.37956 220.776 1.70508V2.68164C220.776 2.7793 220.768 2.86068 220.752 2.92578C220.671 7.20638 220.369 11.4626 219.849 15.6943C219.344 19.9098 218.717 24.1172 217.969 28.3164C220.671 27.7793 223.364 27.2992 226.05 26.876C228.752 26.4365 231.47 26.0052 234.204 25.582ZM247.666 7.24707C248.024 8.59798 248.358 9.95703 248.667 11.3242C248.976 12.6914 249.277 14.0586 249.57 15.4258C249.88 16.793 250.197 18.1602 250.522 19.5273C250.848 20.8783 251.214 22.221 251.621 23.5557C251.719 23.8649 251.686 24.1253 251.523 24.3369C251.361 24.5485 251.157 24.6868 250.913 24.752C250.669 24.8171 250.425 24.8008 250.181 24.7031C249.937 24.6055 249.766 24.402 249.668 24.0928C249.261 22.7581 248.895 21.4154 248.569 20.0645C248.244 18.6973 247.926 17.3301 247.617 15.9629C247.324 14.5957 247.023 13.2285 246.714 11.8613C246.405 10.4941 246.071 9.13509 245.713 7.78418C245.632 7.47493 245.664 7.21452 245.811 7.00293C245.973 6.77507 246.177 6.62858 246.421 6.56348C246.665 6.49837 246.909 6.52279 247.153 6.63672C247.414 6.73438 247.585 6.93783 247.666 7.24707ZM289.912 6.02637C290.238 5.99382 290.482 6.0752 290.645 6.27051C290.807 6.46582 290.889 6.69368 290.889 6.9541C290.889 7.19824 290.807 7.43424 290.645 7.66211C290.482 7.88997 290.238 8.02018 289.912 8.05273C286.348 8.37826 282.856 8.85026 279.438 9.46875C276.037 10.071 272.627 10.8359 269.209 11.7637C269.339 12.3822 269.469 13.0007 269.6 13.6191C269.746 14.2376 269.893 14.8561 270.039 15.4746C271.569 15.1165 273.091 14.8236 274.604 14.5957C276.134 14.3678 277.689 14.2376 279.268 14.2051C279.593 14.2051 279.837 14.3109 280 14.5225C280.163 14.734 280.244 14.9701 280.244 15.2305C280.244 15.4746 280.163 15.7025 280 15.9141C279.837 16.1257 279.593 16.2314 279.268 16.2314C277.754 16.264 276.273 16.3942 274.824 16.6221C273.392 16.8337 271.943 17.1104 270.479 17.4521C270.739 18.5752 271.007 19.682 271.284 20.7725C271.561 21.863 271.862 22.9616 272.188 24.0684C272.285 24.3776 272.253 24.638 272.09 24.8496C271.927 25.0612 271.724 25.1995 271.479 25.2646C271.235 25.3298 270.991 25.3135 270.747 25.2158C270.503 25.1182 270.332 24.9147 270.234 24.6055C269.616 22.571 269.079 20.5365 268.623 18.502C268.184 16.4512 267.728 14.3841 267.256 12.3008C266.963 12.3822 266.67 12.4635 266.377 12.5449C266.1 12.6263 265.815 12.7158 265.522 12.8135C265.213 12.9111 264.953 12.8786 264.741 12.7158C264.53 12.5531 264.391 12.3496 264.326 12.1055C264.261 11.8613 264.277 11.6172 264.375 11.373C264.473 11.1289 264.676 10.958 264.985 10.8604C265.278 10.7627 265.571 10.6732 265.864 10.5918C266.174 10.4941 266.483 10.4046 266.792 10.3232C266.711 9.98145 266.621 9.64779 266.523 9.32227C266.442 8.98047 266.353 8.63867 266.255 8.29688C266.174 7.98763 266.206 7.72721 266.353 7.51562C266.515 7.28776 266.719 7.14128 266.963 7.07617C267.207 7.01107 267.451 7.03548 267.695 7.14941C267.956 7.24707 268.127 7.45052 268.208 7.75977C268.403 8.39453 268.574 9.06999 268.721 9.78613C272.236 8.84212 275.736 8.06087 279.219 7.44238C282.702 6.82389 286.266 6.35189 289.912 6.02637ZM312.407 18.7461C312.716 18.681 312.977 18.738 313.188 18.917C313.416 19.0798 313.563 19.2832 313.628 19.5273C313.709 19.7715 313.693 20.0156 313.579 20.2598C313.481 20.4876 313.27 20.6341 312.944 20.6992C311.74 20.9434 310.462 21.1631 309.111 21.3584C307.777 21.5374 306.434 21.6107 305.083 21.5781C303.748 21.5456 302.438 21.3665 301.152 21.041C299.867 20.6992 298.687 20.1377 297.612 19.3564C296.864 18.8193 296.416 18.2578 296.27 17.6719C296.123 17.0859 296.172 16.5 296.416 15.9141C296.66 15.3281 297.051 14.7585 297.588 14.2051C298.125 13.6517 298.703 13.139 299.321 12.667C299.956 12.195 300.583 11.7799 301.201 11.4219C301.836 11.0638 302.365 10.7871 302.788 10.5918C303.228 10.3802 303.773 10.2012 304.424 10.0547C305.091 9.9082 305.783 9.81868 306.499 9.78613C307.215 9.7373 307.915 9.76172 308.599 9.85938C309.299 9.95703 309.893 10.1605 310.381 10.4697C310.869 10.779 311.219 11.2021 311.431 11.7393C311.659 12.2764 311.659 12.9518 311.431 13.7656C311.284 14.3353 310.991 14.8317 310.552 15.2549C310.112 15.6618 309.608 16.0117 309.038 16.3047C308.485 16.5977 307.907 16.8418 307.305 17.0371C306.702 17.2161 306.157 17.3545 305.669 17.4521C305.083 17.5661 304.497 17.6393 303.911 17.6719C303.325 17.6882 302.731 17.68 302.129 17.6475C301.543 17.5986 300.949 17.5417 300.347 17.4766C299.761 17.3952 299.175 17.3138 298.589 17.2324C298.719 17.5579 298.971 17.8428 299.346 18.0869C299.736 18.3311 300.168 18.5345 300.64 18.6973C301.128 18.86 301.624 18.9984 302.129 19.1123C302.65 19.21 303.105 19.2832 303.496 19.332C305.026 19.5599 306.515 19.6006 307.964 19.4541C309.429 19.2913 310.91 19.0553 312.407 18.7461ZM304.326 12.1543C303.48 12.4798 302.601 12.903 301.689 13.4238C300.794 13.9447 300.021 14.5306 299.37 15.1816C299.354 15.2142 299.338 15.2386 299.321 15.2549C299.305 15.2549 299.289 15.2712 299.272 15.3037C300.103 15.4339 300.981 15.5397 301.909 15.6211C302.837 15.7025 303.748 15.7106 304.644 15.6455C305.539 15.5641 306.377 15.377 307.158 15.084C307.956 14.7747 308.623 14.2865 309.16 13.6191C309.535 13.1797 309.681 12.8379 309.6 12.5938C309.535 12.3333 309.331 12.1462 308.989 12.0322C308.664 11.9183 308.257 11.8532 307.769 11.8369C307.28 11.8206 306.792 11.8288 306.304 11.8613C305.832 11.8939 305.4 11.9427 305.01 12.0078C304.635 12.0729 304.408 12.1217 304.326 12.1543Z" fill="#40BA4C"/>
</svg>
