<svg width="338" height="27" viewBox="0 0 338 27" fill="none" xmlns="http://www.w3.org/2000/svg">
<path d="M21.0918 1.26758C21.6289 3.28581 22.1253 5.31217 22.5811 7.34668C23.0531 9.36491 23.5169 11.3913 23.9727 13.4258C24.4284 15.4603 24.9004 17.4867 25.3887 19.5049C25.877 21.5231 26.4141 23.5332 27 25.5352C27.0977 25.8444 27.0651 26.1048 26.9023 26.3164C26.7396 26.528 26.5361 26.6663 26.292 26.7314C26.0479 26.7965 25.8037 26.7803 25.5596 26.6826C25.3154 26.585 25.1445 26.3815 25.0469 26.0723C24.4284 23.9564 23.8669 21.8486 23.3623 19.749C22.8577 17.6331 22.3613 15.5091 21.873 13.377H5.02734C5.49935 15.4277 5.97135 17.4622 6.44336 19.4805C6.93164 21.4987 7.47689 23.5169 8.0791 25.5352C8.17676 25.8444 8.14421 26.1048 7.98145 26.3164C7.81868 26.528 7.61523 26.6663 7.37109 26.7314C7.12695 26.7965 6.88281 26.7803 6.63867 26.6826C6.39453 26.585 6.22363 26.3815 6.12598 26.0723C5.54004 24.0703 5.00293 22.0602 4.51465 20.042C4.02637 18.0238 3.55436 15.9974 3.09863 13.9629C2.6429 11.9284 2.18717 9.90202 1.73145 7.88379C1.27572 5.84928 0.779297 3.82292 0.242188 1.80469C0.160807 1.49544 0.193359 1.23503 0.339844 1.02344C0.502604 0.795573 0.706055 0.649089 0.950195 0.583984C1.19434 0.51888 1.43848 0.543294 1.68262 0.657227C1.94303 0.754883 2.11393 0.958333 2.19531 1.26758C2.63477 2.94401 3.0498 4.62044 3.44043 6.29688C3.83105 7.97331 4.21354 9.65788 4.58789 11.3506H21.4336C21.0755 9.73926 20.7093 8.14421 20.335 6.56543C19.9769 4.97038 19.5863 3.38346 19.1631 1.80469C19.0817 1.49544 19.1143 1.23503 19.2607 1.02344C19.4235 0.795573 19.627 0.649089 19.8711 0.583984C20.1152 0.51888 20.3594 0.543294 20.6035 0.657227C20.8477 0.754883 21.0104 0.958333 21.0918 1.26758ZM42.8057 4.0752C43.8311 5.2959 44.7995 6.54915 45.7109 7.83496C46.6387 9.12077 47.542 10.4229 48.4209 11.7412C49.3161 13.0596 50.195 14.3861 51.0576 15.7207C51.9365 17.0391 52.8398 18.3411 53.7676 19.627C53.9629 19.9036 54.0117 20.1641 53.9141 20.4082C53.8327 20.6361 53.6781 20.8151 53.4502 20.9453C53.2386 21.0592 52.9945 21.1081 52.7178 21.0918C52.4411 21.0592 52.2132 20.9128 52.0342 20.6523C51.5133 19.9525 51.0088 19.2526 50.5205 18.5527C50.0322 17.8366 49.5521 17.1123 49.0801 16.3799H39.5098C39.054 17.5029 38.5902 18.626 38.1182 19.749C37.6624 20.8558 37.1742 21.9626 36.6533 23.0693C36.5068 23.3623 36.3115 23.5332 36.0674 23.582C35.8232 23.6146 35.5872 23.5658 35.3594 23.4355C35.1478 23.3053 34.985 23.1182 34.8711 22.874C34.7572 22.6136 34.7653 22.3369 34.8955 22.0439C35.335 21.1162 35.75 20.1803 36.1406 19.2363C36.5475 18.2923 36.9463 17.3402 37.3369 16.3799H36.0918C35.7663 16.3799 35.514 16.2741 35.335 16.0625C35.1722 15.8509 35.0908 15.623 35.0908 15.3789C35.0908 15.1185 35.1722 14.8825 35.335 14.6709C35.514 14.4593 35.7663 14.3535 36.0918 14.3535H38.1426C38.7122 12.9049 39.2738 11.4645 39.8271 10.0322C40.3805 8.58366 40.9421 7.12695 41.5117 5.66211C41.4792 5.62956 41.4548 5.60514 41.4385 5.58887C41.4385 5.57259 41.4222 5.54818 41.3896 5.51562C41.1781 5.27148 41.0967 5.01107 41.1455 4.73438C41.1943 4.45768 41.3001 4.22982 41.4629 4.05078C41.6419 3.87174 41.8535 3.77409 42.0977 3.75781C42.3581 3.72526 42.5941 3.83105 42.8057 4.0752ZM47.7373 14.3535C46.9561 13.1816 46.1748 12.026 45.3936 10.8867C44.6286 9.7474 43.8148 8.61621 42.9521 7.49316C42.5127 8.63249 42.0732 9.77181 41.6338 10.9111C41.1943 12.0505 40.7549 13.1979 40.3154 14.3535H47.7373ZM65.5205 23.7041C65.1462 22.4183 64.8044 21.1243 64.4951 19.8223C64.1859 18.5202 63.8848 17.2181 63.5918 15.916C63.2988 14.6139 62.9977 13.3118 62.6885 12.0098C62.3955 10.6914 62.0781 9.38118 61.7363 8.0791C61.6549 7.76986 61.6956 7.50944 61.8584 7.29785C62.0212 7.08626 62.2246 6.94792 62.4688 6.88281C62.7129 6.81771 62.957 6.83398 63.2012 6.93164C63.4453 7.0293 63.6081 7.23275 63.6895 7.54199C64.015 8.79525 64.3161 10.0485 64.5928 11.3018C64.8857 12.555 65.1706 13.8083 65.4473 15.0615C65.7402 16.3148 66.0332 17.568 66.3262 18.8213C66.6191 20.0745 66.9365 21.3197 67.2783 22.5566C68.7594 21.873 70.265 21.3278 71.7949 20.9209C73.3249 20.4977 74.8711 20.1722 76.4336 19.9443C77.9961 19.7165 79.5667 19.5618 81.1455 19.4805C82.7406 19.3991 84.3356 19.3503 85.9307 19.334C85.5563 18.0319 85.2064 16.7217 84.8809 15.4033C84.5716 14.085 84.2705 12.7666 83.9775 11.4482C83.6846 10.1299 83.3835 8.81152 83.0742 7.49316C82.7812 6.1748 82.4557 4.85645 82.0977 3.53809C82.0163 3.22884 82.057 2.96842 82.2197 2.75684C82.3825 2.52897 82.5859 2.38249 82.8301 2.31738C83.0742 2.25228 83.3184 2.27669 83.5625 2.39062C83.8066 2.48828 83.9694 2.69173 84.0508 3.00098C84.4089 4.35189 84.7425 5.71094 85.0518 7.07812C85.361 8.42904 85.6621 9.78809 85.9551 11.1553C86.2643 12.5062 86.5817 13.8652 86.9072 15.2324C87.2327 16.5833 87.599 17.9261 88.0059 19.2607V19.334H92.791H109.588C109.197 18.0319 108.839 16.7217 108.514 15.4033C108.204 14.085 107.903 12.7666 107.61 11.4482C107.317 10.1299 107.016 8.81152 106.707 7.49316C106.414 6.1748 106.097 4.85645 105.755 3.53809C105.674 3.22884 105.706 2.96842 105.853 2.75684C106.015 2.52897 106.219 2.38249 106.463 2.31738C106.707 2.25228 106.951 2.27669 107.195 2.39062C107.456 2.48828 107.627 2.69173 107.708 3.00098C108.066 4.35189 108.4 5.71094 108.709 7.07812C109.018 8.42904 109.319 9.78809 109.612 11.1553C109.922 12.5062 110.239 13.8652 110.564 15.2324C110.89 16.5833 111.256 17.9261 111.663 19.2607C111.728 19.5049 111.704 19.7409 111.59 19.9688C111.704 20.2617 111.679 20.571 111.517 20.8965C111.37 21.2057 111.093 21.3604 110.687 21.3604H93.9141C91.668 21.3604 89.4137 21.3441 87.1514 21.3115C84.889 21.279 82.6429 21.3441 80.4131 21.5068C78.1833 21.6533 75.9779 21.9707 73.7969 22.459C71.6322 22.931 69.5163 23.6797 67.4492 24.7051C67.3353 24.819 67.1969 24.9085 67.0342 24.9736C66.8877 25.0387 66.7331 25.0632 66.5703 25.0469C66.3913 25.0632 66.2204 25.0306 66.0576 24.9492C65.9111 24.8678 65.7891 24.762 65.6914 24.6318C65.5938 24.4854 65.5286 24.3307 65.4961 24.168C65.4635 24.0052 65.4717 23.8506 65.5205 23.7041ZM146.658 5.80859C147.016 7.15951 147.35 8.51855 147.659 9.88574C147.968 11.2529 148.27 12.6201 148.562 13.9873C148.872 15.3545 149.189 16.7217 149.515 18.0889C149.856 19.4398 150.223 20.7826 150.613 22.1172C150.711 22.4264 150.678 22.6868 150.516 22.8984C150.369 23.11 150.174 23.2484 149.93 23.3135C149.686 23.3786 149.433 23.3623 149.173 23.2646C148.929 23.167 148.758 22.9635 148.66 22.6543C148.302 21.4499 147.968 20.2454 147.659 19.041C147.366 17.8203 147.081 16.5996 146.805 15.3789C146.528 14.1582 146.251 12.9375 145.975 11.7168C145.714 10.4961 145.438 9.27539 145.145 8.05469C142.817 10.3822 140.498 12.7015 138.187 15.0127C135.892 17.3239 133.58 19.6432 131.253 21.9707C130.976 22.2474 130.651 22.3369 130.276 22.2393C129.918 22.1253 129.682 21.8893 129.568 21.5312C129.161 20.1966 128.795 18.8538 128.47 17.5029C128.144 16.1357 127.827 14.7686 127.518 13.4014C127.225 12.0342 126.924 10.667 126.614 9.2998C126.305 7.93262 125.971 6.57357 125.613 5.22266C125.532 4.91341 125.564 4.65299 125.711 4.44141C125.874 4.21354 126.077 4.06706 126.321 4.00195C126.565 3.93685 126.81 3.96126 127.054 4.0752C127.314 4.17285 127.485 4.3763 127.566 4.68555C127.892 5.90625 128.193 7.12695 128.47 8.34766C128.746 9.56836 129.015 10.7891 129.275 12.0098C129.552 13.2305 129.829 14.4512 130.105 15.6719C130.398 16.8926 130.716 18.1051 131.058 19.3096C133.385 16.9821 135.704 14.6628 138.016 12.3516C140.327 10.0241 142.646 7.69661 144.974 5.36914C145.104 5.23893 145.258 5.15755 145.438 5.125C145.617 5.07617 145.787 5.07617 145.95 5.125C146.113 5.15755 146.259 5.23893 146.39 5.36914C146.52 5.48307 146.609 5.62956 146.658 5.80859ZM188.938 5.44238C189.052 5.14941 189.24 4.9541 189.5 4.85645C189.777 4.75879 190.037 4.74251 190.281 4.80762C190.525 4.87272 190.713 5.01107 190.843 5.22266C190.989 5.41797 191.006 5.67025 190.892 5.97949C190.241 7.62337 189.606 9.26725 188.987 10.9111C188.369 12.5387 187.726 14.1663 187.059 15.7939C187.124 15.8753 187.173 15.9486 187.205 16.0137C187.254 16.0788 187.311 16.152 187.376 16.2334C187.522 16.4287 187.579 16.624 187.547 16.8193C187.531 16.9984 187.457 17.1611 187.327 17.3076C187.213 17.4378 187.067 17.5436 186.888 17.625C186.709 17.6901 186.521 17.7064 186.326 17.6738C185.952 18.6016 185.561 19.5293 185.154 20.457C184.764 21.3685 184.357 22.2881 183.934 23.2158C183.803 23.5088 183.608 23.6797 183.348 23.7285C183.104 23.7611 182.868 23.7122 182.64 23.582C182.428 23.4518 182.265 23.2646 182.151 23.0205C182.037 22.7601 182.054 22.4834 182.2 22.1904C182.656 21.165 183.095 20.1478 183.519 19.1387C183.958 18.1296 184.381 17.1123 184.788 16.0869C183.974 14.915 183.177 13.735 182.396 12.5469C181.614 11.3587 180.825 10.1706 180.027 8.98242C179.246 7.79427 178.432 6.63053 177.586 5.49121C176.756 4.33561 175.885 3.20443 174.974 2.09766C174.762 1.85352 174.681 1.60124 174.729 1.34082C174.778 1.06413 174.892 0.836263 175.071 0.657227C175.25 0.47819 175.462 0.380534 175.706 0.364258C175.966 0.331706 176.202 0.4375 176.414 0.681641C177.277 1.70703 178.099 2.76497 178.88 3.85547C179.677 4.92969 180.451 6.02832 181.199 7.15137C181.964 8.25814 182.713 9.37305 183.445 10.4961C184.178 11.6191 184.926 12.734 185.691 13.8408C186.245 12.4248 186.782 11.0251 187.303 9.6416C187.84 8.24186 188.385 6.84212 188.938 5.44238ZM203.816 22.9473C202.97 22.2962 202.27 21.4906 201.717 20.5303C201.163 19.5537 200.74 18.5202 200.447 17.4297C200.171 16.3229 200.016 15.1999 199.983 14.0605C199.951 12.9049 200.04 11.8226 200.252 10.8135C200.561 9.33236 201.131 8.06283 201.961 7.00488C202.807 5.93066 203.808 5.05176 204.964 4.36816C206.136 3.68457 207.422 3.18815 208.821 2.87891C210.237 2.56966 211.661 2.43945 213.094 2.48828C214.526 2.52083 215.926 2.72428 217.293 3.09863C218.66 3.47298 219.897 4.00195 221.004 4.68555C221.281 4.86458 221.435 5.08431 221.468 5.34473C221.5 5.60514 221.451 5.84928 221.321 6.07715C221.207 6.28874 221.028 6.44336 220.784 6.54102C220.54 6.63867 220.28 6.59798 220.003 6.41895C219.026 5.81673 217.903 5.35286 216.634 5.02734C215.381 4.70182 214.087 4.53906 212.752 4.53906C211.434 4.52279 210.132 4.66927 208.846 4.97852C207.576 5.28776 206.437 5.77604 205.428 6.44336C204.435 7.11068 203.629 7.97331 203.011 9.03125C202.392 10.0729 202.083 11.3262 202.083 12.791C202.083 13.9141 202.173 15.0208 202.352 16.1113C202.531 17.1855 202.856 18.1702 203.328 19.0654C203.8 19.9443 204.443 20.693 205.257 21.3115C206.071 21.9137 207.112 22.2962 208.382 22.459C209.277 22.5892 210.172 22.6624 211.067 22.6787C211.979 22.6787 212.882 22.6543 213.777 22.6055C214.673 22.5566 215.568 22.4834 216.463 22.3857C217.358 22.2881 218.253 22.1904 219.148 22.0928C219.474 22.0602 219.718 22.1416 219.881 22.3369C220.044 22.516 220.125 22.7357 220.125 22.9961C220.125 23.2565 220.044 23.5007 219.881 23.7285C219.718 23.9564 219.474 24.0866 219.148 24.1191C218.4 24.2005 217.586 24.2982 216.707 24.4121C215.844 24.526 214.957 24.6237 214.046 24.7051C213.134 24.7865 212.215 24.8353 211.287 24.8516C210.359 24.8678 209.448 24.819 208.553 24.7051C207.674 24.5911 206.827 24.3958 206.014 24.1191C205.216 23.8424 204.484 23.4518 203.816 22.9473ZM238.47 4.0752C239.495 5.2959 240.464 6.54915 241.375 7.83496C242.303 9.12077 243.206 10.4229 244.085 11.7412C244.98 13.0596 245.859 14.3861 246.722 15.7207C247.601 17.0391 248.504 18.3411 249.432 19.627C249.627 19.9036 249.676 20.1641 249.578 20.4082C249.497 20.6361 249.342 20.8151 249.114 20.9453C248.903 21.0592 248.659 21.1081 248.382 21.0918C248.105 21.0592 247.877 20.9128 247.698 20.6523C246.917 19.5781 246.152 18.4876 245.403 17.3809C244.671 16.2578 243.938 15.1429 243.206 14.0361C242.474 12.9294 241.725 11.8307 240.96 10.7402C240.211 9.63346 239.43 8.55111 238.616 7.49316C237.591 10.1136 236.574 12.7259 235.564 15.3301C234.572 17.918 233.489 20.4977 232.317 23.0693C232.171 23.3623 231.976 23.5332 231.731 23.582C231.487 23.6146 231.251 23.5658 231.023 23.4355C230.812 23.3053 230.649 23.1182 230.535 22.874C230.421 22.6136 230.429 22.3369 230.56 22.0439C231.797 19.3584 232.936 16.6484 233.978 13.9141C235.035 11.1797 236.102 8.43717 237.176 5.68652C237.143 5.65397 237.119 5.62956 237.103 5.61328C237.103 5.58073 237.086 5.54818 237.054 5.51562C236.842 5.27148 236.761 5.01107 236.81 4.73438C236.858 4.45768 236.964 4.22982 237.127 4.05078C237.306 3.87174 237.518 3.77409 237.762 3.75781C238.022 3.72526 238.258 3.83105 238.47 4.0752ZM271.585 5.44238C271.699 5.14941 271.886 4.9541 272.146 4.85645C272.423 4.75879 272.684 4.74251 272.928 4.80762C273.172 4.87272 273.359 5.01107 273.489 5.22266C273.636 5.41797 273.652 5.67025 273.538 5.97949C272.887 7.62337 272.252 9.26725 271.634 10.9111C271.015 12.5387 270.372 14.1663 269.705 15.7939C269.77 15.8753 269.819 15.9486 269.852 16.0137C269.9 16.0788 269.957 16.152 270.022 16.2334C270.169 16.4287 270.226 16.624 270.193 16.8193C270.177 16.9984 270.104 17.1611 269.974 17.3076C269.86 17.4378 269.713 17.5436 269.534 17.625C269.355 17.6901 269.168 17.7064 268.973 17.6738C268.598 18.6016 268.208 19.5293 267.801 20.457C267.41 21.3685 267.003 22.2881 266.58 23.2158C266.45 23.5088 266.255 23.6797 265.994 23.7285C265.75 23.7611 265.514 23.7122 265.286 23.582C265.075 23.4518 264.912 23.2646 264.798 23.0205C264.684 22.7601 264.7 22.4834 264.847 22.1904C265.302 21.165 265.742 20.1478 266.165 19.1387C266.604 18.1296 267.028 17.1123 267.435 16.0869C266.621 14.915 265.823 13.735 265.042 12.5469C264.261 11.3587 263.471 10.1706 262.674 8.98242C261.893 7.79427 261.079 6.63053 260.232 5.49121C259.402 4.33561 258.532 3.20443 257.62 2.09766C257.409 1.85352 257.327 1.60124 257.376 1.34082C257.425 1.06413 257.539 0.836263 257.718 0.657227C257.897 0.47819 258.108 0.380534 258.353 0.364258C258.613 0.331706 258.849 0.4375 259.061 0.681641C259.923 1.70703 260.745 2.76497 261.526 3.85547C262.324 4.92969 263.097 6.02832 263.846 7.15137C264.611 8.25814 265.359 9.37305 266.092 10.4961C266.824 11.6191 267.573 12.734 268.338 13.8408C268.891 12.4248 269.428 11.0251 269.949 9.6416C270.486 8.24186 271.032 6.84212 271.585 5.44238ZM298.206 0.535156C298.532 0.535156 298.776 0.640951 298.938 0.852539C299.101 1.06413 299.183 1.30013 299.183 1.56055C299.183 1.80469 299.101 2.03255 298.938 2.24414C298.776 2.45573 298.532 2.56152 298.206 2.56152H286.17C286.658 4.46582 287.114 6.38639 287.537 8.32324C287.977 10.2438 288.408 12.1644 288.831 14.085C289.271 16.0055 289.718 17.9261 290.174 19.8467C290.646 21.7673 291.167 23.6715 291.736 25.5596C291.834 25.8688 291.801 26.1292 291.639 26.3408C291.476 26.5524 291.272 26.6908 291.028 26.7559C290.784 26.821 290.54 26.8047 290.296 26.707C290.052 26.6094 289.881 26.4059 289.783 26.0967C289.197 24.0947 288.66 22.0846 288.172 20.0664C287.684 18.0319 287.212 15.9974 286.756 13.9629C286.3 11.9284 285.836 9.90202 285.364 7.88379C284.909 5.84928 284.412 3.82292 283.875 1.80469C283.794 1.47917 283.851 1.1862 284.046 0.925781C284.257 0.665365 284.526 0.535156 284.852 0.535156H298.206ZM332.908 5.80859C333.266 7.15951 333.6 8.51855 333.909 9.88574C334.218 11.2529 334.52 12.6201 334.812 13.9873C335.122 15.3545 335.439 16.7217 335.765 18.0889C336.106 19.4398 336.473 20.7826 336.863 22.1172C336.961 22.4264 336.928 22.6868 336.766 22.8984C336.619 23.11 336.424 23.2484 336.18 23.3135C335.936 23.3786 335.683 23.3623 335.423 23.2646C335.179 23.167 335.008 22.9635 334.91 22.6543C334.552 21.4499 334.218 20.2454 333.909 19.041C333.616 17.8203 333.331 16.5996 333.055 15.3789C332.778 14.1582 332.501 12.9375 332.225 11.7168C331.964 10.4961 331.688 9.27539 331.395 8.05469C329.067 10.3822 326.748 12.7015 324.437 15.0127C322.142 17.3239 319.83 19.6432 317.503 21.9707C317.226 22.2474 316.901 22.3369 316.526 22.2393C316.168 22.1253 315.932 21.8893 315.818 21.5312C315.411 20.1966 315.045 18.8538 314.72 17.5029C314.394 16.1357 314.077 14.7686 313.768 13.4014C313.475 12.0342 313.174 10.667 312.864 9.2998C312.555 7.93262 312.221 6.57357 311.863 5.22266C311.782 4.91341 311.814 4.65299 311.961 4.44141C312.124 4.21354 312.327 4.06706 312.571 4.00195C312.815 3.93685 313.06 3.96126 313.304 4.0752C313.564 4.17285 313.735 4.3763 313.816 4.68555C314.142 5.90625 314.443 7.12695 314.72 8.34766C314.996 9.56836 315.265 10.7891 315.525 12.0098C315.802 13.2305 316.079 14.4512 316.355 15.6719C316.648 16.8926 316.966 18.1051 317.308 19.3096C319.635 16.9821 321.954 14.6628 324.266 12.3516C326.577 10.0241 328.896 7.69661 331.224 5.36914C331.354 5.23893 331.508 5.15755 331.688 5.125C331.867 5.07617 332.037 5.07617 332.2 5.125C332.363 5.15755 332.509 5.23893 332.64 5.36914C332.77 5.48307 332.859 5.62956 332.908 5.80859Z" fill="#40BA4C"/>
</svg>
