<svg width="16" height="21" viewBox="0 0 16 21" fill="none" xmlns="http://www.w3.org/2000/svg">
<path d="M3.76473 8.35699C2.99972 8.79989 2.66195 9.57256 2.33683 10.3728C1.43523 12.5922 0.750286 15.2265 1.08743 17.6383C1.43163 20.1007 3.84286 20.3856 5.87507 19.6122C9.40109 18.2702 11.7631 14.4322 13.0041 11.0553C13.6285 9.356 14.7907 5.63538 12.7941 4.30429C10.3547 2.67806 6.83145 5.26591 5.17163 6.8976C3.74778 8.29731 1.34339 11.1447 1.90637 13.3966C2.62282 16.2624 7.60394 13.5306 8.79386 12.6617C11.2545 10.8648 13.1684 7.99549 13.865 5.01823C14.428 2.61178 13.2372 0.870784 10.6732 1.00753C7.5174 1.17584 5.74035 3.85347 4.87765 6.61412C4.25454 8.60806 3.63889 11.9302 5.40261 13.5856C8.3794 16.3796 12.5393 9.81757 9.5603 9.23892C7.46593 8.8321 5.21694 10.0192 3.97471 11.6537C2.56939 13.5029 2.6971 15.1354 3.00878 17.2393" stroke="#40BA4C" stroke-width="2" stroke-linecap="round"/>
</svg>
