<svg width="16" height="38" viewBox="0 0 16 38" fill="none" xmlns="http://www.w3.org/2000/svg">
<path d="M13.9492 2.44445C13.7705 3.30571 13.3915 4.14789 12.9335 4.94628C13.0666 4.27854 13.2285 3.61872 13.4351 2.97357C13.5343 2.66376 14.1841 1.3122 13.9492 2.44445Z" fill="#40BA4C"/>
<path d="M2 16.3489C3.28971 15.816 4.25871 15.0115 5.25129 14.0583C7.58617 11.8159 9.84208 9.43452 11.7122 6.81136C12.6338 5.51859 13.6237 4.01317 13.9492 2.44445C14.1841 1.3122 13.5343 2.66376 13.4351 2.97357C12.7259 5.18892 12.5427 7.57721 12.2471 9.86552C11.6981 14.1156 11.2819 18.3799 10.7465 22.6314C10.3404 25.8563 9.85418 29.0932 9.00972 32.2426C8.67056 33.5074 8.20577 34.7334 7.87732 36" stroke="#40BA4C" stroke-width="3" stroke-linecap="round"/>
</svg>
