<svg width="77" height="14" viewBox="0 0 77 14" fill="none" xmlns="http://www.w3.org/2000/svg">
<path d="M1.00024 5.85339C2.9286 3.44521 8.49411 2.80737 11.0522 2.3849C22.1762 0.547767 33.0147 1.79727 43.8409 3.7264C51.9681 5.1746 59.9188 6.89253 67.7619 9.35784C70.328 10.1644 73.2241 10.9467 75.494 12.436C75.7878 12.6288 74.9063 12.0505 74.6125 11.8577C73.8036 11.3269 72.6863 11.3367 71.7421 11.1714C70.4865 10.9515 69.2184 11.047 67.9407 11.0712C66.8353 11.0922 65.5238 10.7235 64.4264 10.9821C62.8477 11.354 65.9619 12.6371 66.5782 12.5713C69.296 12.2811 71.9971 12.8343 74.7166 12.724C77.3464 12.6174 73.0465 9.49452 72.7113 9.21373C70.684 7.51533 67.9891 5.24727 65.3768 4.6008" stroke="#40BA4C" stroke-linecap="round"/>
</svg>
