<svg width="31" height="41" viewBox="0 0 31 41" fill="none" xmlns="http://www.w3.org/2000/svg">
<path d="M13.394 35.761C13.8556 35.4804 14.3015 35.1846 14.7314 34.8745C12.1042 34.43 9.3672 34.2724 6.75686 34.7755C5.27216 35.0616 3.29096 35.6099 2.36545 36.8912C1.44121 38.1707 2.42119 38.76 3.62422 38.7519C7.06261 38.7287 10.5118 37.5131 13.394 35.761Z" fill="#40BA4C"/>
<path d="M9.04554 10.0968C9.04554 8.87263 9.80784 7.94438 10.5618 6.99557C11.8338 5.39475 16.109 0.0663788 18.7295 2.73658C20.4682 4.50815 21.2397 7.37593 21.7406 9.67639C22.487 13.1045 22.8771 16.7794 22.6775 20.2825C22.3135 26.672 19.0153 32.3438 13.394 35.761C10.5118 37.5131 7.06261 38.7287 3.62422 38.7519C2.42119 38.76 1.44121 38.1707 2.36545 36.8912C3.29096 35.6099 5.27216 35.0616 6.75686 34.7755C9.8379 34.1817 13.0954 34.5083 16.1405 35.1407C20.5373 36.0539 24.6364 37.9489 29 39" stroke="#40BA4C" stroke-width="3" stroke-linecap="round"/>
</svg>
