<svg width="25" height="41" viewBox="0 0 25 41" fill="none" xmlns="http://www.w3.org/2000/svg">
<path d="M15.291 22.5916C15.6954 21.4166 15.9366 20.1019 16.0846 18.7883C15.2773 18.8032 14.4301 18.9699 13.5618 19.2977C11.9831 19.8937 10.5486 20.9371 10.1179 22.5576C9.93576 23.2428 9.92543 24.2482 10.6533 24.681C11.4832 25.1744 12.8953 24.787 13.6776 24.4223C14.6631 23.963 14.8887 23.7606 15.291 22.5916Z" fill="#40BA4C"/>
<path d="M3.1721 2.27662C4.33106 2.17751 5.44867 2.01878 6.63052 2.00439C8.45842 1.98213 10.3508 2.01286 11.999 2.87552C16.6317 5.30024 16.4425 10.9545 16.3112 15.2823C16.2418 17.5706 16.0666 20.338 15.291 22.5916C14.8887 23.7606 14.6631 23.963 13.6776 24.4223C12.8953 24.787 11.4832 25.1744 10.6533 24.681C9.92543 24.2482 9.93576 23.2428 10.1179 22.5576C10.5486 20.9371 11.9831 19.8937 13.5618 19.2977C16.9229 18.0287 19.9682 19.1749 21.6074 22.1901C23.6548 25.9563 23.5636 30.7133 20.5365 33.9911C16.0132 38.8891 8.37518 39.2475 2 38.9049" stroke="#40BA4C" stroke-width="3" stroke-linecap="round"/>
</svg>
