<svg width="60" height="20" viewBox="0 0 60 20" fill="none" xmlns="http://www.w3.org/2000/svg">
<path d="M57.6905 7.07209C58.2859 7.0662 58.6033 7.1799 58.3805 7.49249C58.366 7.5128 58.3493 7.53396 58.3302 7.55598C57.9739 7.96639 56.9188 7.7951 55.5465 7.32999C52.5346 6.30914 47.995 3.87284 45.9644 3.06527C45.8642 3.02542 45.7401 2.97557 45.5968 2.9177C45.3115 2.82517 45.0263 2.7326 44.7414 2.63989C43.2543 2.15619 41.9212 1.95222 40.0461 0.711608C39.7744 0.531834 43.9523 2.2536 45.5968 2.9177C48.8683 3.97866 52.1612 5.03244 55.4862 6.18091C56.4595 6.51707 57.1761 6.80953 57.6905 7.07209Z" fill="#40BA4C"/>
<path d="M1 7.69702C10.4026 15.5748 23.838 20.3212 27.996 18.5247C31.7736 16.8924 34.2042 13.9675 38.0823 12.4078C42.5302 10.619 47.5181 9.38405 52.399 8.03427C54.0863 7.56763 59.3117 6.42525 58.3302 7.55598C57.192 8.8672 48.9202 4.24078 45.9644 3.06527C44.7144 2.56815 39.7507 0.516167 40.0461 0.711608C41.9212 1.95222 43.2543 2.15619 44.7414 2.63989C48.2943 3.79559 51.8712 4.93228 55.4862 6.18091C60.5768 7.93918 58.6462 8.50214 57.4827 9.84251C55.5339 12.0876 53.5851 14.3327 51.6363 16.5779" stroke="#40BA4C" stroke-linecap="round"/>
</svg>
