<svg width="122" height="67" viewBox="0 0 122 67" fill="none" xmlns="http://www.w3.org/2000/svg">
<path d="M33.5936 30.93C47.242 23.8659 61.8837 17.5521 77.1997 11.9743C82.098 10.1905 87.046 8.3789 92.2044 6.89529C93.6061 6.49215 95.8753 5.65577 97.5217 5.65577C98.4545 5.65577 96.2465 6.50773 95.5307 6.88018C89.666 9.93201 83.4346 12.695 77.5396 15.7231C55.0722 27.2639 37.1661 41.9401 17.4719 55.2065C12.1982 58.7589 6.1003 62.0742 1.18035 65.818C0.148193 66.6034 3.82783 64.6316 5.08936 63.9889C17.922 57.4522 30.775 50.9222 43.4025 44.2322C66.7992 31.8366 89.2047 18.8171 111.725 5.82205C114.217 4.38404 117.616 1.70223 121 1" stroke="#40BA4C" stroke-width="2" stroke-linecap="round"/>
</svg>
