<svg width="224" height="9" viewBox="0 0 224 9" fill="none" xmlns="http://www.w3.org/2000/svg">
<path d="M1 1.08778C24.2507 1.08778 47.5014 1.08778 70.7521 1.08778C94.6411 1.08778 118.53 1.08778 142.419 1.08778C146.252 1.08778 150.344 0.836835 154.196 1.18353C155.641 1.31361 152.89 1.91914 152.76 1.94951C150.51 2.47546 148.256 2.99014 146.01 3.52935C143.941 4.02583 141.788 4.44354 139.786 5.18099C139.568 5.26118 136.198 6.86372 137.584 7.2635C141.102 8.27821 145.847 7.8381 149.409 7.88586C158.934 8.0136 168.469 7.77052 177.989 7.50287C193.157 7.07647 207.902 5.81476 222.895 3.67297" stroke="#40BA4C" stroke-width="2" stroke-linecap="round"/>
</svg>
