<svg width="21" height="13" viewBox="0 0 21 13" fill="none" xmlns="http://www.w3.org/2000/svg">
<path d="M20.003 12.3804H17.722C16.859 12.3804 16.599 11.6814 15.052 10.1334C13.7 8.83036 13.129 8.66836 12.787 8.66836C12.314 8.66836 12.185 8.79836 12.185 9.44936V11.5014C12.185 12.0564 12.005 12.3814 10.555 12.3814C9.14829 12.2869 7.78416 11.8595 6.57497 11.1345C5.36578 10.4095 4.34612 9.40763 3.6 8.21136C1.82839 6.00638 0.595707 3.41844 0 0.653357C0 0.311357 0.13 0.00135681 0.782 0.00135681H3.062C3.648 0.00135681 3.859 0.262357 4.089 0.865357C5.196 4.12336 7.085 6.95736 7.852 6.95736C8.146 6.95736 8.274 6.82736 8.274 6.09436V2.73836C8.177 1.20736 7.364 1.07836 7.364 0.524357C7.37428 0.378198 7.44114 0.241805 7.55037 0.14415C7.65961 0.0464946 7.80261 -0.00473 7.949 0.00135681H11.533C12.023 0.00135681 12.185 0.245357 12.185 0.831357V5.36136C12.185 5.85036 12.395 6.01236 12.543 6.01236C12.837 6.01236 13.063 5.85036 13.602 5.31236C14.7574 3.90334 15.7013 2.33352 16.404 0.652357C16.4759 0.45051 16.6119 0.277731 16.7912 0.160374C16.9705 0.0430166 17.1832 -0.0124774 17.397 0.00235673H19.678C20.362 0.00235673 20.507 0.344357 20.362 0.832357C19.5324 2.69077 18.5058 4.45486 17.3 6.09436C17.054 6.46936 16.956 6.66436 17.3 7.10436C17.526 7.44636 18.326 8.11436 18.863 8.74936C19.645 9.52936 20.294 10.4314 20.785 11.4194C20.981 12.0554 20.654 12.3804 20.003 12.3804Z" fill="#1E1E1E"/>
</svg>
